<svg width="22" height="65" viewBox="0 0 22 65" fill="none" xmlns="http://www.w3.org/2000/svg">
<path d="M1.37067 0C4.39676 10.6227 7.19196 21.3184 10.5195 31.8458C13.3549 40.8159 16.8347 49.5811 19.9535 58.4636C20.6026 60.3126 20.9182 62.2786 21.3641 64.5887C20.2983 64.9432 19.2561 64.8996 17.7048 64.6442C16.9809 64.2266 16.7312 64.0805 16.3751 63.6125C14.3689 56.8096 12.4341 50.3879 10.4851 43.6959C10.2552 42.9541 10.0396 42.4827 9.76443 41.5996C8.2186 35.7989 6.58136 30.446 5.28137 25.0125C3.30682 16.7594 1.56629 8.45038 0 0.138428C0.639283 0.0744627 1.00497 0.037231 1.37067 0Z" fill="#41536A"/>
</svg>
