<svg width="10" height="13" viewBox="0 0 10 13" fill="none" xmlns="http://www.w3.org/2000/svg">
<path d="M6.41168 8.40656C7.23041 7.82597 8.0492 7.24537 9.13708 6.53396C9.40619 6.40314 9.37793 6.38015 9.37793 6.38015C9.34637 7.32572 9.31482 8.27129 9.32947 9.56564C6.37964 10.8237 3.38361 11.733 0 12.7244C0.088501 11.7021 0.459717 10.5365 1.06049 9.50462C2.85278 6.42595 4.73505 3.39969 6.63074 0C7.26532 0.01355 7.85132 0.380065 8.5061 1.03915C7.8432 3.43972 7.11163 5.54772 6.19629 8.04321C6.00458 8.6263 5.99664 8.82189 5.98865 9.01748C6.12964 8.81384 6.27063 8.61019 6.41168 8.40656Z" fill="#230609"/>
</svg>
