<svg width="29" height="36" viewBox="0 0 29 36" fill="none" xmlns="http://www.w3.org/2000/svg">
<path d="M21.2231 2.82888C30.5294 10.5385 30.8323 26.7078 21.7993 33.67C20.0455 35.0217 18.6595 35.7332 16.1807 34.2016C14.0567 32.8893 10.9342 32.8063 8.26359 32.8473C3.02958 32.9278 0.456456 30.9027 0.241552 25.6161C0.0931141 21.9636 0.536474 18.261 0.117224 14.6503C-1.07076 4.41647 6.9321 -2.31366 16.807 0.741175C9.99961 3.26043 6.27585 7.89428 5.34293 14.9669C4.83964 18.7816 7.59562 23.1445 11.0407 23.7509C15.5201 24.5394 19.6484 21.9885 20.1692 17.6672C20.762 12.7502 20.892 7.77743 21.2231 2.82888Z" fill="#263547"/>
</svg>
