<svg width="51" height="120" viewBox="0 0 51 120" fill="none" xmlns="http://www.w3.org/2000/svg">
<path d="M15.7913 95.2622C20.9563 95.6251 23.8957 93.4136 26.7391 89.0556C33.2685 79.0481 36.8209 67.8797 39.9138 56.6715C42.227 48.2885 39.5233 39.9985 34.7025 32.6628C32.4299 29.2045 29.8736 25.9162 27.8105 22.3405C24.9713 17.4196 21.1364 14.2931 14.9114 13.9864C14.5129 13.9805 14.0898 14.0228 13.8795 14.0459C9.26434 13.3673 4.85962 12.6656 0 11.5651C0.552765 7.42938 1.5604 3.69254 2.9299 0C9.02576 2.36853 14.7598 4.69272 20.4938 7.01688C28.7539 12.8688 34.7215 20.6869 39.7321 29.3468C45.6064 39.4995 46.0158 50.1472 42.3672 61.0154C40.506 66.5594 38.0613 71.9077 35.8803 77.3445C36.3378 77.5478 36.7952 77.7513 37.2527 77.9547C41.2312 69.3792 45.2099 60.8038 49.1884 52.2284C49.5318 52.265 49.8752 52.3016 50.2185 52.3382C49.1562 57.5438 48.7414 62.9904 46.9102 67.9099C41.3733 82.7854 32.9008 96.1075 23.8649 109.08C21.5159 112.452 19.3865 115.978 17.1562 119.433C16.6727 119.399 16.1892 119.365 15.7057 119.331C15.7057 111.45 15.7057 103.569 15.7913 95.2622Z" fill="#1E2C3F"/>
</svg>
