<svg width="81" height="155" viewBox="0 0 81 155" fill="none" xmlns="http://www.w3.org/2000/svg">
<path d="M42.1592 154.259C41.8839 123.627 42.5672 93.0431 47.2841 62.6617C46.8432 62.5524 46.4023 62.4433 45.9613 62.334C45.155 64.8074 44.3167 67.2709 43.5473 69.7558C36.9081 91.1992 32.283 113.017 31.216 135.512C31.1485 136.936 30.7188 138.541 29.9264 139.698C26.3672 144.896 22.6159 149.963 18.4992 154.931C12.5351 149.04 9.99466 142.158 10.652 134.2C12.1274 132.671 13.9026 131.267 14.1631 129.623C16.2823 116.248 17.6004 102.726 20.214 89.4557C22.095 79.9049 25.6273 70.6828 28.3467 61.2921C29.8206 56.202 31.1349 51.0657 32.5212 45.9502C31.8403 45.7249 31.1594 45.4995 30.4785 45.2741C18.461 60.8498 10.6427 78.2124 8.75641 98.2498C5.58829 98.2303 2.79416 98.2189 0 98.2076C0.917541 93.1622 0.799591 87.5927 3.01974 83.2067C5.68194 77.9473 6.50479 72.4529 8.24274 67.1824C14.931 46.9003 21.4957 26.4409 31.9501 7.56456C34.9366 2.17226 38.4598 -0.991714 44.8949 0.280533C39.1462 13.0393 33.2817 25.2347 27.4171 37.4301C27.8218 37.6422 28.2265 37.8544 28.6313 38.0667C29.8186 36.1462 31.128 34.2897 32.1727 32.2945C37.2416 22.6133 42.2396 12.8948 47.7007 3.19014C49.9412 3.27516 51.7892 3.1321 53.5386 3.48198C62.9341 5.36101 62.8878 5.39806 61.5113 15.1468C61.3766 16.1001 62.0734 17.1708 62.352 18.5846C61.6416 23.0568 60.9634 27.1314 60.0487 31.3617C59.7738 32.0386 59.7355 32.5596 59.6971 33.0807C59.839 33.0815 59.9809 33.0823 60.1228 33.0831C60.1604 32.4437 60.198 31.8043 60.5227 30.9601C62.6211 25.898 64.4323 21.0408 66.7022 16.1872C71.5656 16.8926 75.9703 17.5943 80.3751 18.2959C76.8185 43.5558 78.527 68.9539 77.9922 94.7574C76.8288 95.2086 76.0529 95.2056 75.2586 94.8479C75.0847 93.649 74.9292 92.8049 74.7736 91.9608C72.7618 96.9689 71.5778 102.035 70.2191 107.054C68.1515 114.692 67.2407 123.968 59.6251 127.554C49.5464 132.3 46.6336 139.142 48.2751 149.207C48.3275 149.529 48.263 149.869 47.9533 150.345C45.8221 151.745 43.9906 153.002 42.1592 154.259ZM25.683 40.4384C25.5202 41.004 25.3574 41.5697 24.7422 42.3352C24.4693 42.5522 24.3054 42.8328 23.8178 43.4248C23.8404 43.7996 23.8629 44.1746 23.8854 44.5495C24.0178 44.1028 24.1501 43.6561 24.7579 43.0601C25.0445 42.8615 25.2304 42.593 25.819 41.9432C26.0072 41.3946 26.1954 40.846 26.6981 40.1134C26.523 40.1054 26.348 40.0975 25.683 40.4384ZM48.9904 57.7337C49.8843 54.6211 50.7782 51.5086 51.6721 48.396C51.2737 48.2804 50.8753 48.1647 50.4769 48.0491C49.4393 51.4444 48.4018 54.8397 47.2655 58.8746C47.3499 59.4359 47.4342 59.9971 47.5185 60.5583C47.7062 60.5604 47.8939 60.5625 48.0816 60.5647C48.2155 59.7905 48.3494 59.0165 48.9904 57.7337ZM69.8532 73.1015C69.8678 66.6081 70.0557 60.1048 69.6851 53.6335C69.637 52.7927 66.6667 51.3964 65.123 51.4879C58.0045 51.9097 54.7621 56.7982 53.5149 63.086C51.88 71.3275 50.2806 79.6148 49.4322 87.9603C48.8459 93.7264 49.556 99.6243 49.6868 105.463C50.2743 105.572 50.8618 105.68 51.4494 105.789C59.5854 96.3879 65.0745 85.421 69.8532 73.1015Z" fill="#2E3F53"/>
</svg>
