<svg width="57" height="26" viewBox="0 0 57 26" fill="none" xmlns="http://www.w3.org/2000/svg">
<path d="M12.2997 19.2612C12.2997 19.2612 12.3514 19.3068 12.3752 19.3315C9.24223 18.2956 6.08549 17.235 2.39345 15.9645C1.54515 15.6618 1.23219 15.569 0.919204 15.4763C0.604446 14.5129 -0.208909 12.8801 0.0501547 12.6872C3.56795 10.0672 7.17088 7.54553 10.8893 5.21752C12.9356 3.93639 15.2378 3.06404 17.9354 1.52619C21.7836 0.825594 25.142 0.771905 28.4545 0.354494C36.973 -0.718985 44.6499 0.376772 50.6679 7.40058C51.9509 8.89794 54.289 9.49136 56.0923 10.8542C54.1966 14.2539 52.3143 17.2802 50.522 20.3588C49.9213 21.3907 49.5501 22.5563 49.0739 23.6608C47.534 23.8554 45.994 24.05 44.1654 23.759C47.8512 15.2546 47.2615 10.1658 41.8622 6.04197C41.6918 5.92903 41.5602 5.99609 41.4287 6.06314C41.567 6.13513 41.7054 6.20712 41.8746 6.69544C42.3174 11.6353 42.7294 16.1588 43.1414 20.6824C42.8106 20.6019 42.4799 20.5215 42.1492 20.441C40.0944 17.3445 38.0396 14.248 35.9632 10.9023C35.7775 10.3774 35.6135 10.1017 35.4495 9.8259C35.5598 10.3268 35.6701 10.8277 35.7793 11.7196C36.8292 16.4663 37.8803 20.822 38.9313 25.1777C38.043 25.2081 37.1548 25.2385 36.2704 24.8737C36.2669 24.2215 36.2597 23.9647 36.2524 23.7078C35.9531 23.9196 35.6538 24.1314 35.3546 24.3431C35.3546 24.3431 35.3311 24.4523 35.3226 24.0657C34.2327 21.8399 33.1513 20.0006 31.9545 17.853C30.5165 16.1151 29.1937 14.6857 27.7258 12.9535C26.6009 11.8993 25.621 11.1478 24.6412 10.3963C25.7436 11.723 26.8461 13.0498 27.9485 14.3765C26.0328 14.5261 24.1171 14.6756 21.6704 14.8666C21.9827 15.1081 22.7498 15.7014 23.0959 16.3444C19.4162 15.4716 16.1575 14.549 12.5974 13.5546C11.9457 13.8518 11.5954 14.2209 11.2449 14.5901C11.7835 14.8324 12.3221 15.0747 13.1716 15.4332C16.2146 17.5115 18.9465 19.4735 21.6785 21.4354C21.5261 21.7125 21.3737 21.9895 21.2212 22.2666C18.7335 21.6065 16.2458 20.9464 13.7581 20.2864C13.7581 20.2864 13.8427 20.2604 13.6606 20.0381C13.0856 19.631 12.6926 19.4461 12.2997 19.2612ZM22.5726 9.75665L22.3671 9.65663C22.3671 9.65663 22.4068 9.86054 22.5726 9.75665Z" fill="#734E34"/>
</svg>
