<svg width="19" height="39" viewBox="0 0 19 39" fill="none" xmlns="http://www.w3.org/2000/svg">
<path d="M6.30689 0.00196713C6.30689 0.00196713 6.77814 -0.0438707 7.00275 0.30699C3.71314 5.52104 3.99146 10.4514 8.16815 14.4542C11.0739 17.239 14.9471 19.0143 18.3882 21.2405C16.3472 23.9099 14.3063 26.5793 11.976 29.746C10.8721 31.1129 10.0574 31.9825 9.00153 32.9993C8.89215 33.8683 9.02399 34.5901 9.19214 35.6468C9.28095 36.1999 9.33344 36.4181 9.38385 36.6617C9.38184 36.6869 9.3302 36.7131 9.05969 36.9256C8.62103 37.5546 8.45288 37.9711 8.24384 38.5172C8.11816 38.8159 7.9895 38.9393 7.5047 38.9593C6.98468 38.8624 6.7768 38.8233 6.46839 38.4533C-2.20428 28.5366 -0.0557847 17.1858 1.13904 5.58919C1.20447 3.78899 1.211 2.40135 1.21747 1.01369C1.24854 0.838057 1.27972 0.662459 1.76508 0.238326C3.58179 -0.00612022 4.94434 -0.00206087 6.30689 0.00196713Z" fill="#1F2E41"/>
</svg>
