<svg width="26" height="22" viewBox="0 0 26 22" fill="none" xmlns="http://www.w3.org/2000/svg">
<path d="M24.2039 7.10245C23.3425 7.61317 22.5128 7.80107 21.4755 8.23615C19.7076 9.29971 18.1471 10.1161 16.4229 11.236C15.1293 12.1223 13.9995 12.7052 12.5689 13.4193C10.7896 13.8749 9.00977 13.7878 7.89194 14.6055C5.16952 16.5972 2.75418 19.0086 0 21.441C1.16901 14.0077 2.2356 7.22546 3.67474 0C7.81021 1.35718 11.6521 3.013 15.3079 5.00966C17.6777 6.30402 19.2385 6.80708 20.7513 3.80199C22.6165 0.0968018 24.2919 0.922302 25.2507 4.53526C24.9123 5.28339 24.5739 6.03149 24.2039 7.10245Z" fill="#0F1223"/>
</svg>
