<svg width="57" height="110" viewBox="0 0 57 110" fill="none" xmlns="http://www.w3.org/2000/svg">
<path d="M0 106.935C1.25641 102.173 2.92154 97.4542 4.90161 92.1345C8.39761 80.1335 11.5556 68.7267 14.7683 57.3353C16.6781 50.5639 18.6741 43.8167 20.9869 36.9862C24.4981 30.8406 27.6447 24.7626 30.8143 18.6967C32.0306 16.3689 33.2997 14.0687 34.5447 11.756C34.1398 11.5026 33.7349 11.2491 33.3299 10.9956C32.149 12.4459 31.0088 13.932 29.777 15.3378C28.1031 17.2479 26.3593 19.0969 24.6483 20.5377C25.6569 13.4023 26.6627 6.70111 27.6684 0C37.1467 1.20166 46.6249 2.40338 56.8557 3.7005C54.992 8.45319 53.1845 13.0628 51.1488 18.2543C48.1775 15.3699 53.2961 10.1068 46.7247 9.31464C46.1087 11.2414 45.0882 13.2913 44.8322 15.4327C43.7493 24.4895 40.6949 32.4335 34.7774 39.6909C30.6765 44.7202 27.6799 50.9235 25.3195 57.0382C21.2085 67.6884 17.6561 78.5847 14.4898 89.5568C12.7634 95.5389 12.3113 101.889 11.1095 109.127C7.55756 108.413 3.98315 107.695 0 106.935Z" fill="#0F1021"/>
</svg>
