<svg width="13" height="19" viewBox="0 0 13 19" fill="none" xmlns="http://www.w3.org/2000/svg">
<path d="M11.2089 18.2703C9.99913 17.7788 8.80165 17.254 7.57762 16.8009C-0.71248 13.7322 -0.712541 13.7374 0.713637 4.90007C0.971724 3.30086 1.20787 1.69807 1.46901 0C1.79826 0.311249 2.08342 0.48468 2.22261 0.73822C2.37529 1.01639 2.39336 1.36844 2.56413 2.21631C2.7094 3.04071 2.85884 3.27432 3.10649 3.44519C3.1374 3.8499 3.16832 4.25459 3.30516 5.1904C3.50423 6.07446 3.72938 6.28876 4.08653 6.36436C4.08653 6.36436 4.02559 6.32442 4.08751 6.69266C6.79405 10.1888 9.43867 13.3167 12.1347 16.6641C12.1861 16.8837 12.486 17.2206 12.486 17.2206C12.4527 17.4058 12.4194 17.591 12.0452 18.0028C11.7043 18.2295 11.2089 18.2703 11.2089 18.2703Z" fill="#C1715A"/>
</svg>
