<svg width="169" height="162" viewBox="0 0 169 162" fill="none" xmlns="http://www.w3.org/2000/svg">
<path d="M88.9984 158.27C88.9713 159.089 88.9442 159.908 88.5536 161.046C85.552 159.283 82.9137 157.202 80.2392 155.121C80.203 155.122 80.1345 155.146 80.0586 154.901C79.6915 154.495 79.4002 154.334 79.0444 154.247C78.9799 154.321 79.1259 154.19 79.0489 153.942C78.6846 153.521 78.3973 153.347 78.0506 153.251C77.9911 153.329 78.1286 153.189 78.051 152.942C77.6874 152.519 77.4014 152.343 77.0616 152.252C77.0077 152.337 77.1363 152.183 77.0627 151.936C76.7096 151.51 76.4302 151.331 76.0696 151.226C75.9883 151.3 76.1539 151.146 76.0808 150.902C75.7268 150.488 75.4459 150.316 75.0614 150.2C74.9578 150.255 75.1606 150.131 75.0888 149.888C74.7363 149.477 74.4556 149.309 74.0722 149.211C73.9696 149.282 74.161 149.122 74.0868 148.881C73.7318 148.473 73.451 148.306 73.0643 148.213C72.9584 148.287 73.1623 148.126 73.0874 147.885C72.7329 147.477 72.4533 147.31 72.0712 147.207C71.9686 147.271 72.1598 147.122 72.0882 146.881C71.7382 146.472 71.4599 146.304 71.0764 146.203C70.9713 146.269 71.1667 146.115 71.0945 145.875C70.7461 145.467 70.4701 145.298 70.0915 145.191C69.9889 145.253 70.1748 145.102 70.1024 144.864C69.8382 144.324 69.564 144.155 69.1151 144.182C69.023 144.243 69.1804 144.088 69.1034 143.852C68.8305 143.316 68.5541 143.153 68.1011 143.198C68.0052 143.27 68.1739 143.099 68.0968 142.862C67.8245 142.324 67.5478 142.159 67.0858 142.195C66.9817 142.261 67.1722 142.105 67.0992 141.867C66.8369 141.322 66.562 141.155 66.1792 141.127C66.157 141.123 66.2164 141.113 66.1788 140.825C65.7555 140.13 65.3698 139.722 64.9768 139.323C64.9695 139.331 64.9882 139.321 64.919 139.067C64.5761 138.601 64.3026 138.39 63.9522 137.973C63.7252 137.501 63.5051 137.317 63.1028 136.974C62.7003 136.544 62.4102 136.356 62.1045 136.253C62.0889 136.338 62.1422 136.171 62.0695 135.927C61.7224 135.502 61.4479 135.321 61.1857 135.216C61.1979 135.291 61.2029 135.138 61.1592 134.852C60.7207 134.175 60.3259 133.783 59.8304 133.169C59.5446 132.667 59.2969 132.462 58.9107 132.086C58.5523 131.658 58.2697 131.478 57.9778 131.315C57.9686 131.332 58.0037 131.314 57.9208 131.072C57.5594 130.646 57.2809 130.463 56.9862 130.304C56.97 130.329 57.0222 130.3 56.9472 130.045C56.5959 129.579 56.3196 129.367 55.8778 128.842C54.0215 127.891 52.0468 126.356 50.6929 126.784C46.3787 128.148 42.2953 130.242 37.4259 132.357C39.074 133.719 40.0337 134.512 41.1104 135.524C41.463 136.029 41.7622 136.135 42.1751 136.074C42.225 136.086 42.3069 136.149 42.0889 136.438C41.5148 137.055 41.1587 137.381 40.4547 137.638C39.4048 137.464 38.7028 137.36 37.8388 137.059C37.3551 136.819 37.0333 136.777 36.2914 136.622C27.6319 135.027 21.4697 138.835 15.656 144.485C14.4854 145.023 13.6264 145.4 12.3409 145.692C8.27679 146.189 4.63919 146.771 1.00156 147.353C0.768463 146.434 0.5354 145.515 0 144.395C2.21024 143.49 4.7114 142.742 7.23883 142.097C9.30142 141.571 11.3954 141.168 13.9925 140.38C15.0277 139.558 15.5458 139.065 16.064 138.572C19.7244 136.757 23.3849 134.941 27.6961 132.893C30.612 131.707 32.877 130.753 35.142 129.798C39.0224 127.933 42.9182 126.099 46.7791 124.194C51.4199 121.904 55.9138 120.211 58.6367 126.621C66.5036 123.378 73.9842 120.359 81.383 117.151C82.1667 116.811 82.7281 115.424 82.9561 114.423C84.5789 107.299 86.1901 100.169 87.5281 92.9886C87.7378 91.8632 86.7668 90.3071 85.9608 89.2372C80.5671 82.0776 77.1036 74.4166 79.1752 65.1734C79.912 61.8863 80.4893 58.4627 85.0891 58.1108C84.3814 51.3461 84.0805 44.7124 82.9077 38.2366C81.5264 30.6095 83.7941 24.4417 89.1537 18.4776C89.317 17.4984 89.1241 16.9793 88.9312 16.4602C88.9874 15.7186 89.0435 14.977 89.5147 13.7075C90.299 12.5721 90.6682 11.9648 91.0373 11.3575C97.2717 4.88148 104.109 0.116489 113.809 3.06142C114.448 3.25542 115.396 2.74417 116.098 2.37046C123.299 -1.45945 130.036 -0.455914 136.629 3.99627C141.677 7.40577 146.905 10.5505 152.697 14.0485C156.156 16.159 158.971 18.0339 161.787 19.9088C162.118 22.4485 162.699 24.9849 162.733 27.5284C162.82 34.2129 162.712 40.9012 162.593 47.5864C162.546 50.2445 162.081 52.9048 162.173 55.5515C162.216 56.817 162.837 58.8853 163.67 59.1618C167.796 60.5306 168.017 63.7677 168.153 67.1758C168.492 75.6366 166.209 83.207 160.795 89.8478C159.878 90.9728 159.579 92.8021 159.463 94.3413C159.152 98.4825 159.095 102.643 158.401 107.248C157.763 108.375 157.661 109.051 157.559 109.726C157.559 109.726 157.514 109.727 157.536 109.74C156.503 111.401 154.868 112.943 154.543 114.725C154.159 116.826 154.909 119.133 155.167 121.351C152.674 121.468 150.182 121.614 147.688 121.681C147.052 121.698 146.411 121.465 145.457 121.012C146.401 119.123 147.724 117.619 148.902 116.008C151.531 112.411 155.719 109.013 156.326 105.079C157.51 97.4085 156.673 89.4262 156.673 81.5731C156.174 81.2493 155.676 80.9255 155.177 80.6017C153.784 82.4647 152.391 84.3278 150.608 86.2403C143.444 83.1182 136.562 80.1557 129.954 76.6717C127.323 75.2846 125.471 74.0024 122.432 75.974C117.596 79.1109 112.293 81.5186 107.362 84.5219C104.024 86.5552 101.014 86.9744 97.7497 84.0756C96.3853 82.6447 95.1765 81.4865 93.8266 80.0312C92.3569 77.4781 91.0281 75.2221 89.6519 72.8857C89.2194 73.5494 88.6449 74.4308 87.9642 74.999C87.4052 74.0811 86.9524 73.4764 86.1534 72.4094C86.1534 74.1744 86.1534 75.2442 85.865 76.2237C85.0378 75.8644 84.4989 75.5953 83.8819 75.1502C83.8037 74.9741 83.8791 74.5961 83.912 74.1725C83.6409 71.9574 83.3368 70.1659 82.9423 68.1666C82.8519 67.9588 82.867 67.5058 82.9453 67.1122C83.0649 66.4542 83.1061 66.1898 83.4936 65.9827C85.7122 67.6869 87.5846 69.3338 89.4569 70.9806C89.5523 68.1021 89.0958 65.6209 87.9388 63.5266C86.9134 61.6703 85.1929 59.856 82.6998 62.4161C82.2754 62.711 82.2661 62.9708 82.5591 63.5809C82.7469 64.5545 82.901 65.1976 82.8545 66.0927C82.4482 66.7122 82.2425 67.0798 82.0301 67.8879C81.9112 70.6787 81.799 73.029 81.5642 75.4881C81.3342 75.9551 81.4751 76.1933 82.0161 76.5668C82.6049 77.4696 83.042 78.1172 83.5626 79.1118C85.7874 82.193 87.9286 84.9272 90.1505 87.8104C90.3853 88.1336 90.5735 88.255 90.8603 88.7799C91.1783 93.615 91.4319 97.9939 91.563 102.482C91.3284 102.947 91.4651 103.19 91.94 103.52C92.0293 103.722 92.0383 104.164 91.9884 104.509C91.5619 105.41 91.1853 105.967 90.8052 106.487C90.8017 106.451 90.8626 106.49 90.8294 106.261C90.6803 105.728 90.4769 105.505 90.0807 105.073C89.9444 104.381 89.9135 103.976 89.8802 103.367C89.8333 102.884 89.7086 102.648 89.375 102.134C89.1695 101.495 89.1514 101.143 88.9987 100.864C88.8595 100.611 88.5744 100.437 88.2451 100.126C87.984 101.824 87.7478 103.427 87.4897 105.026C86.0636 113.864 86.0636 113.858 94.3537 116.927C95.5778 117.38 96.7752 117.905 97.9792 118.628C97.9733 118.859 97.9706 119.321 97.9706 119.321C97.6511 119.782 97.3315 120.243 96.6694 120.866C93.0967 119.533 89.8667 118.039 85.2427 115.9C86.1953 122.431 86.9308 127.475 87.7747 133.262C91.3502 129.322 93.1823 129.865 94.2833 133.826C95.0779 136.685 96.0616 139.491 96.5969 142.363C87.9676 145.292 85.7344 147.78 86.7881 152.979C89.2034 152.753 91.6244 152.527 93.9998 152.642C92.3023 154.745 90.6503 156.507 88.9984 158.27ZM103.149 40.6254C103.149 40.6254 103.248 40.6526 102.49 40.4472C101.97 40.4177 101.45 40.3881 100.167 40.096C98.9259 39.6764 97.6847 39.2568 95.9706 38.6774C96.7357 44.4452 97.3853 49.3407 97.9736 53.7757C101.956 55.6209 106.399 57.3262 110.494 59.6459C121.367 65.8052 132.134 66.1634 143.15 60.0831C146.539 58.2129 150.197 56.8315 153.335 55.4063C153.128 51.7003 151.974 47.7044 152.946 44.3185C154.208 39.9216 153.718 36.6388 151.008 32.8106C152.605 30.921 154.109 28.9411 155.819 27.1592C160.359 22.429 159.785 20.326 152.621 17.651C146.88 14.0541 141.047 10.5941 135.425 6.82053C130.159 3.28625 124.793 2.79151 118.805 4.68509C116.1 5.54068 113.013 5.71801 110.161 5.47662C103.849 4.94233 98.993 7.27937 94.1951 11.9009C99.2964 11.3677 103.56 10.9221 107.524 11.0816C105.337 12.1382 103.035 13.0106 100.989 14.2917C97.2703 16.6197 93.6674 19.1414 90.1496 21.7614C89.8905 21.9543 90.7039 23.5871 91.3383 24.9362C91.6567 25.0266 91.9752 25.1171 93.0282 25.2487C96.1849 26.3092 99.3417 27.3698 103.131 29.0966C100.128 32.3262 103.137 35.5565 103.116 39.6911C103.159 39.9897 103.202 40.2882 103.149 40.6254ZM93.9844 29.3235C93.9844 29.3235 94.0508 29.2967 93.7328 28.7692C90.1652 26.0089 87.9579 27.3408 86.8758 31.2275C86.3946 32.9559 86.1796 34.8285 86.2378 36.6229C86.3829 41.0938 86.6186 45.572 87.0985 50.017C87.3002 51.8856 88.2098 53.6779 88.8913 56.016C89.0692 56.2238 89.2472 56.4315 89.4252 56.6392C89.5171 56.1719 89.609 55.7047 89.8714 54.6831C89.9822 54.3135 90.0929 53.944 90.9084 53.4009C93.7917 51.6714 95.0651 49.9259 92.9252 46.3139C91.2992 43.5695 90.3163 39.8639 94.7955 37.2694C95.5908 36.9097 96.386 36.55 97.8069 36.1213C96.9975 34.1844 96.188 32.2475 95.0051 29.8343C94.6588 29.6409 94.3124 29.4476 93.9844 29.3235ZM155.633 76.9944C159.395 72.8992 157.889 68.0007 157.482 63.3554C157.439 62.8708 155.099 62.5879 154.61 62.4431C153.386 65.2632 152.265 67.2445 151.68 69.3731C151.155 71.2857 151.219 73.3603 150.59 75.867C147.069 75.0053 143.547 74.1437 139.971 72.5536C139.93 72.3137 139.888 72.0737 140.686 71.8287C145.026 72.1291 148.861 71.4643 151.11 65.6341C145.552 66.8451 140.714 67.8924 135.892 69.0109C135.814 69.029 135.938 69.9173 135.564 70.8953C133.068 69.709 130.661 67.829 128.055 67.4932C123.776 66.9417 119.156 66.4907 115.898 69.5125C114.001 68.8813 111.452 67.1655 110.339 67.8356C107.698 69.425 106.924 68.2799 105.207 66.602C103.031 64.4746 100.604 64.5064 99.151 68.2827C96.368 66.9292 96.4227 65.4177 98.6342 63.4036C99.5739 62.5478 100.149 61.1748 100.535 59.9271C100.612 59.6778 98.9119 58.3578 98.3232 58.53C97.0568 58.9007 95.775 59.7297 94.8623 60.7091C91.0525 64.7973 91.3324 69.9444 93.5986 74.0966C98.2638 82.6442 101.284 86.4752 110.64 79.5735C115.067 76.3077 121.044 74.5725 126.575 73.5941C129.755 73.0317 133.448 75.3697 137.253 76.9874C145.937 84.7242 149.03 84.7858 155.633 76.9944ZM65.2584 133.94C69.1381 138.223 72.9141 142.606 76.9263 146.76C81.0175 150.997 83.0468 150.67 85.824 145.433C86.5622 144.042 87.2263 142.153 86.8964 140.731C85.4617 134.55 83.6474 128.456 81.5463 121.855C74.9883 124.402 68.4302 126.948 61.0396 129.818C63.0591 131.634 64.0086 132.488 65.2584 133.94ZM156.62 41.9917C155.967 44.0045 154.018 46.2554 157.836 47.4598C156.655 49.9786 154.705 52.6825 159.401 54.3088C159.401 45.2383 159.401 36.4519 159.401 26.3386C156.162 30.1298 153.718 32.4209 156.554 36.3683C157.359 37.4891 156.801 39.5899 156.62 41.9917Z" fill="#150B0B"/>
</svg>
