<svg width="26" height="13" viewBox="0 0 26 13" fill="none" xmlns="http://www.w3.org/2000/svg">
<path d="M22.8569 3.88232C23.0983 4.35838 23.3396 4.83446 23.8549 5.7135C24.3949 6.3138 24.6611 6.51114 24.9272 6.70848C24.9272 6.70848 24.9668 6.64349 25.0107 6.91058C25.3333 7.36888 25.6119 7.56007 25.8906 7.75128C25.8906 7.75128 25.926 7.65697 25.9254 8.04407C25.9207 9.14758 25.9165 9.86403 25.9122 10.5805C25.9122 10.5805 25.9393 10.6419 25.5314 10.5871C22.6432 11.176 20.163 11.8199 17.6829 12.4637C17.2991 12.4727 16.9153 12.4817 15.882 12.4888C14.4824 12.4395 13.7325 12.3924 12.6587 12.1231C9.20697 12.1398 6.07904 12.3786 2.5835 12.6614C1.47791 12.7674 0.739929 12.8295 0 12.5114C0.030029 11.3845 0.0621331 10.6377 0.366455 9.68837C4.40771 6.32391 8.17676 3.16196 11.9457 0C15.0183 0.79866 18.0909 1.59732 21.583 2.80994C22.2873 3.44336 22.5721 3.66284 22.8569 3.88232Z" fill="#C22F32"/>
</svg>
