<svg width="20" height="17" viewBox="0 0 20 17" fill="none" xmlns="http://www.w3.org/2000/svg">
<path d="M17.0024 14.741C11.4126 10.9567 5.82272 7.17249 0 3.12479C0.599305 2.00333 1.43149 1.14532 2.52652 0C4.50964 0.416534 6.22989 1.12042 7.95013 1.82428C8.38696 2.13669 8.82376 2.4491 9.7196 3.08426C13.1321 5.78122 16.0857 8.15546 19.1275 10.7825C19.4724 11.2751 19.7288 11.5148 19.998 12.175C20.0052 13.9962 19.9997 15.3969 19.7603 16.7688C19.5263 16.74 19.0554 16.7179 18.9575 16.4846C18.5821 16.0714 18.3045 15.8914 17.9263 15.4819C17.5477 15.08 17.2697 14.9078 16.9851 14.7434C16.9784 14.7514 17.0024 14.741 17.0024 14.741Z" fill="#8F2D31"/>
</svg>
