<svg width="59" height="267" viewBox="0 0 59 267" fill="none" xmlns="http://www.w3.org/2000/svg">
<path d="M58.6021 0C54.6429 11.9899 49.9443 23.9023 46.0864 36.0809C35.855 68.379 25.4311 100.634 16.1864 133.22C10.803 152.195 6.82159 171.651 3.54507 191.115C0.787032 207.5 -0.690522 224.348 6.02438 240.327C9.7464 249.184 14.6053 257.563 19.0058 266.508C16.4134 263.246 13.2751 259.89 11.2293 255.965C7.6413 249.081 4.26343 242.01 1.70012 234.7C0.210968 230.454 0.0919644 225.596 0.0280454 221.004C-0.19368 205.078 0.85617 189.295 4.72452 173.706C7.96487 160.649 9.91104 147.268 13.2031 134.225C16.4771 121.254 20.6523 108.507 24.5486 95.6967C27.8485 84.8468 31.3358 74.054 34.6737 63.2153C35.0066 62.1345 34.8769 60.9113 34.9633 59.3416C36.277 56.0511 37.7747 53.2415 38.8692 50.2829C43.2632 38.4054 47.4372 26.4459 51.8931 14.592C53.7525 9.64557 56.1133 4.88754 58.6021 0Z" fill="#150506"/>
</svg>
