<svg width="81" height="21" viewBox="0 0 81 21" fill="none" xmlns="http://www.w3.org/2000/svg">
<path d="M9.00574 1.44588C12.6545 0.8703 16.2921 0.288421 20.6245 0C26.7156 2.76096 32.0511 5.37492 37.5288 7.64558C41.3073 9.21182 45.2002 10.7027 49.1867 11.526C58.3857 13.4256 67.6729 14.8983 77.1505 16.7962C78.2 17.807 79.0232 18.5656 80.5319 19.9558C77.8875 20.2414 76.3419 20.4084 74.3593 20.5804C61.0888 19.1138 48.0392 20.0282 35.4518 15.6342C28.6578 13.2626 21.1732 12.8692 14.0002 11.5834C13.5621 11.4946 13.124 11.4058 12.0228 11.103C7.58136 10.7232 3.80316 10.5573 0.024964 10.3914C0.024964 10.3914 -0.0161432 10.4284 0.00714176 10.0947C0.0585338 9.33646 0.0866392 8.9119 0.114716 8.48732C0.114716 8.48732 0.0243233 8.48531 0.371857 8.44852C2.19562 7.11319 3.67191 5.81468 5.14819 4.51617C5.62366 4.19655 6.09912 3.87691 7.02152 3.35754C7.77029 3.01198 7.93723 2.77214 7.96924 2.43831C7.96924 2.43831 7.98959 2.43689 8.23703 2.36301C8.65915 2.01163 8.83386 1.73413 9.00861 1.45663C9.00861 1.45663 8.99466 1.43958 9.00574 1.44588Z" fill="#C22F32"/>
</svg>
