<svg width="42" height="53" viewBox="0 0 42 53" fill="none" xmlns="http://www.w3.org/2000/svg">
<path d="M5.27337 0C6.32726 0.999939 7.82818 2.26813 8.14696 3.78485C9.94298 12.3278 11.2665 20.9724 13.1576 29.4919C13.8974 32.8246 15.6561 35.939 17.0195 39.1234C18.6315 42.8884 21.3162 43.463 23.8307 40.4155C26.745 36.8833 29.707 33.1035 31.4222 28.9276C35.163 19.8196 38.1272 10.3927 41.3519 1.25702C40.8032 13.4403 40.0732 25.9473 36.0548 38.0089C34.963 41.286 33.3357 44.3848 31.6252 47.6094C30.2922 48.1515 29.1456 48.4784 28.3072 49.1757C22.7612 53.7881 15.6805 53.8905 10.3173 49.2669C1.47466 41.6437 -1.56672 32.0213 0.743519 20.6797C2.1256 13.8949 3.69133 7.14734 5.27337 0Z" fill="#1E2C3F"/>
</svg>
