<svg width="25" height="26" viewBox="0 0 25 26" fill="none" xmlns="http://www.w3.org/2000/svg">
<path d="M9.4508 25.2641C6.49121 23.4147 3.26391 21.4462 0.60925 18.8844C-0.264957 18.0408 -0.0528594 15.5613 0.345762 14.0048C1.52368 9.40552 3.04309 4.89374 4.81408 0C7.7904 2.2514 10.9025 3.0434 14.508 2.61255C16.4574 2.37958 18.4586 2.57965 20.4365 2.58435C21.372 3.17914 22.3075 3.77399 24.4816 5.15625C21.7319 5.81531 20.1885 6.35236 18.6061 6.52008C16.8283 6.7085 15.0151 6.56348 12.3011 6.56348C14.2366 11.2106 21.2138 13.2485 17.1038 19.4804C12.7774 17.832 8.04394 16.0285 3.31048 14.225C2.95062 14.7188 2.59076 15.2125 2.23089 15.7063C4.62262 18.7755 7.01434 21.8447 9.4508 25.2641Z" fill="#040407"/>
</svg>
