<svg width="15" height="49" viewBox="0 0 15 49" fill="none" xmlns="http://www.w3.org/2000/svg">
<path d="M0.0237427 22.9732C2.97711 20.3843 8.49536 18.0626 8.35663 16.1516C8.00281 11.2772 9.9538 4.66607 3.05597 1.23922C3.85443 0.423824 5.28961 -0.259616 5.62726 0.0967976C6.88202 1.42129 7.77576 3.08783 8.87323 4.96447C9.5686 6.48413 10.1957 7.66528 10.8328 9.03079C10.8428 9.21521 11.0013 9.54876 10.9836 9.93191C11.9496 11.9989 12.9333 13.6827 13.9171 15.3665C16.5768 26.4672 12.5687 36.9921 10.7109 48.1028C9.14947 47.3591 7.68854 46.4339 6.90497 45.1082C4.46539 40.9804 2.28247 36.701 0 32.4803C0.00409 29.4627 0.00817868 26.4451 0.0237427 22.9732Z" fill="#141123"/>
</svg>
