<svg width="77" height="19" viewBox="0 0 77 19" fill="none" xmlns="http://www.w3.org/2000/svg">
<path d="M0 1.27667C0.13739 0.649901 0.337952 0.384522 0.760376 0C1.37329 0.185059 2.03809 0.431763 2.11566 0.801636C4.57477 12.5298 14.0095 14.6577 23.6551 16.6663C36.3099 19.3016 48.9716 19.9493 61.5716 16.6974C65.7164 15.6276 69.6205 13.637 73.6618 12.1409C74.1853 11.947 74.8721 12.1943 75.4833 12.2372C75.6622 12.7831 75.8412 13.3289 76.0202 13.8748C71.7332 15.4787 67.4964 18.2817 63.1498 18.4639C49.6219 19.0308 36.0519 18.6397 22.4991 18.5271C20.3651 18.5093 18.2365 17.9966 16.1029 17.7322C8.72229 16.8173 3.43543 13.5154 1.91351 5.64966C1.64191 4.24573 0.697083 2.97192 0 1.27667Z" fill="#1E2C3F"/>
</svg>
