<svg width="101" height="59" viewBox="0 0 101 59" fill="none" xmlns="http://www.w3.org/2000/svg">
<path d="M23.4996 39.6878C7.30798 37.8947 1.78046 32.6497 0 16.0833C8.90149 15.6286 8.73779 15.648 7.77301 7.51588C7.55261 5.65773 8.88825 3.61506 9.50763 1.6573C10.1733 1.6363 10.923 1.81044 11.4919 1.56508C20.3397 -2.252 26.3448 1.31996 32.612 7.88221C43.4987 19.2816 55.3846 29.7299 66.9245 40.4989C68.7003 42.1561 70.8645 43.3973 73.4086 45.235C69.0012 47.1567 65.0035 48.8998 60.1311 51.0243C61.699 51.6474 62.504 52.2824 63.174 52.1624C64.2859 51.9633 65.3492 51.3484 66.3665 50.7878C73.3237 46.9541 80.1025 47.0788 87.1508 50.8981C91.2043 53.0946 95.7482 54.3863 100.072 56.6528C98.8565 57.6947 97.6423 58.5748 96.4237 58.5809C83.251 58.6479 70.0712 58.8119 56.9073 58.4462C50.2424 58.2611 44.8631 54.8671 40.1862 49.9974C36.7847 46.4559 32.7455 43.4702 28.7224 40.6148C27.4188 39.6896 25.2646 39.9628 23.4996 39.6878ZM55.5742 38.2192C49.5541 32.5388 43.5605 26.8298 37.5019 21.1907C34.8425 18.7156 32.2505 16.0744 29.2326 14.1184C27.7668 13.1683 25.3914 13.622 23.4277 13.4403C23.7532 14.9863 23.5909 16.9368 24.4831 18.0129C30.3835 25.1281 36.325 32.2302 42.6576 38.9556C45.0867 41.5356 48.3875 43.5534 51.6616 44.9727C53.3644 45.7109 55.8735 44.5891 58.0184 44.3074C57.3777 42.4522 56.7371 40.5968 55.5742 38.2192Z" fill="#1F2136"/>
</svg>
