<svg width="10" height="20" viewBox="0 0 10 20" fill="none" xmlns="http://www.w3.org/2000/svg">
<path d="M1.41002 0C4.03587 5.55109 6.66173 11.1021 9.18449 17.3039C8.45598 18.5316 7.83055 19.1087 6.95451 19.6783C6.53685 19.675 6.3698 19.6791 6.11357 19.5373C6.0244 19.3912 5.9995 19.0499 6.00127 18.7696C5.76231 18.2211 5.52153 17.9529 5.18645 17.5052C5.09215 17.3256 5.04063 16.9232 5.08464 16.5942C4.80296 15.7399 4.47728 15.2145 4.06645 14.5485C3.98131 14.408 3.97435 14.0793 3.98222 13.7962C3.7509 13.2396 3.51176 12.966 3.18089 12.5167C3.08922 12.3409 3.0421 11.9474 3.03691 11.6892C2.81108 11.1804 2.59038 10.9299 2.26115 10.4324C2.08336 9.83472 2.01402 9.4837 1.95305 8.83313C1.69914 8.25317 1.437 7.9729 1.08427 7.55316C0.99382 7.41376 0.97203 7.08209 0.972824 6.79279C0.71965 6.23193 0.465683 5.96045 0.113815 5.53882C0.0159151 5.38873 -0.0439606 5.03528 0.0397794 4.69977C0.14946 4.13623 0.175338 3.90808 0.443527 3.51105C0.848678 2.78851 1.01164 2.23505 1.28966 1.26898C1.40654 0.570984 1.40831 0.285462 1.41002 0Z" fill="#040407"/>
</svg>
