<svg width="79" height="45" viewBox="0 0 79 45" fill="none" xmlns="http://www.w3.org/2000/svg">
<path d="M67.1011 38.0093C65.7757 33.2892 64.1176 28.9691 58.5284 27.6323C52.9328 26.2938 47.4212 24.6041 41.3116 22.762C37.9699 18.5013 34.4995 15.6781 29.3486 16.0341C24.7555 16.3516 20.1817 16.9641 15.5868 17.2225C14.6948 17.2726 13.7448 16.2912 13.1223 15.557C19.8275 14.1844 26.2319 13.0404 32.6362 11.8964C30.628 10.2844 28.3156 9.32272 25.946 9.15118C16.7621 8.48639 8.21853 10.8554 0.113423 15.1229C0.0583695 15.0578 -0.0539654 14.9293 0.0303546 14.5869C4.03518 12.4513 7.96132 10.6703 11.8738 8.85959C13.933 7.90662 15.9682 6.90176 18.1953 5.69757C18.9228 5.3219 19.4692 5.16901 20.0158 5.03888C20.016 5.06165 20.0342 5.10346 20.0926 5.43561C21.4473 5.84641 22.7435 5.92505 24.4373 6.00314C25.8947 6.01172 26.9545 6.02087 28.091 6.39923C29.4762 7.08145 30.7846 7.39444 32.093 7.7074C32.2458 6.49954 32.4031 5.29221 32.5504 4.08365C32.7162 2.72299 32.8731 1.36127 33.0338 0C34.9809 7.46722 38.1131 14.3065 44.9845 18.4184C48.3183 20.4134 52.1281 22.0021 55.9247 22.7548C64.3126 24.4178 68.552 29.8398 71.0106 37.4014C71.6105 39.2465 72.5936 40.9669 73.9666 43.9918C75.7842 40.7809 77.0658 38.5169 78.6341 36.0457C78.2601 39.4951 78.714 43.7817 73.0535 44.8668C70.6102 42.4907 68.8556 40.25 67.1011 38.0093Z" fill="#150506"/>
</svg>
