<svg width="104" height="163" viewBox="0 0 104 163" fill="none" xmlns="http://www.w3.org/2000/svg">
<path d="M4.35492 84.5698C3.15784 83.8747 2.1438 83.2642 1.46106 82.3937C0.647095 81.3561 0.117066 80.0957 0 78.9313C2.07404 79.0962 3.69513 79.6611 5.13666 79.3616C13.985 77.5236 22.7096 74.6364 31.6378 73.7677C40.1347 72.941 48.8322 74.1067 57.437 74.4948C60.8549 74.649 62.4055 73.2849 62.0388 69.8086C61.501 64.7124 61.0176 59.6105 60.5286 54.5093C59.5722 44.5317 58.628 34.5529 57.9894 24.6333C58.8582 24.9628 59.4163 25.2336 59.9847 25.8552C60.6191 27.6288 61.2432 29.0517 61.9474 30.8003C62.0407 31.5718 62.0537 32.0178 61.7776 32.6968C62.1844 38.1948 62.754 43.4807 63.6251 48.7164C64.118 51.6791 65.1059 54.5594 65.9503 57.8029C66.0347 58.575 66.0398 59.0212 65.7491 59.7239C65.3125 60.4501 65.0121 60.9348 65.0544 61.3874C66.0336 71.8712 67.0267 82.354 68.1187 92.8264C68.1827 93.4404 69.0999 93.9655 69.7057 94.9015C69.7728 96.0271 69.7542 96.7831 69.4914 97.8635C68.6098 115.682 67.9725 133.177 67.3311 150.783C70.7337 151.247 73.8863 148.217 74.9459 142.436C74.9806 142.465 74.8918 142.447 75.1575 142.323C75.5591 141.843 75.6953 141.488 75.857 140.957C75.8826 140.781 76.0864 140.49 76.2999 140.376C76.7759 140.041 76.9183 139.759 76.9592 139.448C76.9779 139.481 76.9069 139.457 77.17 139.327C77.5658 138.84 77.6984 138.483 77.8486 137.954C77.8662 137.782 78.0568 137.493 78.2748 137.375C78.7609 137.028 78.9012 136.737 78.9372 136.424C78.9607 136.463 78.8735 136.435 79.1445 136.306C79.5466 135.809 79.6777 135.443 79.8282 134.913C79.8474 134.751 80.0443 134.489 80.2722 134.36C80.633 133.916 80.7661 133.601 80.9466 133.07C80.994 132.854 81.2303 132.479 81.4164 132.361C81.8239 132.025 81.9438 131.761 81.9731 131.472C81.9841 131.492 81.9435 131.469 82.3109 131.419C83.0629 130.308 83.4474 129.247 83.8539 128.004C83.8757 127.822 84.069 127.51 84.4152 127.445C85.1426 126.363 85.5236 125.347 85.9426 124.056C86.2842 123.341 86.588 122.899 87.1608 122.309C87.5478 121.779 87.6658 121.396 87.7631 120.873C87.7426 120.732 87.9 120.495 88.1699 120.332C88.5883 119.577 88.7367 118.986 88.9191 118.443C88.953 118.49 88.8552 118.426 89.202 118.292C89.9601 116.803 90.3715 115.448 90.784 113.93C90.7853 113.767 90.9614 113.491 91.2264 113.319C91.6328 112.551 91.774 111.954 91.9387 111.129C91.9622 110.902 92.1436 110.482 92.3561 110.325C92.6582 109.833 92.7477 109.498 92.8408 108.984C92.8443 108.805 93.0125 108.487 93.2569 108.318C93.5953 107.771 93.6891 107.393 93.7775 106.751C93.8809 106.153 93.9897 105.819 94.3242 105.31C94.6287 104.769 94.7076 104.404 94.7801 103.774C94.8842 103.176 94.9948 102.843 95.4763 102.418C96.1592 100.582 96.4713 98.8389 96.7734 96.8159C96.8653 96.1794 96.9672 95.8223 97.3544 95.2361C99.5632 88.8795 102.01 82.7634 97.9686 76.3043C97.8948 76.101 97.8921 75.6685 97.9326 75.2712C97.3686 73.084 96.7641 71.2941 96.067 69.2167C95.9396 68.5295 95.9047 68.1298 95.9167 67.3062C95.0165 64.0889 94.0694 61.2957 93.0158 58.2462C92.8685 57.6246 92.8278 57.2592 92.8484 56.4736C91.9754 53.5374 91.041 51.0212 90.0102 48.25C89.8765 47.6353 89.8392 47.2756 89.8011 46.6344C89.5723 46.0716 89.3443 45.7904 89.0121 45.2564C88.8607 44.6443 88.8135 44.285 88.8311 43.5242C88.3147 41.9072 87.7336 40.6917 87.0462 39.2194C86.8895 38.5977 86.8391 38.2325 86.8499 37.4388C85.5882 33.5099 84.2653 30.0097 82.8643 26.3591C82.7861 26.2088 82.8025 25.8703 82.8043 25.6005C82.5913 25.0569 82.3765 24.7832 82.0612 24.2524C81.9081 23.6329 81.8557 23.2704 81.8015 22.6282C81.571 22.0709 81.3424 21.7933 81.0268 21.3011C80.9398 21.0864 80.8989 20.6248 80.9341 20.2245C79.9673 17.3828 78.9654 14.9412 77.8815 12.3595C77.7995 12.2193 77.8073 11.8947 77.8011 11.6135C77.5583 11.059 77.3218 10.7856 76.9948 10.3176C76.9042 10.123 76.8651 9.69537 76.8963 9.37488C76.6182 8.53583 76.3089 8.01715 75.9188 7.34302C75.838 7.18744 75.8348 6.83691 75.822 6.56451C75.5756 6.02936 75.342 5.7666 75.0187 5.30127C74.9291 5.09863 74.8892 4.65741 74.928 4.26636C74.9636 3.09235 74.9603 2.30945 75.3163 1.46777C76.1908 0.93933 76.7059 0.469666 77.2211 0C83.457 17.1517 89.7488 34.2835 95.8862 51.4705C97.2806 55.3753 97.7794 59.6145 99.3059 63.4551C107.186 83.28 101.87 101.76 93.5342 119.794C85.8354 136.45 75.0764 150.869 60.0221 162.532C66.4396 134.529 65.153 106.762 63.1833 78.6686C44.9594 79.1011 27.0588 76.0447 9.32867 82.0916C8.43463 81.5323 7.98138 81.2788 7.52814 81.0253C7.34711 81.7635 7.16608 82.5018 6.98511 83.2401C6.21832 83.6732 5.45148 84.1062 4.35492 84.5698Z" fill="#100A0A"/>
</svg>
