<svg width="85" height="53" viewBox="0 0 85 53" fill="none" xmlns="http://www.w3.org/2000/svg">
<path d="M21.5323 30.243C27.8175 25.6149 34.2809 21.4922 42.9337 23.2703C41.2953 24.1779 39.6568 25.0856 38.0192 25.9928C41.5072 30.3418 68.3867 23.6562 84.534 15.2655C81.3884 19.2327 78.2721 23.2235 75.0861 27.158C73.2089 29.4763 70.9396 31.5236 69.3375 34.0092C65.0418 40.6731 58.5169 42.3137 51.2271 43.6581C37.7383 46.1457 24.3905 49.4358 11.0532 52.6763C8.23538 53.3609 6.92276 52.5572 6.04428 50.2405C4.34268 45.7532 2.72861 41.2326 0.797852 36.4846C0.203705 31.8524 -0.109985 27.4612 0.0351874 22.6378C4.62506 22.9579 6.10504 21.1156 5.53702 17.1432C5.40164 16.1965 5.55453 15.2086 5.85556 13.9593C7.09879 8.89719 5.95972 3.41907 11.3894 0C11.2272 4.45128 10.3138 8.74231 9.31616 13.0137C8.80051 15.2215 7.32626 17.5477 7.70584 19.5514C8.50922 23.7923 10.4149 27.8107 11.5493 32.0066C12.6227 35.9768 15.2773 36.7547 18.7637 36.1903C22.5123 35.5835 21.2881 32.5454 21.5323 30.243ZM36.109 28.5518C35.835 28.2657 35.5636 27.9768 35.273 27.7088C35.2651 27.7015 35.0494 27.9196 34.9306 28.0326C35.2047 28.3183 35.4787 28.604 36.109 28.5518Z" fill="#0F1223"/>
</svg>
