<svg width="77" height="103" viewBox="0 0 77 103" fill="none" xmlns="http://www.w3.org/2000/svg">
<path d="M18.848 67.8698C18.2166 69.3398 17.5852 70.8098 16.6725 72.4904C14.4563 74.1074 12.6472 75.7574 10.5465 76.8433C8.85891 77.7156 6.38231 78.8552 5.01174 78.2269C-0.0986738 75.8847 -1.37034 69.9343 1.51717 65.0421C2.83037 62.8172 3.81481 60.3983 4.94842 58.0673C12.0646 50.3958 19.2939 42.8242 26.2182 34.9832C27.964 33.0062 29.8387 30.121 29.7379 27.734C29.4728 21.4531 32.8928 17.1929 36.2686 12.1722C41.1091 17.6397 37.5862 23.5165 37.9096 28.9361C38.2658 34.9037 38.4012 40.9545 37.8141 46.8881C37.2587 52.5016 35.642 58.01 34.4921 63.5646C34.8765 63.6989 35.2608 63.8331 35.6452 63.9673C38.062 56.6491 41.2422 49.4766 42.6748 41.9706C44.0287 34.8763 43.4176 27.4221 43.9567 20.1473C44.1031 18.1714 44.8368 15.9026 46.0738 14.4078C49.6547 10.0803 53.6286 6.078 57.4482 1.94812C57.9618 2.24512 58.4754 2.54205 58.9889 2.83905C58.6389 6.63019 58.2888 10.4213 57.9351 14.6255C57.9314 15.0386 57.9856 15.0244 57.766 15.1823C57.3648 15.8364 57.1832 16.3326 56.9914 17.2268C57.3854 18.793 57.4814 20.6636 58.2502 21.0008C60.7681 22.1054 63.7306 23.6652 66.1545 23.1867C70.2418 22.3799 72.4072 19.1691 73.0634 14.6616C73.7855 9.70197 75.4611 4.88123 76.7214 0C76.4798 7.06781 76.2383 14.1356 75.5966 21.6332C71.0368 25.97 66.9289 29.934 62.707 33.7724C52.421 43.1238 48.7211 56.215 43.0388 68.1833C42.0257 70.8264 41.0126 73.4694 39.9995 76.1124C40.1862 76.2177 40.3729 76.3229 40.5596 76.4282C43.4112 73.2665 46.2628 70.1049 49.6145 67.1375C50.7135 67.5746 51.3125 67.8177 51.7782 68.3781C50.0654 72.045 48.486 75.3946 46.9064 78.7443C44.2987 85.6669 41.4799 92.5209 39.1926 99.5479C38.3409 102.164 37.6751 103.058 34.8024 102.368C29.3957 101.069 23.8758 100.241 18.3207 99.2021C20.2349 90.0474 22.0186 81.5162 23.8581 72.1124C23.6368 65.8712 23.3598 60.5026 23.0828 55.1342C22.7914 55.137 22.5001 55.1398 22.2088 55.1426C21.0886 59.3849 19.9683 63.6274 18.848 67.8698Z" fill="#2E3F53"/>
</svg>
