<svg width="43" height="38" viewBox="0 0 43 38" fill="none" xmlns="http://www.w3.org/2000/svg">
<path d="M42.9691 37.1826C29.0388 37.1826 15.1084 37.1826 0.701901 37.1826C0.469601 34.9888 0.10217 33.0717 0.0915497 31.1526C0.0437587 22.5153 0.344601 13.8678 0.0112884 5.24365C-0.159793 0.816344 1.61071 -0.179414 5.52868 0.0248404C10.9982 0.310058 16.4872 0.22168 22.3755 0.880096C21.9971 2.17981 21.2449 3.45386 20.4186 3.50391C17.5116 3.67984 14.5792 3.43533 11.276 3.40036C10.0135 4.02176 8.35986 4.60086 8.36548 5.16348C8.44537 13.2173 8.74914 21.2689 8.95898 29.3102C8.919 29.2993 8.93121 29.2173 8.85009 29.6312C13.5277 34.1591 18.7355 32.6242 24.1787 31.2536C24.427 31.2566 24.8865 31.0684 25.3121 31.1212C31.2924 31.3227 36.8469 31.4714 42.5353 32.0689C42.7691 34.0726 42.8691 35.6276 42.9691 37.1826Z" fill="#A6ACB8"/>
</svg>
