<svg width="63" height="74" viewBox="0 0 63 74" fill="none" xmlns="http://www.w3.org/2000/svg">
<path d="M3.81827 3.20566C4.8035 4.52118 5.52185 6.32141 6.83368 7.04358C9.04483 8.26083 11.7531 9.72202 14.0369 9.42502C19.0164 8.77762 23.8605 7.08881 29.7327 5.57474C26.4432 16.2753 17.8199 23.4988 17.8427 33.5827C22.3546 26.3326 27.0078 18.6715 31.8459 11.1292C37.4708 2.36041 48.1177 -1.72366 58.4912 0.679688C59.6049 0.937714 60.7506 1.05798 62.3145 1.73239C63.4298 16.987 62.9718 31.4572 54.6754 44.5977C48.2279 54.8098 41.0194 64.2217 30.7255 70.8223C27.2908 73.0247 23.6823 74.6589 20.3411 70.2766C13.8233 61.7281 7.91986 53.0967 8.51587 41.4839C8.65012 38.8679 9.06818 34.2414 3.85297 34.2191C3.91284 27.8341 3.78827 21.4905 0 15.4063C0.410309 12.9947 0.282959 11.1013 0.832611 9.43076C1.54584 7.26294 2.79803 5.27246 3.81827 3.20566ZM32.279 38.1677C29.0857 42.3849 26.1042 46.7863 22.6416 50.7694C18.9204 55.0503 19.0338 58.0177 23.8691 61.8728C28.3881 65.4756 29.751 60.6708 31.4732 58.5427C40.54 47.3388 46.1968 34.5541 47.5044 20.1209C47.8508 16.2976 49.0668 12.0415 44.5429 8.08142C40.5706 17.8884 36.5983 27.6955 32.279 38.1677Z" fill="#2E3F53"/>
</svg>
