<svg width="30" height="9" viewBox="0 0 30 9" fill="none" xmlns="http://www.w3.org/2000/svg">
<path d="M14.6054 9.00134C9.79999 9.00134 4.99463 9.00134 0.189209 9.00134C0.12616 8.61176 0.06311 8.22217 0 7.83258C1.02423 7.36237 2.0484 6.89215 3.4967 6.05127C4.21777 5.55457 4.43646 5.34637 4.5769 5.05597C5.65155 5.02039 6.72626 4.98486 8.15546 4.95752C8.51001 4.96576 8.48108 5.15155 8.59937 5.28113C8.98419 5.28613 9.25073 5.16168 9.91187 4.97217C13.7855 3.95502 17.2646 3.00299 20.7438 2.05096C20.7438 2.05096 21.1514 2.02405 21.6388 1.95032C22.6141 1.57812 23.1021 1.27979 23.5899 0.981445C23.5899 0.981445 24.0801 0.916564 24.5634 0.810852C25.2967 0.488769 25.5468 0.272399 25.7968 0.0560303C25.7968 0.0560303 26.1639 0.057801 26.7031 0C27.9617 0.069764 28.681 0.197387 29.4003 0.325012C29.2643 1.73419 29.1283 3.14331 28.4996 4.86279C27.7749 5.40833 27.5427 5.64355 27.3106 5.87872C27.3106 5.87872 26.89 5.92322 26.4426 6.04504C25.7483 6.39575 25.5013 6.62463 25.2545 6.85358C24.8665 6.90967 24.4786 6.9657 23.4868 7.15588C21.6884 7.81042 20.4938 8.33081 19.2993 8.8512C18.8956 8.87482 18.4919 8.89844 17.4323 8.95142C16.0527 8.98761 15.329 8.99445 14.6054 9.00134Z" fill="#8F2D31"/>
</svg>
