<svg width="20" height="26" viewBox="0 0 20 26" fill="none" xmlns="http://www.w3.org/2000/svg">
<path d="M17.8544 24.7601C13.4309 25.0823 9.0458 25.1959 4.67128 25.0301C3.17226 24.9733 1.69979 24.2169 0.0204348 23.4345C-0.0538452 15.6094 0.0665468 8.13013 0.510944 0.380127C0.834949 0.109405 0.947406 0.218475 0.946277 0.677368C0.929401 6.95255 0.779193 12.7741 1.00808 18.5808C1.0555 19.7839 2.43523 21.8731 3.33049 21.9452C7.70537 22.2974 12.1241 22.1047 16.7002 22.1047C16.7002 14.4461 16.7002 7.32947 16.7529 0.159912C16.8056 0.106964 16.9098 0 16.9098 0C17.3409 0.032501 17.7721 0.0650333 18.5184 0.575134C19.1576 8.39847 19.4816 15.7442 19.8055 23.09C19.1693 23.5406 18.5331 23.9913 17.8544 24.7601Z" fill="#150506"/>
</svg>
