<svg width="20" height="64" viewBox="0 0 20 64" fill="none" xmlns="http://www.w3.org/2000/svg">
<path d="M6.90237 62.6842C5.80756 51.858 4.71799 41.0541 3.61673 30.2513C2.71622 21.4176 1.8204 12.5833 0.870392 3.75488C0.748382 2.62094 0.312805 1.52069 0 0C4.70422 1.57867 9.43097 3.56216 14.5647 5.92627C15.6154 6.76798 16.259 7.2291 16.9026 7.69019C17.3585 8.0029 17.8145 8.31561 18.6039 8.95673C19.2802 9.76917 19.623 10.2532 19.9096 11.0885C19.0853 13.0871 18.4476 14.8114 17.5273 16.3687C12.8462 24.2894 12.3188 32.9528 12.9918 41.7953C13.0675 42.7896 14.2416 43.7003 14.9064 44.6497C15.5167 48.6561 16.3602 52.6459 16.6454 56.6753C16.804 58.9151 16.0315 61.2208 15.2897 63.5861C13.841 63.6662 12.7812 63.657 11.0849 63.3828C9.27249 62.9948 8.09662 62.8718 6.92075 62.7488C6.92075 62.7488 6.90256 62.707 6.90237 62.6842Z" fill="#0F1223"/>
</svg>
