<svg width="59" height="13" viewBox="0 0 59 13" fill="none" xmlns="http://www.w3.org/2000/svg">
<path d="M29.1828 0C29.6078 0.074279 30.0327 0.148529 30.8271 0.409515C31.1967 0.596221 31.338 0.98294 31.1741 1.23569C33.1577 1.64053 35.3053 1.79266 37.6352 1.92056C37.8176 1.89633 38.1713 1.99762 38.3968 2.29001C40.6031 3.01837 42.584 3.45428 44.8423 3.87747C45.4795 3.94907 45.8391 4.03345 46.3911 4.36826C47.1921 4.73267 47.8008 4.84659 48.61 4.95926C48.8106 4.95798 49.1903 5.08707 49.3802 5.34305C50.1812 5.72321 50.7925 5.84741 51.6088 5.98843C51.8137 6.00522 52.1983 6.151 52.37 6.38455C53.089 6.77063 53.6364 6.92316 54.1847 7.07516C54.1847 7.07516 54.1853 7.0766 54.3574 7.32654C55.1008 7.72934 55.6722 7.8822 56.2232 8.0571C56.2027 8.07907 56.2041 8.01895 56.3676 8.28101C57.1105 8.69324 57.69 8.84341 58.2776 8.98126C58.2858 8.9689 58.3093 8.94308 58.3915 9.2735C57.6414 10.4619 56.8093 11.3199 55.6731 12.1425C54.6394 11.754 53.9096 11.4009 53.0184 10.8101C52.4971 10.4605 52.1371 10.3485 51.6315 10.2708C51.4858 10.3051 51.2085 10.1924 51.0076 9.90488C49.9083 9.46094 49.0099 9.30457 48.1465 9.12033C48.1816 9.09244 48.1497 9.17621 47.9596 8.88742C46.8794 8.45883 45.9892 8.31903 45.1454 8.14655C45.1918 8.11383 45.131 8.20984 44.9276 7.9017C43.7583 7.47946 42.7924 7.36536 41.6683 7.28143C41.5101 7.31158 41.2083 7.1994 41.0068 6.90988C39.9016 6.48087 38.9979 6.3414 38.1496 6.16507C38.2049 6.1282 38.1187 6.22961 37.8951 5.90686C36.3603 5.48367 35.0492 5.38324 33.4241 5.3363C32.4786 5.32373 31.8471 5.25766 30.9334 4.87357C25.165 4.7301 19.6788 4.90466 13.8125 5.1774C9.30048 6.51733 5.16858 7.75912 1.03668 9.00089C0.741699 8.88379 0.498475 8.69867 0.20517 7.86227C0.0689397 6.20502 0.034454 5.13101 0 4.05704C0 4.05704 0.176087 3.6521 0.557831 3.32013C3.27164 2.3089 5.60367 1.62961 8.36057 0.993073C10.5843 0.715484 12.3832 0.395141 14.5559 0.0302734C15.6814 0.00885044 16.433 0.0319517 17.4569 0.341492C20.531 0.500275 23.3328 0.372589 26.5144 0.198303C27.6571 0.101135 28.42 0.050567 29.1828 0Z" fill="#A12E32"/>
</svg>
