<svg width="35" height="100" viewBox="0 0 35 100" fill="none" xmlns="http://www.w3.org/2000/svg">
<path d="M9.26709 3.10601C4.92926 4.55395 3.8606 6.94891 4.91461 11.5613C10.2803 35.0405 17.8943 57.7885 26.2711 80.3234C27.681 84.1162 28.3192 88.1389 33.6604 88.7934C34.3674 91.8394 34.7047 94.8988 34.6593 98.388C31.2667 99.8111 28.902 99.6877 27.8458 95.9405C27.5923 95.041 25.9685 94.5279 24.9749 93.8372C21.7043 81.1519 18.5465 68.4359 15.0969 55.7994C14.0117 51.824 12.1437 48.0622 10.3414 44.0038C10.0487 43.805 10.0703 43.8098 10.0968 43.4845C10.1027 42.7111 10.082 42.263 10.0298 41.438C8.01392 36.3089 6.02954 31.5567 4.04517 26.8044C4.04517 26.8044 4.06982 26.8043 4.08661 26.3998C2.7356 20.9357 1.3678 15.876 0 10.8163C0.345703 8.71991 0.691468 6.6235 1.01245 4.09079C6.26001 -1.14673 6.96088 -1.22275 9.26709 3.10601Z" fill="#263547"/>
</svg>
