<svg width="31" height="113" viewBox="0 0 31 113" fill="none" xmlns="http://www.w3.org/2000/svg">
<path d="M11.6264 0C17.7245 1.26868 23.8225 2.53735 30.2737 4.39795C30.3679 6.94202 30.3067 8.94495 29.8203 10.8387C22.8463 37.9934 15.2545 64.998 11.1088 92.8117C10.5699 96.4271 11.3086 97.4105 14.5778 97.5035C12.8762 102.592 11.2111 107.31 9.5459 112.029C6.49299 111.442 3.44007 110.854 0.00351458 109.749C-0.0360364 103.283 0.262883 97.3307 0.665227 91.3854C1.04474 85.7773 1.78925 80.1823 1.91663 74.5713C2.13437 64.9795 2.04432 55.3793 1.99286 45.7831C1.93824 35.5928 -0.21432 25.2742 4.86103 15.4949C7.45133 10.5038 9.3921 5.17578 11.6264 0ZM10.8334 56.01C13.6097 43.1191 16.3859 30.2281 19.1621 17.3372C18.3962 17.1899 17.6302 17.0425 16.8642 16.8953C12.1282 42.5657 7.39228 68.2361 2.65632 93.9065C3.40656 94.0405 4.1568 94.1746 4.90708 94.3087C6.83677 81.8271 8.76645 69.3456 10.8334 56.01Z" fill="#1F2237"/>
</svg>
