<svg width="87" height="265" viewBox="0 0 87 265" fill="none" xmlns="http://www.w3.org/2000/svg">
<path d="M36.3946 0.215197C36.9779 -0.0889406 37.3733 -0.0877503 38.0638 0.328601C38.274 1.90099 38.4037 3.12422 38.0708 4.20507C34.7329 15.0437 31.2456 25.8365 27.9456 36.6865C24.0494 49.4966 19.8741 62.2437 16.6002 75.2151C13.3081 88.2577 11.362 101.638 8.12161 114.696C4.25327 130.285 3.20342 146.067 3.42514 161.994C3.48906 166.586 3.60806 171.443 5.09721 175.69C7.66052 182.999 11.0384 190.071 14.6264 196.955C16.6721 200.88 19.8105 204.235 22.42 207.88C22.383 207.913 22.4243 207.823 22.4012 208.202C23.7348 213.06 25.6426 217.102 30.4429 218.867C30.4026 218.91 30.4453 218.8 30.4165 219.174C32.6258 224.316 35.1301 228.845 40.4323 230.854C40.3835 230.883 40.4426 230.786 40.4398 231.142C43.3958 235.447 45.86 239.977 51.3936 240.874C51.3537 240.896 51.4116 240.826 51.4238 241.191C53.1121 242.645 54.7882 243.734 56.4109 244.846C56.3573 244.869 56.4396 244.787 56.4424 245.15C58.7816 246.953 61.1181 248.393 63.4053 249.854C63.3561 249.875 63.4293 249.797 63.4456 250.15C67.9806 253.229 72.4612 256.023 77.0759 258.575C77.5441 258.834 78.8199 257.632 79.5937 256.758C79.3909 255.916 79.3153 255.426 79.521 254.736C80.6007 253.327 81.3991 252.118 82.3479 251.197C82.8292 252.283 83.1602 253.08 83.4911 253.878C84.5262 257.258 85.5612 260.638 86.8164 264.738C64.0015 258.378 46.9345 245.061 31.9205 227.596C29.8472 225.229 28.1828 223.337 26.5184 221.446C24.3651 218.359 22.2117 215.273 19.696 211.683C16.7173 206.991 14.1009 202.801 11.4846 198.612C8.36014 190.609 4.50806 182.798 2.33261 174.545C0.4626 167.451 0.506943 159.852 0.00540161 151.749C0.275513 150.188 0.245056 149.356 0.11026 148.148C0.00393601 146.483 0.001953 145.192 0 143.902C0.226989 141.512 0.453964 139.122 0.721405 136.108C0.704757 135.287 0.647675 135.09 0.590607 134.892C5.4991 113.082 10.1382 91.2068 15.417 69.4869C18.587 56.4438 22.755 43.6434 26.7272 30.0945C27.4331 27.6072 27.8864 25.7593 28.3396 23.9114C29.6248 20.1614 30.9101 16.4114 32.3768 11.9734C32.9271 9.86681 33.2961 8.44805 33.665 7.02928C34.5123 4.8597 35.3595 2.69011 36.3946 0.215197Z" fill="#070608"/>
</svg>
