<svg width="58" height="28" viewBox="0 0 58 28" fill="none" xmlns="http://www.w3.org/2000/svg">
<path d="M43.9539 5.789C42.9034 5.84708 41.8528 5.90518 40.0372 6.034C28.1891 8.35666 17.9936 12.5141 9.07843 20.0872C8.56464 20.4362 8.3382 20.7346 8.08765 20.9743C8.06354 20.9156 8.15192 21.0067 7.90063 21.0841C7.47125 21.4514 7.29309 21.7414 7.07245 21.9867C7.02997 21.942 7.14233 21.9928 6.87964 22.093C6.45032 22.5178 6.28375 22.8424 5.99963 23.4053C5.34692 24.0955 4.81171 24.5473 4.00366 25.0639C3.52344 25.425 3.3161 25.7212 3.08539 25.9579C3.06201 25.8983 3.13922 26.0005 2.89069 26.08C2.47644 26.4526 2.31073 26.7457 2.17505 27.0509C2.20508 27.063 2.20215 27.1277 1.84302 27.0082C0.981873 25.8784 0.479736 24.8681 0 23.8747C0.022461 23.8914 -0.0295407 23.8747 0.205322 23.7738C0.614746 23.3887 0.789368 23.1046 0.970093 22.8615C0.976319 22.9027 0.914979 22.8464 1.16412 22.7536C1.59088 22.3644 1.76849 22.068 1.94617 21.7716C1.94617 21.7716 1.97253 21.8557 2.18433 21.76C2.5813 21.3713 2.76654 21.0782 2.98254 20.8149C3.01337 20.8448 2.92761 20.8416 3.17065 20.7527C3.59521 20.3801 3.77673 20.0964 3.98279 19.8525C4.00732 19.8924 3.92792 19.8428 4.17102 19.7538C4.59521 19.3808 4.77643 19.0968 4.98328 18.8524C5.00885 18.8921 4.92889 18.8419 5.17151 18.7555C5.60242 18.3911 5.79071 18.1132 5.99646 17.8667C6.01398 17.8982 5.95111 17.863 6.18958 17.7711C6.61963 17.4056 6.81128 17.1319 7.12244 16.6384C7.5271 16.2573 7.81226 16.0961 8.40045 15.9009C9.12085 15.4763 9.53833 15.0857 10.0778 14.4961C10.4337 14.0727 10.7119 13.9434 11.3439 13.8854C12.0723 13.4662 12.4913 13.0709 12.9103 12.6755C12.9103 12.6755 12.9336 12.7872 13.1284 12.7399C13.5513 12.4568 13.7794 12.221 14.3525 11.9052C21.4825 8.53061 28.2673 5.23605 35.0522 1.94153C35.4899 1.91705 35.9276 1.89258 37.0667 1.80743C40.2057 1.16455 42.6434 0.582306 45.0811 0C47.4188 0.006958 49.7565 0.0139159 52.7643 0.22818C54.275 0.621979 55.1155 0.808472 55.9561 0.994965C55.9561 0.994965 56.0182 0.946015 56.0737 1.18542C56.4195 1.59701 56.7097 1.7692 57 1.94141C57 1.94141 57.0105 1.8974 57.0216 2.19867C57.3026 2.98733 57.5726 3.4747 57.8425 3.96207C57.7496 4.26416 57.582 4.51679 56.7065 4.79016C52.0334 5.16989 47.9937 5.47946 43.9539 5.789Z" fill="#A12E32"/>
</svg>
