<svg width="78" height="46" viewBox="0 0 78 46" fill="none" xmlns="http://www.w3.org/2000/svg">
<path d="M5.59908 26.2978C8.81258 27.9083 11.5075 30.4551 14.5867 31.0665C22.3469 32.6071 30.2801 33.2753 38.9619 34.2913C40.5264 34.2894 41.2732 34.2892 42.0199 34.2891C50.7229 37.1206 62.4503 29.1418 63.088 20.2551C63.5311 14.079 64.5839 7.94672 65.6539 1.55072C66.7611 1.39771 67.9235 1.17267 68.3423 1.62946C72.1451 5.77728 74.8418 4.16577 77.4765 0C78.1041 4.25336 76.958 7.64697 73.2033 9.71497C69.9027 11.5328 68.6374 13.9683 68.9342 17.7708C69.2819 22.2261 69.3932 26.7762 68.8554 31.1937C68.5674 33.5587 67.2713 36.9205 65.4513 37.795C54.8201 42.9028 43.8672 46.493 31.5912 44.7963C22.1852 43.4963 12.9966 41.9808 4.44903 37.6514C4.0057 37.4268 3.21264 37.8925 2.02877 38.0182C1.00338 37.4557 0.531636 36.9116 0.0598649 36.3676C-0.356212 31.915 1.38668 28.5825 5.59908 26.2978Z" fill="#0F1021"/>
</svg>
