<svg width="43" height="31" viewBox="0 0 43 31" fill="none" xmlns="http://www.w3.org/2000/svg">
<path d="M42.8133 28.4105C41.9699 29.1477 41.0902 29.8862 39.5547 30.5961C38.446 30.2623 37.9933 29.957 37.4339 29.4294C37.1172 28.9284 36.8389 28.7692 36.4863 28.7029C36.4804 28.6763 36.4376 28.7099 36.2962 28.4409C35.586 28.0178 35.0171 27.8637 34.1047 27.641C26.6844 23.2505 19.6075 18.9286 12.5307 14.6067C12.5307 14.6067 12.5447 14.6207 12.4261 14.3308C11.7133 13.8971 11.1189 13.7533 10.5245 13.6094C10.5245 13.6094 10.5438 13.6206 10.476 13.2951C8.5658 11.7924 6.72342 10.6153 4.88104 9.4381C4.88104 9.4381 4.79913 9.37561 4.62863 9.15289C4.21057 8.68759 3.9137 8.57561 3.5675 8.59422C2.60782 7.80124 1.64813 7.00826 0 5.64643C4.86941 3.53157 8.95279 1.43733 13.267 0.0732744C14.6209 -0.354796 16.5956 1.18073 18.5164 2.39421C19.0298 3.1772 19.313 3.38347 19.5963 3.58972C19.5963 3.58972 19.5441 3.61881 19.6426 3.83664C20.02 4.23738 20.2989 4.42029 20.5778 4.6032C20.5778 4.6032 20.5427 4.62177 20.639 4.84334C21.0105 5.25061 21.2856 5.4363 21.5606 5.622C21.871 5.75105 22.1187 5.9559 22.4308 6.76113C22.9642 7.66615 23.3706 8.04657 23.777 8.42697C23.777 8.42697 23.772 8.58048 23.8 8.77002C24.124 9.12639 24.4202 9.2932 24.7163 9.46002C24.7163 9.46002 24.663 9.62714 24.7491 9.81378C25.1532 10.1689 25.4712 10.3373 25.7892 10.5058C26.0792 10.6061 26.2993 10.7899 26.5908 11.522C27.0087 12.1945 27.2855 12.4025 27.5623 12.6106C27.5623 12.6106 27.5435 12.62 27.5588 12.9227C27.9795 13.6178 28.385 14.0101 28.7905 14.4024C28.7905 14.4024 28.7311 14.4125 28.7864 14.6816C29.1433 15.0987 29.4448 15.2466 29.7463 15.3946C29.7463 15.3946 29.5558 15.55 29.6971 15.7501C30.1416 16.0961 30.4448 16.2419 30.748 16.3878C30.748 16.3878 30.5793 16.5596 30.7118 16.7522C31.1477 17.089 31.4511 17.2333 31.7545 17.3776C31.7545 17.3776 31.5971 17.5324 31.7213 17.7377C32.1465 18.0925 32.4477 18.2419 32.7489 18.3914C32.7489 18.3914 32.563 18.5428 32.7 18.7466C33.1383 19.1017 33.4396 19.253 33.7408 19.4042C33.7408 19.4042 33.5453 19.5584 33.6887 19.7568C34.1327 20.1073 34.4333 20.2594 34.7339 20.4115C34.7339 20.4115 34.5427 20.5607 34.6869 20.7608C35.1328 21.1124 35.4346 21.2639 35.7364 21.4154C35.7364 21.4154 35.5325 21.576 35.6803 21.7672C36.1305 22.1093 36.4328 22.2601 36.7351 22.411C36.7351 22.411 36.5437 22.5712 36.6866 22.7658C37.1311 23.1137 37.4329 23.267 37.7346 23.4203C37.7346 23.4203 37.5319 23.5445 37.6771 23.7555C38.1241 24.1226 38.4261 24.2789 38.728 24.4351C38.728 24.4351 38.5624 24.5893 38.6879 24.7807C39.1124 25.1387 39.4114 25.3053 39.7104 25.472C39.7104 25.472 39.5818 25.6259 39.6919 25.8043C40.1022 26.1478 40.4025 26.3129 40.7027 26.4779C40.7027 26.4779 40.5652 26.6186 40.6822 26.8025C41.0995 27.1506 41.3997 27.3148 41.7 27.4789C41.7 27.4789 41.554 27.6104 41.677 27.7967C42.1029 28.1337 42.4057 28.2844 42.7086 28.4352C42.7086 28.4352 42.7771 28.4118 42.8133 28.4105Z" fill="#CC2A2D"/>
</svg>
