<svg width="52" height="155" viewBox="0 0 52 155" fill="none" xmlns="http://www.w3.org/2000/svg">
<path d="M7.98785 3.14682C8.45898 4.35517 8.93011 5.56351 9.6886 7.2945C10.6058 8.64545 11.2357 9.4737 11.8655 10.302C13.2078 13.016 14.55 15.7301 15.9297 19.2368C15.9692 21.7429 15.9714 23.4563 15.9417 25.4983C15.9031 26.2669 15.8963 26.7069 15.6407 27.3962C15.2848 28.8084 15.1776 29.9714 15.0419 31.4704C15.0242 32.2557 15.035 32.7049 14.9977 33.5909C14.9687 36.0753 14.9878 38.123 14.9846 40.5856C15.0176 42.3821 15.0729 43.7637 15.0779 45.4792C15.3389 46.5941 15.6501 47.3752 15.9618 48.4893C16.0103 49.2634 16.0583 49.7046 16.0781 50.4406C16.3489 51.2112 16.6479 51.687 16.9461 52.5343C17.3188 54.3312 17.6923 55.7563 18.1291 57.4121C18.3587 57.9307 18.5943 58.1411 18.9071 58.6216C19.5801 60.3713 20.2452 61.7737 20.9528 63.5153C22.9656 65.9733 24.936 68.092 27.0649 70.5079C32.8072 76.2601 38.3909 81.7151 44.0643 87.406C44.419 87.8407 44.6839 88.0396 45.1728 88.5217C46.6024 93.2612 47.808 97.7176 49.077 102.418C49.3754 102.899 49.6104 103.136 49.8369 103.673C49.8646 104.37 49.9005 104.768 49.932 105.502C50.2603 106.617 50.5931 107.396 50.9272 108.505C50.9844 109.269 51.0402 109.704 51.0569 110.527C50.7139 112.67 50.41 114.425 50.106 116.181C49.8193 118.248 49.5327 120.315 48.8459 122.847C48.2253 123.577 48.0049 123.842 47.7844 124.108C47.7844 124.108 47.3564 124.122 46.9121 124.248C46.174 124.556 45.9631 124.808 45.8353 125.13C44.7203 125.715 43.6052 126.3 41.9823 127.134C41.19 127.57 40.9879 127.824 40.8679 128.143C39.2155 129.905 37.5631 131.666 35.6738 134.015C35.6064 135.789 35.7759 136.977 35.9453 138.164C35.9595 138.617 35.9736 139.069 35.9948 140.313C36.0034 144.792 36.0048 148.478 36.0063 152.165C35.7861 152.434 35.5658 152.702 34.9155 153.206C34.2169 153.616 34.0225 153.853 33.9025 154.151C33.3259 153.654 32.7495 153.157 31.953 152.169C31.4919 151.447 31.2508 151.217 31.0096 150.988C30.9926 150.579 30.9755 150.17 30.848 149.214C30.5036 148.424 30.2696 148.183 30.0356 147.941C29.988 147.249 29.9405 146.557 29.8548 145.227C29.5103 144.119 29.204 143.648 28.8977 143.178C27.9966 140.388 27.0955 137.597 25.9587 134.243C25.5527 133.379 25.3103 133.157 24.9961 133.013C24.7357 131.931 24.4753 130.848 23.9802 129.221C23.5018 128.444 23.2581 128.211 23.0144 127.978C22.9957 127.571 22.9771 127.165 22.843 126.216C22.4878 125.446 22.248 125.218 22.0082 124.99C21.5007 123.199 20.993 121.407 20.1904 119.012C17.6031 113.275 15.3107 108.143 13.0182 103.011C12.7288 101.928 12.4393 100.845 12.0221 99.0159C11.957 93.879 12.0198 89.4877 12.0618 84.7172C10.8282 81.5322 9.88409 78.5658 8.32788 75.9656C6.72497 73.2873 5.92584 70.8763 8.18579 67.8763C7.96759 61.5308 7.78455 55.4062 6.82129 49.407C6.40808 46.8337 4.37292 44.5209 3.07471 42.0897C2.9809 40.396 2.88709 38.7023 2.80872 36.1674C2.54016 32.9348 2.25604 30.5435 1.97192 28.1521C1.93988 25.7884 1.9079 23.4246 1.88208 20.2578C1.58496 18.3521 1.28168 17.2495 0.978394 16.1468C0.964173 15.7079 0.949951 15.2691 0.908081 14.2069C0.586914 13.1021 0.293457 12.6207 0 12.1393C1.43286 8.08417 2.85217 4.02384 4.39215 0.00985874C4.42419 -0.0736683 5.85333 0.378786 6.8172 1.16843C7.33179 2.21939 7.65979 2.68311 7.98785 3.14682Z" fill="#61131B"/>
</svg>
