<svg width="87" height="99" viewBox="0 0 87 99" fill="none" xmlns="http://www.w3.org/2000/svg">
<path d="M79.0316 85.0262C81.4199 89.05 83.8082 93.0738 86.9723 98.4045C81.5662 97.9415 77.7017 97.6105 72.9904 97.2161C70.0801 97.1559 68.0166 97.1591 65.633 97.1235C64.8832 97.0904 64.4535 97.096 63.6963 97.0677C62.9311 97.0013 62.4933 96.9688 61.8838 96.6402C58.1396 96.5974 54.5673 96.8508 50.6601 97.0798C49.8776 97.0639 49.4299 97.0722 48.9823 97.0805C43.0986 98.1356 40.7587 95.6125 40.8976 89.7315C41.0865 81.7406 40.8285 73.7392 41.3195 65.3714C48.2854 64.1301 44.0706 60.5855 42.6943 59.5145C36.8666 54.9796 30.6384 50.9576 24.5365 46.7774C16.3674 41.1811 8.17969 35.6119 0 30.031C3.26669 19.4686 6.53339 8.9061 9.28781 0C12.6027 4.98288 16.3573 11.5446 20.999 17.4034C29.3487 27.9427 41.7432 32.4992 53.4258 38.0058C54.4712 38.4985 55.5307 38.9613 56.6548 40.0476C55.2086 43.3683 53.6575 45.9495 57.5215 48.2849C58.2758 48.7408 58.7314 51.4855 58.196 51.9998C53.4804 56.5305 54.7861 62.6071 54.1856 67.9733C53.3937 75.0492 56.3059 80.483 63.0421 84.3062C68.6256 87.4752 73.5769 87.531 79.0316 85.0262ZM55.3486 89.6069C53.5825 83.0658 51.8163 76.5247 50.0502 69.9837C48.6966 77.1623 51.3463 83.4453 55.3486 89.6069Z" fill="#1F2E41"/>
</svg>
