<svg width="71" height="29" viewBox="0 0 71 29" fill="none" xmlns="http://www.w3.org/2000/svg">
<path d="M40.4814 28.248C36.4431 25.6697 32.6896 24.7328 28.0139 25.9337C21.2951 27.6594 14.5028 26.6998 8.4137 23.3126C2.19523 19.8534 -0.304101 14.11 0.0292422 6.64938C1.52076 6.34586 3.01365 6.47434 4.73188 7.2562C4.64643 9.34146 4.09492 10.769 4.06888 12.206C3.98411 16.8863 9.21561 21.1606 15.76 22.2332C20.1144 22.9469 20.4616 19.8441 21.2306 17.0056C23.8484 18.7933 26.4662 20.5809 30.2174 23.1425C27.2824 16.7063 25.0211 11.7474 22.393 5.98416C28.1853 4.76913 32.9573 3.72607 37.7474 2.77429C43.3682 1.65747 49.0047 0.620087 54.5728 0C51.6611 1.71072 48.8289 3.01233 45.9559 4.21677C43.0601 5.43076 39.8422 6.14288 37.3303 7.88809C36.1667 8.6966 35.5545 11.7316 36.1144 13.2235C36.8071 15.0693 39.4248 17.9316 40.4381 17.6429C48.5056 15.3442 56.8635 13.3968 63.1243 7.12427C64.5404 8.0993 65.9566 9.07434 67.6868 10.1701C68.0008 10.2907 67.9705 10.2512 68.0637 10.4931C68.4408 10.9189 68.7247 11.1029 69.0188 11.2574C69.029 11.2281 68.9709 11.2501 69.0637 11.4926C69.44 11.9192 69.7235 12.1033 69.9982 12.2634C69.9894 12.2394 69.9457 12.2692 69.9457 12.2692C71.2535 14.8615 69.9477 16.0863 67.6452 17.032C58.694 20.7085 49.7763 24.4668 40.4814 28.248Z" fill="#2D3C4F"/>
</svg>
