<svg width="48" height="20" viewBox="0 0 48 20" fill="none" xmlns="http://www.w3.org/2000/svg">
<path d="M34.2302 17.4343C33.5855 17.3597 32.9409 17.2851 31.8122 16.8992C30.9658 16.5311 30.6035 16.4744 30.2411 16.4178C21.1517 13.363 11.9786 10.5234 3.05249 7.04932C1.50037 6.44513 0.990997 3.16193 0 1.11615C0.480316 0.74408 0.960662 0.372009 1.44098 0C11.6542 3.5622 21.8675 7.12439 32.5656 11.1728C33.6914 11.735 34.3324 11.811 34.9733 11.887C35.3493 11.9336 35.7253 11.9802 36.4471 12.2784C37.0845 12.4736 37.376 12.4172 37.6676 12.3609C38.4731 12.5413 39.2786 12.7216 40.535 13.3676C43.2368 14.9961 45.4875 16.1589 47.7384 17.3216C47.5124 17.7994 47.2864 18.2773 47.0604 18.7551C45.48 18.963 43.8997 19.1708 42.3194 19.3787C41.9446 19.3533 41.5699 19.328 40.7065 18.9388C39.2842 18.4819 38.3507 18.3889 37.4171 18.2958C37.0244 18.2587 36.6318 18.2215 35.7792 17.8849C34.9563 17.5352 34.5932 17.4847 34.2302 17.4343Z" fill="#C22F32"/>
</svg>
