<svg width="23" height="27" viewBox="0 0 23 27" fill="none" xmlns="http://www.w3.org/2000/svg">
<path d="M12.5214 0.0291748C14.6149 3.86047 16.2873 7.69135 17.9675 11.5189C19.4498 14.8956 20.9407 18.2685 22.1782 21.856C18.624 18.2861 17.2681 18.3086 14.4423 22.2868C13.3676 23.7996 12.4138 25.3983 11.4049 26.9578C10.8412 26.7335 10.2776 26.5092 9.71387 26.2848C10.7668 22.5282 11.8199 18.7715 12.9979 14.5687C11.5387 14.5687 10.3757 14.5687 8.58667 14.5687C9.2178 12.5174 9.68204 11.0085 10.201 9.32159C6.86575 8.34711 3.45944 7.35187 0.0531311 6.35663C0.0354001 5.8028 0.0177 5.24896 0 4.69513C2.00998 4.46393 4.01993 4.23273 6.80457 4.01044C12.098 3.05884 7.89648 1.34723 7.92542 0C9.31814 0.009094 10.7109 0.0182488 12.5214 0.0291748Z" fill="#040407"/>
</svg>
