<svg width="32" height="62" viewBox="0 0 32 62" fill="none" xmlns="http://www.w3.org/2000/svg">
<path d="M31.0786 58.4695C29.5419 59.6874 27.9891 60.4464 25.8072 61.513C25.1245 59.266 24.5932 57.5173 24.4509 55.3008C25.2409 53.6814 26.1454 52.4399 25.9585 51.3933C24.9839 45.9352 23.9912 40.4542 22.5035 35.121C21.0125 29.7758 13.9188 26.5315 8.01599 28.0356C5.61212 25.0608 3.20825 22.0859 0.427612 18.7344C0.0264283 18.1478 0.002014 17.9377 0 17.5405C0.022461 17.3532 0.184571 17.0125 0.382935 16.8949C0.821961 16.5656 0.974975 16.3028 1.04156 16.0034C1.04297 16.0178 1.01221 16.0111 1.01221 16.0111C3.04346 14.6367 5.14948 13.3596 7.09137 11.8689C12.1767 7.96503 17.1903 3.96793 22.5956 0C24.6517 6.82175 26.2466 13.6776 28.0591 20.4754C31.3494 32.8153 31.218 45.4069 31.0786 58.4695Z" fill="#0F1223"/>
</svg>
