<svg width="57" height="143" viewBox="0 0 57 143" fill="none" xmlns="http://www.w3.org/2000/svg">
<path d="M54.0886 7.62619C51.0419 9.56098 47.9236 11.3958 44.9938 13.4938C44.1563 14.0934 43.1313 15.9037 43.4345 16.4004C47.3566 22.8236 42.1689 29.4583 43.6495 36.2223C42.57 33.7569 41.8886 30.9308 40.8331 26.5525C36.3483 38.8872 27.9381 45.9034 18.4176 51.9527C17.0017 52.8524 16.1359 54.7467 15.2343 56.3073C3.40137 76.7892 18.8004 99.7914 34.9106 105.579C32.026 114.841 29.1053 124.092 26.2786 133.372C25.4191 136.193 24.8187 139.094 23.6691 142.271C21.145 139.077 18.9479 135.627 16.9761 132.052C9.73145 118.92 1.97693 105.985 0.0339355 90.2218C0.0250855 86.6851 0.012512 83.6048 0 80.5244C1.8374 73.222 3.03156 65.6676 5.75586 58.7126C7.36469 54.6056 11.0599 51.0925 14.4011 47.9294C24.3208 38.5385 31.4391 27.2276 38.2532 15.5513C40.6837 11.3865 44.7934 8.19138 48.1961 4.6102C49.3116 3.43619 50.615 2.44064 51.9343 1.01914C52.0361 0.674837 52.1035 0.738862 52.1035 0.738862C53.4813 0.361939 54.8591 -0.0149822 56.621 0.000458782C56.6592 2.48923 56.3135 4.58563 55.7298 6.59421C55.0241 6.87964 54.5563 7.2529 54.0886 7.62619Z" fill="#1E2C3F"/>
</svg>
