<svg width="1024" height="1024" viewBox="0 0 1024 1024" fill="none" xmlns="http://www.w3.org/2000/svg">
<path d="M1024 361C1024 582.333 1024 803.167 1024 1024C682.667 1024 341.333 1024 0 1024C0 682.667 0 341.333 0 0C341.333 0 682.667 0 1024 0C1024 120.167 1024 240.333 1024 361ZM247.415 654.963C247.847 655.537 248.279 656.111 248.349 657.564C249.151 664.94 249.107 672.539 250.977 679.633C253.152 687.887 257.005 695.698 259.811 704.451C257.819 711.764 261.251 716.93 268.703 717.275C270.856 720.361 273.009 723.447 275.037 727.304C274.015 732.066 274.777 732.853 280.974 733.16C295.579 750.149 312.646 763.466 335.461 769.826C334.206 765.727 333.171 762.346 332.851 758.97C333.503 758.301 334.155 757.633 334.807 756.964C333.493 755.993 332.179 755.022 330.521 753.993C330.521 753.993 330.177 753.94 330.178 753.146C325.558 730.506 320.375 707.961 316.53 685.191C314.186 671.314 313.903 657.089 313.394 642.965C313.852 642.866 314.31 642.766 315.547 642.532C330.926 643.959 344.607 649.325 356.009 660.722C357.302 662.875 358.343 665.267 360.032 667.045C360.582 667.624 362.821 666.599 364.916 666.625C372.109 672.962 379.301 679.3 386.72 685.836C383.364 689.552 380.906 692.745 377.981 695.427C366.968 705.527 361.421 719.173 354.232 731.732C351.423 736.639 351.511 742.234 352.01 747.808C352.956 758.379 353.365 769.006 354.595 779.54C355.94 791.066 357.96 802.512 359.237 814.028C359.013 814.191 358.789 814.353 358.565 814.515C358.946 814.679 359.326 814.843 359.901 815.925C359.508 825.948 359.115 835.971 358.019 846.182C357.711 847.541 357.403 848.9 357.269 850.973C357.11 854.633 357.241 858.337 356.709 861.943C356.196 865.416 355.072 868.435 352.086 871.226C349.985 873.191 348.571 879.586 349.864 880.804C354.027 884.726 351.926 887.793 350.325 891.283C342.381 908.59 332.805 924.867 320.484 939.492C317.079 943.534 313.352 947.822 311.633 952.659C307.756 963.567 309.48 967.183 318.273 970.47C334.724 976.619 351.194 978.209 368.256 972.334C368.832 971.875 369.408 971.415 370.447 970.413C374.383 968.783 378.26 966.986 382.273 965.57C385.922 964.283 386.599 961.503 386.704 958.237C386.813 954.825 386.91 951.412 387.796 947.889C388.336 946.637 388.876 945.384 389.805 943.662C390.828 942.998 391.85 942.335 393.214 942.234C393.796 941.454 394.377 940.674 395.302 939.148C395.856 937.099 396.41 935.051 397.532 932.6C397.181 929.395 396.83 926.19 396.319 922.061C396.322 914.71 396.325 907.359 396.87 899.93C397.249 899.38 397.628 898.83 398.343 897.739C398.216 890.795 397.859 883.879 399.078 876.933C399.515 874.445 397.649 871.631 397.719 868.989C398.407 843.23 409.125 821.296 424.78 800.988C427.589 800.364 430.623 799.873 427.991 795.246C429.08 793.578 430.256 791.96 431.246 790.235C439.685 775.528 448.974 761.248 446.107 742.78C444.946 735.3 445.761 727.503 445.824 719.851C445.836 718.321 446.518 716.797 446.969 714.703C446.98 714.512 446.991 714.321 447.72 714.124C457.514 717.31 467.307 720.496 477.123 724.102C477.412 724.091 477.701 724.08 478.876 723.736C509.012 723.731 537.598 719.334 559.695 695.869C561.879 693.549 565.022 692.133 567.72 690.298C568.07 690.678 568.42 691.058 568.769 691.438C568.578 692.486 568.534 693.588 568.175 694.575C563.556 707.264 562.412 720.412 562.883 733.783C562.93 735.114 563.47 736.799 562.866 737.72C559.023 743.584 562.033 749.15 563.644 754.553C567.274 766.722 572.521 778.24 580.121 788.482C592.653 805.371 598.455 824.672 601.075 845.179C601.24 846.471 601.388 847.873 601.068 849.1C599.46 855.267 597.623 861.375 596.037 867.547C595.679 868.942 595.998 870.51 595.501 872.379C595.95 873.253 596.399 874.128 596.952 875.76C596.395 877.423 595.468 879.058 595.343 880.753C594.671 889.824 594.198 898.91 592.935 908.221C593.144 911.485 593.353 914.749 593.809 918.649C594.206 919.422 594.603 920.194 595.067 921.556C595.365 921.896 595.663 922.237 595.96 922.577C596.308 922.104 596.655 921.631 597.794 921.031C606.944 922.74 616.113 924.353 625.234 926.2C629.63 927.09 633.801 927.986 635.861 922.301C638.766 923.606 641.248 924.721 643.071 926.09C643.55 926.67 644.03 927.249 644.882 928.401C646.007 932.138 647.322 935.42 651.87 936.525C673.487 941.779 695.131 943.574 717.05 938.513C718.283 938.363 719.516 938.213 720.748 938.063C720.588 937.273 720.428 936.483 720.697 935.056C723.494 932.427 723.841 929.497 721.982 926.144C720.151 922.843 718.479 919.453 717.29 915.767C717.609 912.636 716.311 912.398 713.282 913.897C709.856 912.556 706.429 911.214 702.91 909.166C700.877 905.358 697.724 904.841 693.297 906.075C692.534 905.641 691.77 905.207 690.997 904.067C687.122 896.259 682.549 891.346 675.341 893.779C674.199 892.616 673.056 891.454 672.707 890.019C674.592 884.783 670.266 887.896 668.942 887.058C668.942 887.058 668.869 887.176 668.943 886.372C668.73 885.471 668.517 884.57 668.304 883.669C667.761 884.094 667.218 884.52 666.032 884.623C661.76 880.175 657.488 875.727 654.003 871.156C654.878 870.909 655.753 870.662 657.246 870.239C655.413 868.147 653.988 866.519 651.901 864.136C651.301 866.48 650.999 867.659 650.05 868.533C641.117 863.544 640.977 854.015 639.808 845.926C637.864 832.483 637.486 818.773 637.07 805.157C636.339 781.241 637.266 757.142 631.757 733.688C627.816 716.906 627.215 700.229 628.858 683.239C629.25 679.177 630.121 675.916 634.701 674.047C635.467 673.614 636.234 673.181 637.56 672.742C638.039 672.458 638.519 672.173 639.785 671.905C657.075 665.552 674.975 668.609 693.199 668.176C695.169 696.27 696.456 724.037 690.038 752.04C705.092 740.377 715.851 725.957 723.55 709.302C731.886 691.268 737.202 672.788 729.322 652.963C727.795 649.122 727.297 644.883 725.902 640.978C719.765 623.791 713.473 606.659 707.299 589.182C707.299 589.182 707.023 588.999 707.023 588.304C706.398 587.095 705.773 585.885 705.092 583.973C702.466 578.422 699.841 572.871 697.103 566.997C696.772 566.911 696.441 566.826 696.214 565.922C696.683 563.822 697.109 561.71 697.638 559.624C698 558.196 698.951 556.777 698.866 555.402C698.559 550.428 697.619 545.484 697.471 540.512C697.023 525.494 692.796 510.589 696.072 495.452C696.239 494.681 695.923 493.809 695.856 492.982C695.446 487.939 694.584 482.883 694.718 477.854C695.239 458.369 696.158 438.896 696.711 419.412C696.794 416.515 696.641 411.884 695 410.992C690.266 408.419 690.657 403.524 688.288 400.033C682.599 391.648 676.819 383.319 670.861 375.123C667.49 370.487 664.638 366.293 663.647 359.97C661.027 343.258 657.832 326.47 650.258 311.038C648.587 307.635 648.954 304.574 649.694 301.033C651.389 292.929 653.816 284.655 653.554 276.526C652.78 252.536 645.618 241.593 624.06 235.593C622.374 235.123 620.109 234.446 619.392 233.155C614.66 224.636 605.799 220.858 598.592 215.501C588.814 208.232 577.66 202.815 567.316 196.733C565.305 198.348 564.076 199.335 562.862 200.31C560.097 198.271 557.47 196.499 555.051 194.478C553.885 193.503 552.422 192.132 552.283 190.814C551.779 186.046 551.778 181.223 551.545 176.395C551.545 176.395 551.589 176.395 551.992 175.905C552.201 175.314 552.409 174.723 552.967 173.464C553.125 169.311 553.182 165.151 553.493 161.01C553.609 159.471 553.908 157.642 554.825 156.517C560.239 149.876 562.522 142.305 562.183 133.845C562.047 130.436 561.826 127.199 557.7 125.83C556.867 125.554 556.246 123.486 556.203 122.22C556.112 119.574 556.576 116.913 556.623 114.255C556.742 107.57 556.851 100.882 556.763 94.1971C556.729 91.6535 556.148 89.1172 555.913 85.7243C555.42 79.4169 551.693 77.3126 546.083 80.4817C540.935 77.2192 535.708 74.0745 530.659 70.665C524.066 66.2128 517.329 65.2092 510.128 69.0392C509.426 69.4129 508.478 69.9241 507.839 69.7301C498.139 66.7852 491.302 71.5502 484.313 78.0102C483.37 78.2236 482.426 78.4371 480.184 78.9444C482.154 79.6639 482.834 79.9122 483.13 80.9041C483.074 81.6457 483.018 82.3873 482.982 83.7317C482.988 84.1335 482.994 84.5354 482.828 85.6063C477.824 91.1104 475.557 97.2782 476.938 104.905C478.111 111.381 478.412 118.015 479.119 124.78C474.519 125.131 473.942 128.555 473.205 131.842C471.134 141.085 474.597 148.746 479.991 155.906C480.797 156.976 481.768 158.532 481.558 159.657C480.22 166.837 478.609 173.968 476.986 181.092C476.758 182.093 476.197 183.48 475.413 183.82C468.014 187.028 460.534 190.047 452.667 193.29C449.944 186.88 445.45 188.573 440.809 190.862C436.948 192.767 433.053 194.602 428.771 195.785C425.668 195.785 422.566 195.785 419.463 195.785C419.384 196.281 419.306 196.778 419.227 197.274C420.03 197.954 420.832 198.633 421.075 199.794C417.415 201.61 413.755 203.425 409.773 204.712C409.18 205.405 408.587 206.099 407.506 207.378C405.426 207.836 403.332 208.24 401.269 208.766C398.742 209.411 396.24 210.159 393.156 210.868C392.782 210.943 392.408 211.019 391.673 210.583C390.779 211.627 389.885 212.671 388.394 214.061C386.331 215.989 384.511 218.329 382.137 219.73C379.684 221.178 376.693 221.713 373.687 222.405C373.456 222.595 373.224 222.784 372.597 223.628C370.492 224.129 368.278 224.366 366.304 225.183C361.76 227.062 355.796 228.062 353.186 231.517C348.188 238.135 343.896 245.867 341.658 253.799C339.982 259.74 341.569 266.775 342.447 273.222C343.759 282.852 342.144 291.426 336.593 299.606C334.105 303.271 331.783 308.232 332.098 312.4C333.189 326.835 330.361 340.837 328.273 355.009C324.556 355.231 327.349 357.604 326.785 359.594C323.831 364.025 320.893 368.466 317.919 372.884C312.116 381.502 307.099 390.445 305.784 401.009C305.278 405.072 305.504 409.557 303.78 413.053C301.657 417.359 302.213 420.912 303.715 424.884C304.593 427.205 305.253 429.608 305.714 432.63C303.81 435.946 302.657 438.951 308.278 439.886C303.389 453.309 298.5 466.731 292.776 480.074C288.706 480.957 289.195 482.767 291.772 485.74C289.591 492.159 287.409 498.579 284.851 505.609C284.004 507.778 283.157 509.948 281.548 512.06C280.489 512.56 279.43 513.059 278.371 513.558C279.186 514.706 280.002 515.854 280.84 517.75C279.554 521.5 278.269 525.25 276.203 529.024C272.681 530.459 273.596 532.695 275.119 535.822C271.399 548.732 267.231 561.532 264.061 574.575C258.783 596.295 254.143 618.171 248.818 640.083C248.713 640.175 248.503 640.323 248.518 640.35C248.64 640.577 248.804 640.782 249.325 641.82C249.098 644.21 248.871 646.6 248.005 649.084C247.726 650.836 247.448 652.589 247.415 654.963ZM262.704 567.567C262.989 567.295 263.274 567.023 263.559 566.751C263.446 566.633 263.242 566.406 263.234 566.413C262.934 566.667 262.651 566.942 262.704 567.567Z" fill="#FEFEFE"/>
</svg>
