<svg width="35" height="21" viewBox="0 0 35 21" fill="none" xmlns="http://www.w3.org/2000/svg">
<path d="M33.7302 18.6552C34.0497 18.7895 34.0583 19.286 34.0536 19.5345C33.5259 20.0498 33.003 20.3167 32.2038 20.6933C31.9274 20.8029 31.5021 20.7582 31.2398 20.4049C30.3 19.6315 29.6223 19.2113 28.9446 18.7911C27.9051 18.4601 26.8657 18.129 25.5013 17.7693C18.614 13.634 12.0516 9.52747 5.14914 4.84778C3.87103 3.79126 2.93298 3.30783 1.99493 2.82443C1.99493 2.82443 2.05179 2.77423 1.88712 2.5473C1.14829 2.15488 0.574127 1.98941 0 1.82391C0 1.82391 0.0597845 1.83917 0.0451355 1.53723C0.0271915 0.823517 0.0239264 0.411773 0.0206604 0C11.1507 6.17358 22.2807 12.3472 33.7302 18.6552Z" fill="#230609"/>
</svg>
