<svg width="40" height="64" viewBox="0 0 40 64" fill="none" xmlns="http://www.w3.org/2000/svg">
<path d="M18.7804 26.5583C22.1519 32.5823 25.6298 38.5504 28.8398 44.6593C30.0351 46.9341 30.6038 49.5382 31.4836 52.0649C28.5598 53.2223 26.0216 54.2271 22.7538 55.3778C19.0358 56.314 15.8935 56.7541 13.0973 57.9824C9.5234 59.5523 6.22878 61.7579 2.81381 63.6896C1.85769 61.8061 0.137353 59.9494 0.0701533 58.0346C-0.346106 46.1886 1.05416 34.5991 5.23409 23.3547C7.47756 17.3195 8.81399 10.9503 10.6474 4.75784C11.1317 3.12234 11.9416 1.58331 12.602 0C13.0227 0.070831 13.4435 0.141663 13.8642 0.212494C14.2965 5.56235 14.7287 10.9122 15.1333 15.9195C16.2016 15.9195 18.2292 15.3984 18.6444 15.9967C26.3599 27.1114 35.3224 37.5113 39.6408 50.8411C36.6803 52.3472 35.5554 51.2326 34.2287 48.6905C30.9331 42.3755 27.2343 36.2631 23.5016 30.1897C22.5945 28.7137 20.9308 27.7027 19.2577 26.1626C18.5384 25.4118 18.1764 24.9764 17.7646 24.3842C17.6193 24.1743 17.524 24.1211 17.4287 24.0679C17.57 24.2126 17.7114 24.3574 17.8382 24.8069C18.1426 25.594 18.4615 26.0761 18.7804 26.5583ZM20.7546 50.9287C22.9308 47.4051 20.4878 37.2543 16.8582 35.2335C16.1705 34.8506 14.6652 34.7771 14.2627 35.2202C10.1607 39.7334 5.94314 44.17 6.7842 51.1334C7.26962 55.1526 8.78634 56.5251 12.5763 55.0644C15.1857 54.0587 17.6219 52.6033 20.7546 50.9287Z" fill="#2D3C4F"/>
</svg>
