<svg width="47" height="101" viewBox="0 0 47 101" fill="none" xmlns="http://www.w3.org/2000/svg">
<path d="M24.6362 1.68396C29.3612 0.994995 34.0861 0.30603 39.244 0C39.9999 1.80395 40.323 3.2251 40.6461 4.64618C42.2852 28.5218 43.9311 52.3969 45.5585 76.2734C45.9517 82.0419 46.172 87.8245 46.682 93.5819C47.0353 97.5694 46.0234 99.9737 41.4709 99.9457C38.5203 99.9276 35.5668 100.379 32.1492 100.195C30.8939 93.2211 30.1846 86.6613 29.2957 80.1259C27.8065 69.1767 26.2842 58.2306 24.6118 47.3083C23.8005 42.0106 22.6176 36.7699 21.6028 31.5034C21.262 31.562 20.921 31.6205 20.5801 31.6791C21.2742 36.7905 21.9683 41.9018 22.6623 47.0132C15.5762 34.3591 9.2641 21.8195 2.95654 9.27765C1.84979 7.0769 0.762024 4.8667 0 2.6543C0.780517 2.63599 1.22656 2.62433 2.11487 2.63037C4.92352 2.64642 7.28992 2.64471 9.89136 2.66266C10.1264 2.68231 10.5971 2.71338 10.6255 3.1062C13.7076 11.8807 16.7613 20.2625 19.7165 28.3737C19.7165 19.8297 19.7165 11.2685 19.9539 2.68933C20.1912 2.67132 20.6647 2.6225 20.897 2.53052C21.3491 2.1922 21.569 1.94586 22.1451 1.70703C23.213 1.70441 23.9246 1.69415 24.6362 1.68396ZM30.5952 25.4827C32.1372 46.2319 33.6791 66.9811 35.2966 88.7461C37.9436 81.2959 32.6096 19.4523 28.9233 13.7325C29.5029 17.813 29.9837 21.1982 30.5952 25.4827Z" fill="#1F2136"/>
</svg>
