<svg width="39" height="47" viewBox="0 0 39 47" fill="none" xmlns="http://www.w3.org/2000/svg">
<path d="M24.9232 44.3528C19.5182 47.2105 14.5668 47.1548 8.98338 43.9858C2.24714 40.1626 -0.665026 34.7288 0.126813 27.6528C0.727338 22.2867 -0.578327 16.2101 4.13728 11.6794C4.67259 11.165 4.21708 8.42041 3.46275 7.96448C-0.401294 5.62906 1.14985 3.04782 2.81273 0C11.8803 3.43781 20.8022 7.21249 29.515 11.3311C26.8797 12.2958 24.4535 12.9166 22.0273 13.5374C21.9435 14.0808 21.8597 14.6242 21.7759 15.1676C24.8505 17.3736 27.9251 19.5797 30.9997 21.7857C31.5597 21.6005 32.1198 21.4152 32.6799 21.2299C32.452 18.3587 32.2241 15.4875 31.9963 12.6164C38.4045 15.7486 39.9263 21.1796 35.6139 25.9902C33.3298 28.5382 30.8128 29.5992 27.3554 27.4374C23.3171 24.9124 18.9274 22.9494 14.2247 20.485C13.539 19.9585 13.2579 19.7928 12.8081 19.5274C12.3705 19.3412 12.0408 19.3577 11.711 19.3742C12.129 19.4769 12.547 19.5795 13.029 19.929C13.3617 20.3664 13.6304 20.557 13.8991 20.7476C16.7995 23.3112 19.5816 26.0261 22.6258 28.4057C28.3631 32.8903 33.5295 37.6451 33.6907 46.3647C30.5538 43.8221 27.7471 41.547 23.7162 38.2798C24.2877 41.1041 24.5806 42.552 24.9232 44.3528Z" fill="#2E3F53"/>
</svg>
