<svg width="50" height="11" viewBox="0 0 50 11" fill="none" xmlns="http://www.w3.org/2000/svg">
<path d="M24.3161 4.9265C26.3445 4.9959 28.3729 5.06535 31.1397 5.35204C34.0096 5.69377 36.1412 5.81828 38.0638 6.23076C36.8306 6.98894 35.8065 7.45915 34.7822 7.92937C34.8453 8.31896 34.9084 8.70854 34.9714 9.09813C39.7769 9.09813 44.5822 9.09813 49.0756 9.35198C43.3497 10.0671 37.9285 10.9681 32.5242 10.8755C26.1193 10.7659 19.7289 9.80004 12.9995 9.14C12.217 9.05126 11.7672 9.02788 11.0718 8.75304C8.98029 8.04674 7.13434 7.59184 5.28839 7.13695C3.67499 6.32457 2.06158 5.51219 0.348877 4.04308C0.166321 2.96404 0.083191 2.54155 0 2.11913C0.247559 1.47557 0.495118 0.832018 1.27374 0.087572C1.80487 -0.013319 2.30029 0.000657903 2.30029 0.000657903C2.30029 0.000657903 2.70679 0.11278 3.12402 0.346788C4.12396 0.712938 4.70666 0.845017 5.28937 0.977159C5.677 1.0446 6.0647 1.11205 6.97229 1.39903C8.09357 1.75505 8.69489 1.89147 9.29614 2.02782C9.66992 2.09075 10.0438 2.15367 10.9688 2.45323C13.1063 3.09154 14.6924 3.49309 16.2786 3.89464C17.0213 3.97576 17.764 4.05687 19.1613 4.37895C21.316 4.72203 22.816 4.82427 24.3161 4.9265Z" fill="#782831"/>
</svg>
