<svg width="39" height="16" viewBox="0 0 39 16" fill="none" xmlns="http://www.w3.org/2000/svg">
<path d="M13.3307 8.9163C13.3307 8.9163 12.9924 8.93211 12.5933 9.05455C11.9958 9.43025 11.7972 9.68355 11.5987 9.93687C11.5987 9.93687 11.6594 9.92848 11.3288 9.92692C10.5215 10.2586 10.0448 10.5918 9.33221 10.9707C9.0964 11.0163 8.69106 11.2741 8.69106 11.2741C6.36907 12.8205 4.04705 14.3669 1.721 15.9071C-1.19224 12.2692 -0.725411 11.099 5.59774 6.41402C13.8507 1.81459 22.3943 -0.554458 31.5782 0.110336C33.9478 0.281876 36.2602 1.24355 38.2685 2.85554C31.8641 3.99959 25.4597 5.1436 18.7545 6.51616C18.0468 6.8286 17.6398 6.91249 16.6819 7.12474C15.8749 7.47575 15.6189 7.69838 15.3628 7.92097C15.3628 7.92097 15.0089 7.92992 14.5772 8.05601C13.8739 8.42686 13.6023 8.67158 13.3307 8.9163Z" fill="#A12E32"/>
</svg>
