<svg width="50" height="173" viewBox="0 0 50 173" fill="none" xmlns="http://www.w3.org/2000/svg">
<path d="M0.0638428 4.12097C0.631714 3.88946 1.17627 3.63342 2.24817 3.01147C5.84613 1.987 8.91675 1.32843 12.2589 0.646362C12.821 0.415222 13.1116 0.207641 13.4021 0C13.8714 0.389038 14.3408 0.778137 14.946 1.70392C15.6251 3.17108 16.1682 4.10156 16.7183 5.19727C16.7251 5.36249 16.9102 5.6366 16.9539 5.90369C17.2349 6.43372 17.4724 6.69672 17.7098 6.95966C17.7098 6.95966 17.7697 7.31311 17.8936 7.74121C18.2535 8.44836 18.4897 8.72742 18.7258 9.00647C18.7258 9.00647 18.7476 9.33813 18.8671 9.76184C19.2239 10.4761 19.4612 10.7666 19.6985 11.0571C19.7678 11.4081 19.8371 11.7591 20.0103 12.6165C20.3414 13.3726 20.5686 13.6221 20.7958 13.8718C20.7958 13.8718 20.843 14.2653 20.9442 14.7159C21.273 15.4456 21.5005 15.7246 21.7281 16.0037C21.7281 16.0037 21.735 16.3323 21.8093 16.7911C22.1872 17.7825 22.4908 18.3151 22.7944 18.8476C22.7944 18.8476 22.8459 19.25 22.9499 19.7035C23.287 20.4295 23.5201 20.7019 23.7532 20.9743C23.7532 20.9743 23.7781 21.3156 23.8514 21.7694C24.2225 22.7219 24.5204 23.2206 24.8183 23.7194C24.8183 23.7194 24.8568 23.7289 24.8458 23.7141C24.8349 23.6993 24.8727 24.174 24.9655 24.644C25.2831 25.3422 25.5081 25.5704 25.733 25.7985C25.733 25.7985 25.7019 25.8316 25.7094 26.174C26.096 27.2674 26.4751 28.0184 26.8542 28.7695C26.8542 28.7695 26.8942 29.2107 26.9954 29.6826C27.3311 30.4193 27.5655 30.6841 27.7999 30.949C27.7999 30.949 27.803 31.2995 27.8698 31.7673C28.2344 32.7593 28.5322 33.2834 28.8301 33.8074C28.8301 33.8074 28.8692 34.235 28.9752 34.704C29.3115 35.4508 29.5419 35.7288 29.7723 36.0067C29.7723 36.0067 29.7645 36.3314 29.8435 36.848C30.903 39.822 31.8834 42.2794 32.8639 44.7368C32.8639 44.7368 32.9048 45.1984 32.9981 45.6875C33.3171 46.4577 33.5427 46.7388 33.7684 47.02C33.8207 47.3824 33.8732 47.7449 34.0239 48.6312C34.3374 49.4308 34.5524 49.7066 34.7675 49.9824C34.7675 49.9824 34.7512 50.3209 34.8281 50.8563C36.1879 54.9211 37.4708 58.4503 38.7537 61.9796C38.8041 62.3446 38.8545 62.7097 38.9893 63.6731C39.6261 65.5269 40.1787 66.7823 40.7313 68.0378C40.7785 68.397 40.8257 68.7563 40.9828 69.6445C41.3174 70.4583 41.5422 70.7432 41.767 71.0281C41.8043 71.3877 41.8416 71.7473 41.9418 72.7365C42.9205 75.9125 43.8362 78.4592 44.752 81.0058C44.7928 81.3712 44.8336 81.7366 44.948 82.7377C45.9595 86.1963 46.8972 89.0192 47.8349 91.8422C47.8698 92.2419 47.9046 92.6416 47.9889 93.694C48.6447 96.1579 49.2509 97.9692 49.8571 99.7805C49.8571 99.7805 49.8598 100.213 49.8988 100.827C49.6366 107.486 49.3353 113.532 49.0341 119.577C48.9322 119.934 48.8303 120.292 48.4932 121.202C47.8621 123.378 47.4662 125 47.0703 126.622C46.9598 126.955 46.8492 127.288 46.5287 128.071C46.2337 128.88 46.1487 129.238 46.0637 129.596C45.9548 129.931 45.8459 130.265 45.5178 131.052C45.1917 131.87 45.0845 132.235 44.9775 132.599C44.9775 132.599 44.8093 132.917 44.5929 133.257C44.2872 133.93 44.1979 134.262 44.1086 134.594C44.1086 134.594 43.9272 135.014 43.6608 135.433C43.2383 136.436 43.0823 137.019 42.9264 137.603C42.9264 137.603 42.7503 137.879 42.4874 138.279C41.7563 139.965 41.2883 141.252 40.8203 142.538C40.8203 142.538 40.918 142.603 40.6343 142.733C40.1887 143.445 40.0269 144.026 39.865 144.608C39.865 144.608 39.7076 144.844 39.4966 145.17C39.1428 145.853 38.9998 146.211 38.8568 146.57C38.553 147.011 38.2492 147.453 37.6376 148.343C36.8978 149.736 36.4659 150.679 36.034 151.623C36.034 151.623 35.8408 151.934 35.5554 152.314C34.8162 153.656 34.3624 154.618 33.9086 155.581C33.9086 155.581 33.9491 155.604 33.7286 155.683C33.2384 155.976 33.1342 156.253 33.1954 156.591C33.1954 156.591 32.959 156.966 32.6837 157.313C32.2753 157.974 32.1423 158.287 32.0093 158.601C32.0093 158.601 31.8124 158.863 31.5592 159.193C31.1501 159.865 30.9944 160.206 30.8386 160.547C30.8386 160.547 30.9257 160.575 30.6676 160.636C30.2802 161 30.1511 161.302 30.0219 161.605C30.0219 161.605 29.8312 161.894 29.5802 162.227C29.1767 162.896 29.0243 163.232 28.8719 163.569C28.8719 163.569 28.9429 163.593 28.6923 163.655C28.3116 164.013 28.1815 164.308 28.0515 164.603C28.0515 164.603 27.8477 164.893 27.5853 165.225C27.1676 165.89 27.0122 166.224 26.8569 166.559C26.8569 166.559 26.9456 166.577 26.609 166.694C24.3975 168.911 22.5226 171.013 21.3123 172.369C21.44 155.683 21.5703 138.667 21.7006 121.651C21.7192 120.895 21.7379 120.139 21.7672 118.583C21.3995 112.198 21.208 106.591 20.5911 101.032C19.9429 95.1912 18.8874 89.3953 18.0099 83.5795C18.0048 83.1333 17.9997 82.6871 17.978 81.4856C16.6516 72.6788 15.3417 64.6273 14.0317 56.5757C14.0187 56.1298 14.0057 55.6839 13.963 54.5194C13.3246 51.3018 12.7158 48.8029 12.1304 45.9609C12.0482 44.9406 11.9425 44.2631 11.8873 43.2008C11.3384 40.6202 10.739 38.4244 10.1521 35.8936C10.0443 34.9002 9.92401 34.242 9.85864 33.2104C9.32996 30.9547 8.74646 29.0722 8.18408 26.8602C8.08203 25.8839 7.95892 25.2372 7.83923 24.3042C7.62708 23.7112 7.41156 23.4046 7.22021 22.7782C7.10419 21.835 6.96393 21.2115 6.82593 20.3054C6.60779 19.7247 6.38739 19.4266 6.18011 18.8048C6.05951 17.8484 5.92578 17.2158 5.84387 16.2618C5.57306 15.1804 5.25043 14.4204 4.94342 13.6387C4.95911 13.6169 4.90729 13.6033 4.94116 13.2985C4.69586 12.4821 4.41663 11.9706 4.08105 11.5194C4.02472 11.5798 4.17072 11.5026 4.19189 11.1392C3.8465 9.67578 3.47986 8.57581 3.13416 7.50916C3.15503 7.5426 3.16327 7.46423 3.15332 7.07202C2.09564 5.80066 1.04779 4.92145 0 4.04224C0 4.04224 0.0405278 4.09643 0.0638428 4.12097Z" fill="#CC2A2D"/>
</svg>
