<svg width="62" height="43" viewBox="0 0 62 43" fill="none" xmlns="http://www.w3.org/2000/svg">
<path d="M14.5831 33.1851C10.8799 27.9713 7.08844 22.8171 3.51447 17.5162C1.96695 15.2209 0.867859 12.6233 0 9.7439C6.97287 11.6457 11.0438 17.2542 15.6961 21.9836C20.5201 26.8875 25.0138 32.1163 29.652 37.203C30.0984 37.0119 30.5448 36.8208 30.9911 36.6298C31.1134 35.0986 31.6147 33.4837 31.2976 32.0497C28.9197 21.2958 32.9348 12.1418 38.5689 3.53679C39.6072 1.95102 42.3529 1.48317 45.304 0C45.8038 6.9818 46.0857 12.3906 46.6178 17.7746C46.9126 20.7569 46.4791 24.3536 51.3065 25.4675C55.0768 29.2483 58.3312 32.709 61.5856 36.1697C56.1992 36.6316 50.8128 37.0935 44.9466 37.5965C43.9682 30.6557 43.0999 24.4964 42.1057 17.4435C37.5586 24.7017 40.0254 31.451 41.5617 38.4882C38.4071 39.8241 34.737 42.8905 32.3155 42.1054C26.2969 40.1543 20.8476 36.4469 14.8693 33.306C14.5688 33.1671 14.5831 33.1851 14.5831 33.1851Z" fill="#202135"/>
</svg>
