<svg width="111" height="165" viewBox="0 0 111 165" fill="none" xmlns="http://www.w3.org/2000/svg">
<path d="M110.048 138.065C103.565 146.269 95.1876 151.517 85.3409 155C70.8866 160.112 56.3896 165.144 40.8845 164.877C26.2145 164.624 12.5117 160.396 0 152.442C1.69843 144.307 5.08011 137.717 10.503 131.605C20.6213 120.201 30.306 108.345 39.3287 96.0585C46.2905 86.5786 49.9657 75.3938 50.9346 63.5898C51.7042 54.2144 56.5716 46.7354 61.256 39.1041C67.6873 28.627 74.1826 18.1889 80.5524 7.67456C82.1259 5.07721 83.3206 2.25037 84.4524 0C88.9635 17.653 92.4464 35.5658 98.2766 52.6789C102.579 65.3066 101.271 78.2599 103.917 90.8506C104.97 95.8606 105.346 101.013 106.025 106.95C107.363 117.888 108.705 127.976 110.048 138.065Z" fill="#62121A"/>
</svg>
