<svg width="43" height="172" viewBox="0 0 43 172" fill="none" xmlns="http://www.w3.org/2000/svg">
<path d="M30.8658 31.7812C32.6898 40.3495 34.5844 48.9036 36.3234 57.4891C40.1213 76.2398 42.9995 95.1858 41.6918 114.312C40.4742 132.121 36.6749 149.515 26.7523 164.871C25.1695 167.321 22.6451 169.162 20.5561 171.284C20.1779 170.963 19.7997 170.641 19.4215 170.32C21.5706 166.383 23.7197 162.446 26.2254 158.099C27.9635 154.508 29.5908 151.409 30.6826 148.132C34.701 136.07 35.431 123.563 35.9797 111.38C32.7549 120.516 29.7908 129.943 26.0499 139.051C24.3347 143.227 21.3728 147.006 18.4584 150.539C15.9439 153.586 13.2593 153.012 11.6473 149.246C10.2839 146.062 8.52515 142.948 7.7854 139.615C5.89423 131.095 4.57074 122.451 2.77472 113.908C2.45593 112.391 0.955017 111.123 0 109.74C2.26764 100.3 5.07465 90.9495 6.64459 81.3953C8.08752 72.6139 8.19843 63.6136 8.91669 53.7798C8.92554 45.13 8.91376 37.4102 8.89545 29.4901C8.88898 29.2897 8.88434 28.8888 8.89069 28.4304C7.01825 21.5688 12.2059 14.9341 8.28381 8.51093C7.98059 8.01425 9.00562 6.20395 9.84308 5.60431C12.7729 3.50632 15.8912 1.67148 19.1915 0C21.2564 5.11023 23.0678 9.95718 24.8831 14.7923C24.8869 14.7805 24.8622 14.7806 24.8487 15.1846C26.4945 20.6829 28.1539 25.7773 29.9227 31.1015C30.3131 31.4895 30.5941 31.6475 30.8813 31.7958C30.8873 31.786 30.8658 31.7812 30.8658 31.7812ZM26.8864 85.3717C25.2336 71.6417 23.6449 57.8979 18.7732 44.7659C17.6018 45.5165 17.0182 46.1767 16.9711 46.8731C16.5574 52.9919 16.5408 59.1523 15.8284 65.2328C14.4454 77.04 12.9431 88.846 10.9829 100.568C9.91675 106.943 8.02606 113.126 9.87994 119.661C11.4667 125.254 12.1703 131.202 17.3773 136.691C23.0168 119.59 25.4137 103.046 26.8864 85.3717Z" fill="#2E3F53"/>
</svg>
