<svg width="39" height="44" viewBox="0 0 39 44" fill="none" xmlns="http://www.w3.org/2000/svg">
<path d="M11.7182 26.4206C10.8189 23.591 9.83524 20.7849 9.04062 17.9263C7.93954 13.9653 6.10745 13.4224 2.53201 17.3624C1.68805 11.5752 0.952545 6.53169 0 0C4.62396 2.13914 7.85404 3.63345 11.4063 5.26118C13.4907 8.01315 15.4258 10.5371 16.9338 13.2945C17.5803 14.4766 17.3194 16.147 17.5075 17.5907C17.6206 18.4586 17.5063 19.5826 18.0019 20.1399C24.0557 26.9463 30.1946 33.6772 36.3469 40.3953C36.7685 40.8556 37.4725 41.0573 38.3941 41.4146C38.743 41.4499 38.7288 41.432 38.7205 41.4243C37.7778 42.0706 36.834 43.3045 35.9102 43.2897C25.4995 43.1233 15.0919 42.7651 4.2196 42.4142C5.40762 40.6077 7.05957 38.8455 8.90393 36.4377C10.4578 32.8046 14.2775 30.5049 11.7182 26.4206Z" fill="#1F2237"/>
</svg>
