<svg width="53" height="53" viewBox="0 0 53 53" fill="none" xmlns="http://www.w3.org/2000/svg">
<path d="M0.253652 9.38585C3.36199 12.012 6.37258 11.5929 9.71056 9.55959C14.641 6.55621 19.9441 4.14857 24.78 1.01163C27.8193 -0.959946 29.6717 0.322281 32.3022 1.70929C38.9099 5.19334 45.7925 8.15582 52.956 11.7271C52.3308 19.6239 52.7997 27.2113 48.2111 34.1998C44.8852 39.2652 43.6064 45.6747 41.4148 51.4849C40.9117 51.7067 40.4085 51.9285 39.3547 52.0466C37.9645 51.9661 37.1249 51.9892 36.2853 52.0123C35.8317 51.9102 35.378 51.8081 34.1297 51.6469C28.3105 51.4397 23.2861 51.2916 18.0219 50.9248C16.9261 50.6555 16.0699 50.605 15.192 50.5516C15.1702 50.5486 15.1271 50.5589 15.153 50.1885C11.7343 43.9406 8.45531 37.9578 4.803 32.2124C0.303213 25.1338 -0.511729 17.4481 0.253652 9.38585ZM15.3244 28.7754C23.8658 26.8896 32.3412 26.7641 40.8898 29.0392C42.7481 29.5338 45.0231 28.4628 47.1061 28.1128C34.413 26.4758 21.9163 23.0932 9.60384 28.9298C11.2342 28.9298 12.8644 28.9298 15.3244 28.7754ZM21.3563 15.8414C22.912 16.7637 24.4358 18.3763 26.0308 18.4501C28.558 18.5669 31.3043 18.049 33.628 17.0399C35.2049 16.3552 36.2172 14.3701 37.482 12.9665C37.1161 12.6835 36.7502 12.4005 36.3843 12.1174C32.0953 17.089 30.0599 17.4391 24.3952 14.4936C23.1531 13.8477 21.6412 13.7206 20.2535 13.3546C20.3998 14.0714 20.5461 14.7882 21.3563 15.8414ZM22.6857 31.6637C21.9759 31.9896 21.2661 32.3154 19.3887 33.1773C25.2897 33.1773 29.9215 33.1773 34.5533 33.1773C34.5583 32.6403 34.5632 32.1034 34.5682 31.5664C30.8841 31.5664 27.2001 31.5664 22.6857 31.6637Z" fill="#DD9A7B"/>
</svg>
