<svg width="10" height="8" viewBox="0 0 10 8" fill="none" xmlns="http://www.w3.org/2000/svg">
<path d="M9.06769 0.730713C8.74524 0.764831 8.4671 0.894134 7.82269 1.38025C6.98505 2.0134 6.55798 2.38489 6.13086 2.75638C5.84564 2.91757 5.56049 3.07877 4.91266 3.54568C4.36157 4.12909 4.17304 4.40677 3.9845 4.68445C3.9845 4.68445 4.04736 4.7197 3.78558 4.77457C3.33661 5.10742 3.14947 5.38538 2.96228 5.66336C2.96228 5.66336 3.04224 5.71353 2.76959 5.75763C2.31842 6.08923 2.13983 6.37677 1.9613 6.66431C1.9613 6.66431 2.04071 6.71387 1.76947 6.75787C1.31915 7.08896 1.14008 7.37601 0.960999 7.66302C0.960999 7.66302 1.04675 7.66626 0.769592 7.62585C0.492492 7.58542 0 7.55151 0 7.55151C0.843018 2.86929 3.92773 0.587677 8.72748 0C9.09717 0.253235 9.06769 0.730713 9.06769 0.730713Z" fill="#120204"/>
</svg>
