<svg width="40" height="34" viewBox="0 0 40 34" fill="none" xmlns="http://www.w3.org/2000/svg">
<path d="M27.7176 0C35.6269 0.519622 39.432 4.70944 39.6181 13.4106C39.7518 19.6584 39.6441 25.9113 39.6441 33.1569C37.2471 33.1569 35.1962 33.1025 33.149 33.1666C25.5419 33.4049 17.9312 33.9329 10.333 33.7829C8.21393 33.7411 5.6175 32.2047 4.12751 30.5533C-1.42803 24.3958 -0.404718 17.4336 1.60078 9.98718C3.30408 3.66281 6.64686 0.853057 13.3073 1.51227C11.7933 3.99014 9.60694 5.87799 8.16022 8.22232C6.94074 10.1985 5.68952 12.8467 6.02375 14.9474C6.73859 19.4409 13.9484 22.8112 19.7412 22.0091C25.0367 21.2757 27.5455 18.3195 27.6785 12.4453C27.7723 8.29871 27.7101 4.14856 27.7176 0Z" fill="#2D3C4F"/>
</svg>
