<svg width="64" height="113" viewBox="0 0 64 113" fill="none" xmlns="http://www.w3.org/2000/svg">
<path d="M59.4385 57.4489C60.3877 67.4272 61.3319 77.406 62.2883 87.3836C62.7773 92.4848 63.2607 97.5867 63.7985 102.683C64.1652 106.159 62.6146 107.523 59.1967 107.369C50.5919 106.981 41.8944 105.815 33.3975 106.642C24.4693 107.511 15.7447 110.398 6.89636 112.236C5.45483 112.535 3.83374 111.97 2.02753 111.585C1.10004 107.365 0.440612 103.366 0 98.8021C0.377136 97.9502 0.535462 97.6622 0.693787 97.3741C0.693787 97.3741 0.773437 96.9434 0.998535 96.588C1.39001 95.9446 1.55634 95.6566 1.72272 95.3685C1.72272 95.3685 1.79913 94.9552 2.0188 94.6013C2.40686 93.9539 2.57532 93.6602 2.74377 93.3666C3.06427 92.8986 3.38477 92.4307 3.98987 91.4708C4.72711 89.7719 5.17963 88.5648 5.6322 87.3577C5.6886 86.948 5.745 86.5383 6.05878 85.5974C6.74432 83.8307 7.17255 82.5953 7.60083 81.36C7.65332 80.9212 7.70581 80.4824 7.99243 79.5309C8.34113 78.463 8.45575 77.9078 8.57031 77.3525C8.62335 76.9116 8.67639 76.4706 8.9671 75.5214C9.315 74.4599 9.42523 73.9067 9.53552 73.3535C9.61066 72.6101 9.68585 71.8667 10.007 70.5303C10.3663 69.077 10.4797 68.2168 10.5931 67.3566C10.6367 66.9127 10.6802 66.4688 10.9774 65.4814C11.3505 64.0776 11.4698 63.2172 11.5892 62.3569C11.652 61.6129 11.7147 60.8688 12.0142 59.5288C12.3681 58.0734 12.4851 57.2139 12.6021 56.3543C12.6473 55.9131 12.6924 55.4719 12.9879 54.4823C13.3195 53.0753 13.4006 52.2166 13.4818 51.3579C13.55 42.3409 13.6182 33.324 13.6902 23.425C13.3793 20.4826 13.0645 18.4221 12.7496 16.3617C12.7507 15.9189 12.7516 15.4761 12.7455 14.3C12.4089 11.8302 12.0793 10.0936 11.7497 8.35712C11.7497 5.92468 11.7497 3.49225 11.7497 1.05981C12.1655 0.706543 12.5814 0.353271 12.9973 0C16.3527 3.03387 19.7081 6.06775 23.5651 9.58472C26.9692 10.4201 29.872 10.7725 33.1068 11.2261C34.8648 12.0264 36.2906 12.7255 37.9484 13.6708C40.4112 13.0898 42.6422 12.2626 45.2572 11.4238C46.6653 11.3996 47.6893 11.3871 48.8091 11.6099C49.1773 12.0336 49.4498 12.222 49.7493 12.5388C49.7763 12.6673 49.8818 12.9077 49.8585 12.8832C49.8352 12.8586 49.7947 12.8044 49.7795 13.1534C50.015 14.1127 50.2656 14.723 50.5631 15.7524C52.2563 24.5468 53.8204 32.9394 55.5784 41.2911C56.7186 46.7079 58.142 52.0651 59.4385 57.4489Z" fill="#61131B"/>
</svg>
