<svg width="31" height="36" viewBox="0 0 31 36" fill="none" xmlns="http://www.w3.org/2000/svg">
<path d="M25.773 7.91975C33.2456 16.1924 31.5155 26.135 21.2784 32.3217C18.0482 34.2738 13.8958 35.344 10.0951 35.5562C4.50858 35.8681 -0.052642 31.0147 0.000458996 25.4086C0.056978 19.4425 0.368074 13.4555 1.00784 7.525C1.63071 1.75071 5.9465 -1.34246 11.5738 0.561012C16.462 2.21442 20.8855 5.24168 25.773 7.91975ZM22.4273 8.69282C21.3341 7.94184 20.3352 6.80772 19.1302 6.51124C15.4104 5.59608 11.4904 4.20649 7.9166 4.75388C6.81229 4.92301 6.01969 10.709 6.04544 13.9156C6.09641 20.2669 9.09213 23.2178 15.3354 22.5229C18.9901 22.1162 23.1711 20.6635 25.6501 18.2044C26.6953 17.1674 23.9641 12.3235 22.4273 8.69282Z" fill="#1F2E41"/>
</svg>
