<svg width="23" height="12" viewBox="0 0 23 12" fill="none" xmlns="http://www.w3.org/2000/svg">
<path d="M19.1744 4.53491C20.2559 6.37415 21.3373 8.21339 22.3718 10.4456C20.0635 9.63776 17.8022 8.4369 15.3687 7.26791C14.9385 7.20205 14.6806 7.10432 14.4227 7.00658C14.612 7.21169 14.8012 7.4168 14.9904 7.62193C15.3259 8.35536 15.6614 9.08879 15.831 10.4169C13.758 11.2533 11.8511 11.4949 9.94416 11.7365C9.76984 11.7285 9.59556 11.7204 8.97242 11.3818C8.12674 10.9754 7.72999 10.8997 7.3332 10.8239C4.9043 9.60851 2.47538 8.39311 0.454595 6.91882C3.35044 7.31997 5.83817 7.98003 8.32587 8.64008C8.47831 8.36304 8.63071 8.086 8.78312 7.80896C6.05115 5.847 3.31919 3.88503 0.280797 1.5234C-0.0159555 0.749153 -0.0062503 0.37458 0.0034537 0C3.26212 0.922554 6.52082 1.84511 10.4161 2.64397C11.3726 2.18427 11.6925 1.84825 12.3923 1.55914C13.5172 1.77158 14.2622 1.93709 15.07 2.43143C16.4801 3.35181 17.8272 3.94336 19.1744 4.53491Z" fill="#150B0B"/>
</svg>
