<svg width="5" height="6" viewBox="0 0 5 6" fill="none" xmlns="http://www.w3.org/2000/svg">
<path d="M4.38275 2.34189C3.71924 3.13678 3.05566 3.93169 2.3219 5.09251C2.25177 5.45845 1.815 5.41009 1.55011 5.08896C1.03332 4.54256 0.781372 4.31729 0.52948 4.09203C0.52948 4.09203 0.430969 3.67247 0.34082 3.20435C0.167175 2.57687 0.083557 2.41754 0 2.25821C0.081299 1.78951 0.162598 1.3208 0.606445 0.493958C1.13483 0.0905305 1.3006 0.045273 1.46643 0C1.64087 0.042145 1.81531 0.0842899 2.34631 0.367447C2.914 0.863327 3.17963 0.948563 3.49963 0.864182C3.66156 0.934464 3.82355 1.00475 4.2644 1.35172C4.54321 1.62839 4.66229 2.02591 4.59167 2.10429C4.52112 2.18268 4.38275 2.34189 4.38275 2.34189Z" fill="#A12E32"/>
</svg>
