<svg width="12" height="34" viewBox="0 0 12 34" fill="none" xmlns="http://www.w3.org/2000/svg">
<path d="M10.8564 0.000351599C11.0896 -0.0146024 11.0608 0.451188 11.0582 0.684464C13.8201 8.56999 8.54661 14.268 6.2397 20.6846C5.57911 22.522 4.83973 24.3311 4.10957 26.5324C3.79481 27.3855 3.50697 27.8594 3.21754 28.6248C2.86628 30.3368 2.51661 31.7572 2.15999 33.5465C1.48826 32.9658 0.314099 32.0551 0.238446 31.0608C-0.434558 22.2183 0.0927858 13.555 4.77388 5.63426C5.69423 4.07698 6.33192 2.35262 7.15623 0.35405C7.94786 0.0113373 8.68327 0.0198824 9.7873 0.0243995C10.156 0.0204014 10.6232 0.0153356 10.8564 0.000351599Z" fill="#1F2237"/>
</svg>
