<svg width="41" height="27" viewBox="0 0 41 27" fill="none" xmlns="http://www.w3.org/2000/svg">
<path d="M5.17273 18.8633C5.70795 18.4114 6.24316 17.9596 7.13574 17.1379C7.67499 16.4644 7.85681 16.1607 8.03857 15.857C8.03857 15.857 7.92621 15.8061 8.22021 15.774C8.6922 15.4515 8.87018 15.1612 9.04816 14.8708C9.04816 14.8708 8.95978 14.7797 9.25067 14.7591C9.78168 14.4593 10.0219 14.1801 10.262 13.9008C18.8898 6.37823 29.0853 2.22079 40.5518 0C39.9583 1.06119 38.9816 2.09131 37.9584 3.45215C32.6047 5.86819 27.2974 7.95355 21.5485 10.3962C16.0645 14.7133 11.0508 18.7104 5.96552 22.6143C4.02362 24.1051 1.9176 25.3821 0 26.4396C1.10858 24.4124 2.10352 22.7021 3.09839 20.9919C3.09839 20.9919 3.10132 20.9272 3.32568 20.8471C3.71191 20.4662 3.87366 20.1654 4.0354 19.8646C4.0354 19.8646 3.95825 19.7624 4.2428 19.7451C4.74249 19.4396 4.95758 19.1514 5.17273 18.8633Z" fill="#120204"/>
</svg>
