<svg width="45" height="77" viewBox="0 0 45 77" fill="none" xmlns="http://www.w3.org/2000/svg">
<path d="M43.0159 69.4802C34.3372 68.5006 27.6572 72.9575 20.3524 76.503C18.9999 74.7235 18.0708 73.2285 17.1416 71.7335C13.774 61.93 10.4901 52.0967 7.0079 42.334C4.86005 36.3121 2.41 30.398 0 24.0792C0.80841 20.1602 2.00558 16.9519 6.36215 16.168C6.70157 16.107 6.871 12.8277 6.44107 11.2264C5.48035 7.64791 4.09103 4.1845 2.90182 0.278431C14.7852 -0.636303 26.3781 0.572437 37.7033 5.85991C38.2469 7.65801 38.6825 8.75826 38.8045 9.8922C39.7545 18.7206 40.6503 27.555 41.5508 36.3887C42.6521 47.1914 43.7416 57.9953 44.8363 68.7987C44.2899 68.9516 43.7435 69.1045 43.0159 69.4802Z" fill="#1F2136"/>
</svg>
