<svg width="72" height="76" viewBox="0 0 72 76" fill="none" xmlns="http://www.w3.org/2000/svg">
<path d="M0 67.5443C1.3584 65.7189 2.45407 63.5994 4.11664 62.1147C18.0857 49.6401 27.599 34.4117 33.2866 16.5949C34.9728 11.313 37.7567 6.38159 40.6153 0C47.5004 1.34607 55.0346 2.81067 62.5634 4.30286C63.3734 4.46344 64.1619 5.02625 64.9429 4.99292C71.0656 4.73151 71.2275 9.77997 71.5873 13.4415C72.1001 18.6601 71.6702 24.0507 70.9852 29.2817C70.4633 33.2678 68.9191 37.1201 66.7764 40.8855C65.3042 37.0289 63.832 33.1724 62.3598 29.3158C61.9656 29.3354 61.5715 29.3552 61.1773 29.3748C60.7936 33.4849 60.4098 37.595 59.7238 42.4008C58.6411 49.2482 57.5884 55.3806 57.1453 61.5566C56.5076 70.4434 44.7802 78.4221 36.1116 75.2447C37.589 73.3956 39.2264 72.0325 40.4313 70.358C42.4554 67.5451 44.2044 64.5342 46.4492 61.6091C48.5526 61.929 50.2761 62.2463 51.9997 62.5637C42.8466 56.4295 16.4764 54.3373 12.6433 58.675C17.4218 58.675 22.2716 58.675 27.108 59.1255C26.4331 65.5819 26.9966 71.1129 32.8518 74.6417C33.0486 74.7603 33.0164 75.2587 32.6461 75.5873C24.3374 74.5768 16.4041 73.9086 8.64398 72.368C5.56482 71.7567 2.86987 69.2098 0 67.5443ZM44.9264 20.9496C41.1243 28.5306 37.2066 36.0571 33.5933 43.7271C32.563 45.9141 32.416 48.5173 31.7378 51.4805C38.3153 51.9867 44.7074 48.785 48.5833 55.9096C49.3549 54.4612 49.8969 53.907 49.9199 53.3319C50.3448 42.7291 50.7723 32.1251 50.995 21.517C51.0204 20.3072 49.8245 19.0717 49.1949 17.8481C47.8809 18.6573 46.5668 19.4667 44.9264 20.9496Z" fill="#1D1F34"/>
</svg>
