<svg width="18" height="140" viewBox="0 0 18 140" fill="none" xmlns="http://www.w3.org/2000/svg">
<path d="M17.735 28.595C17.1096 28.0993 16.4843 27.6036 15.2268 26.6069C13.9795 34.8712 12.5088 42.5877 11.7019 50.3731C9.88113 67.9426 8.3216 85.5403 6.80331 103.139C6.34873 108.409 6.38242 113.721 5.91565 119.321C5.33807 114.402 5.03879 109.177 4.73514 103.951C4.67883 102.982 4.60489 102.015 4.53909 101.047C4.1095 101.041 3.67987 101.035 3.25027 101.029C2.26096 113.696 1.27164 126.363 0 139.321C0.426239 123.998 0.426361 108.31 2.01334 92.7841C4.25998 70.8052 6.74579 48.7621 11.0201 27.1198C12.9213 17.4936 9.2265 10.4343 6.57892 2.07285C7.18448 1.16476 7.81894 0.631164 8.81476 0C9.57388 0.815369 9.97162 1.72827 10.0915 2.6983C9.57892 3.12235 9.34418 3.48923 9.10947 3.85608C9.6734 4.07605 10.2373 4.29605 10.7878 4.54877C10.7745 4.58145 10.7101 4.55252 10.79 4.78311C11.0403 5.30887 11.2861 5.51294 11.7379 5.86761C12.0502 6.61993 12.2322 7.13058 12.1328 7.69421C11.6027 8.10797 11.354 8.46872 11.1053 8.82947C11.6629 9.07092 12.2205 9.31238 12.7648 9.58731C12.7515 9.62082 12.7241 9.55417 12.7004 9.96936C13.9836 15.043 12.8935 20.4199 17.199 24.2346C18.0206 24.9625 17.5886 27.1051 17.735 28.595Z" fill="#150506"/>
</svg>
