<svg width="20" height="26" viewBox="0 0 20 26" fill="none" xmlns="http://www.w3.org/2000/svg">
<path d="M11.0806 25.7697C10.1082 23.2008 9.48219 20.4167 8.05995 18.1272C6.78953 16.0822 4.90886 14.0811 2.81578 12.9602C-0.384234 11.2467 -1.06069 8.96132 1.84825 6.7027C2.98619 5.81912 4.48283 5.38736 5.83421 4.79083C9.42161 3.20729 12.9842 1.55673 16.6364 0.138291C17.5617 -0.221054 18.7853 0.187668 19.8936 0.592362C19.9155 0.941269 19.8653 0.994294 19.5153 1.0101C13.2764 3.67308 7.38737 6.32028 1.49833 8.96748C1.62483 9.41329 1.75129 9.85909 1.87776 10.3049C10.277 12.2366 10.3326 19.1635 11.2581 25.5931C11.199 25.652 11.0806 25.7697 11.0806 25.7697Z" fill="#2F0404"/>
</svg>
