<svg width="16" height="44" viewBox="0 0 16 44" fill="none" xmlns="http://www.w3.org/2000/svg">
<path d="M0.382538 21.0757C0.0792238 18.3178 0.05661 15.2795 0 11.7858C1.28409 7.6738 2.60223 4.01718 4.05032 0C8.80472 2.85016 9.19174 6.24634 8.60944 10.6109C7.67334 17.6276 7.19952 24.7408 7.11908 31.8199C7.08566 34.7609 8.56757 37.7191 9.46786 41.0694C11.5709 32.4482 13.4888 24.5856 15.7118 16.5353C15.1012 20.9734 13.7568 25.5713 13.4545 30.2368C13.3076 32.5032 10.501 36.2363 15.7115 37.3925C15.815 39.6619 17.0393 42.7 13.2907 43.3068C9.80423 43.8712 7.14963 43.0933 6.07623 39.1231C4.94183 34.9272 3.03619 30.9088 2.23282 26.6678C1.85324 24.6642 3.32748 22.338 3.84314 20.1302C4.84073 15.8588 5.75421 11.5678 5.91641 7.11649C0.486694 10.5356 1.62576 16.0137 0.382538 21.0757Z" fill="#141123"/>
</svg>
