<svg width="48" height="25" viewBox="0 0 48 25" fill="none" xmlns="http://www.w3.org/2000/svg">
<path d="M44.9736 17.8875C41.5115 16.8551 37.8186 14.5171 34.6386 15.0796C29.1072 16.058 23.13 17.7931 18.7029 21.0589C9.34724 27.9606 6.32694 24.1296 1.66178 15.582C-0.604486 11.4298 -0.884392 6.28273 2.92545 2.1945C3.83817 1.21507 5.11994 0.386083 6.38639 0.0154475C6.97501 -0.156817 8.67558 1.16323 8.59836 1.4125C8.2121 2.66023 7.637 4.03326 6.69733 4.88905C4.48582 6.90315 4.43116 8.41459 7.6905 10.0679C8.80048 11.1468 9.43418 11.9257 10.0695 13.0404C10.6946 14.3802 11.3182 15.3843 12.222 16.8395C13.0696 15.3844 13.6 14.4739 14.4957 13.4708C16.6007 13.2558 18.3405 13.1334 20.3275 13.2324C21.3679 13.0213 22.1611 12.5887 23.0356 12.0129C23.1169 11.8697 23.41 11.7195 23.41 11.7195L23.7391 11.7293C27.2194 7.97616 31.8391 8.42711 36.1183 8.97857C38.7242 9.31441 41.131 11.1944 44.1209 12.1988C45.713 12.4509 46.8117 12.8851 47.9103 13.3192C47.9516 13.5592 47.993 13.7991 47.7123 14.4527C46.5847 15.8733 45.7792 16.8804 44.9736 17.8875Z" fill="#202135"/>
</svg>
