<svg width="86" height="34" viewBox="0 0 86 34" fill="none" xmlns="http://www.w3.org/2000/svg">
<path d="M0 14.6019C3.16138 11.2412 6.65884 8.13167 9.40347 4.45949C13.2875 -0.73714 17.8667 -0.897479 23.7863 1.46C24.3723 1.54741 24.7886 1.54909 25.0572 1.80064C27.4804 2.60701 29.635 3.16182 32.0144 3.98332C33.7891 4.70195 35.3391 5.15385 36.9131 5.60176C36.937 5.59776 36.8951 5.57518 37.0961 5.85862C38.8399 6.62709 40.3827 7.11213 41.9352 7.56086C41.9449 7.52452 41.8931 7.57911 42.0449 7.84526C42.7747 8.27259 43.3527 8.43376 43.9373 8.56022C43.9439 8.52549 43.8906 8.57188 44.0587 8.87169C46.1309 9.97499 48.0349 10.7785 49.9454 11.5531C49.9519 11.5241 49.8984 11.55 50.1111 11.8108C51.1915 12.2476 52.0594 12.4234 52.9359 12.5624C52.9445 12.5256 52.8925 12.5807 53.0744 12.8722C55.7997 14.3115 58.3431 15.4594 60.9168 16.5998C60.9471 16.5923 60.8873 16.5771 61.0426 16.841C61.7739 17.2707 62.3499 17.4364 62.9325 17.5647C62.9391 17.5274 62.8823 17.5776 63.0221 17.8684C64.088 18.6592 65.0141 19.1592 66.1584 19.9166C72.9389 24.2806 79.5013 28.3872 85.6339 32.5109C82.097 32.8587 78.9844 33.5128 75.884 33.4592C66.4664 33.2965 56.9467 33.6285 47.6656 32.3378C35.8111 30.6893 24.0531 28.0241 12.45 25.0344C7.06793 23.6477 2.26321 20.3268 0 14.6019Z" fill="#304156"/>
</svg>
