<svg width="28" height="7" viewBox="0 0 28 7" fill="none" xmlns="http://www.w3.org/2000/svg">
<path d="M9.19012 3.6655C9.19299 2.57951 9.19586 1.49353 9.18484 0C10.8296 0.691345 12.4883 1.79021 14.2963 3.45679C14.6217 4.30882 14.8699 4.4996 15.1899 4.59685C15.9618 4.92241 16.7336 5.24799 18.2051 5.58141C19.9957 5.28667 21.0866 4.98407 22.1776 4.68149C23.6036 4.95258 25.0297 5.22366 26.8241 5.75703C27.2148 6.31238 27.219 6.6057 27.2049 6.89929C20.9749 6.82765 14.7445 6.69118 8.51483 6.71382C5.72507 6.72395 2.93643 7.05309 0 6.9785C3.29526 6.17345 6.73779 5.62735 10.2083 5.07681C9.90579 4.65744 9.54794 4.16147 9.19012 3.6655Z" fill="#2F0404"/>
</svg>
