<svg width="20" height="27" viewBox="0 0 20 27" fill="none" xmlns="http://www.w3.org/2000/svg">
<path d="M3.44299 26.0221C2.32843 26.083 1.2923 26.0789 0 25.7848C0.686402 24.4053 1.62891 23.3157 2.57141 22.226C2.57141 22.226 2.54596 22.195 2.79346 22.0958C3.19898 21.7041 3.35706 21.4115 3.51508 21.1189C3.51508 21.1189 3.43567 21.0258 3.70648 20.9869C4.14838 20.6619 4.31946 20.376 4.49054 20.09C4.49054 20.09 4.41937 20.0372 4.68671 19.9871C5.13452 19.656 5.315 19.375 5.49548 19.094C5.49548 19.094 5.41968 19.0386 5.68762 18.9873C6.13129 18.6514 6.30701 18.3667 6.48267 18.0821C6.48267 18.0821 6.41736 18.0366 6.68115 17.9791C7.11554 17.6346 7.28619 17.3477 7.45685 17.0608C7.45685 17.0608 7.41156 17.0414 7.71387 16.9196C8.51996 15.9128 9.02362 15.0276 9.52734 14.1425C9.52734 14.1425 9.4411 14.132 9.76526 13.9891C10.5756 12.9539 11.0618 12.0616 11.5481 11.1693C11.5481 11.1693 11.5356 11.1486 11.7636 11.0465C12.1351 10.6446 12.2786 10.3448 12.4221 10.045C12.4221 10.045 12.4144 10.0344 12.6794 9.8896C13.1384 9.19864 13.3324 8.65247 13.5264 8.10628C13.5264 8.10628 13.4193 8.03067 13.729 7.92076C14.21 7.24977 14.3813 6.68871 14.5527 6.12764C14.5527 6.12764 14.4218 6.04152 14.7441 5.92732C15.224 5.24303 15.3814 4.67296 15.5389 4.10289C15.5389 4.10289 15.4901 4.01508 15.7745 3.81209C16.348 2.40607 16.6371 1.20303 16.9261 0C17.6606 0.190705 18.395 0.381423 19.2676 1.12837C19.353 2.08607 19.3003 2.48755 19.014 3.13161C18.2079 4.8295 17.6354 6.28481 16.8325 7.98494C14.8282 11.0894 13.0543 13.9489 11.0031 17.0014C8.37769 20.073 6.02954 22.9517 3.68134 25.8304C3.68134 25.8304 3.52149 25.957 3.44299 26.0221Z" fill="#2F0404"/>
</svg>
