<svg width="103" height="35" viewBox="0 0 103 35" fill="none" xmlns="http://www.w3.org/2000/svg">
<path d="M3.3381 0C5.9346 5.61246 10.7393 8.93335 16.1214 10.3201C27.7245 13.3098 39.4825 15.9749 51.337 17.6235C60.6181 18.9142 70.1378 18.5821 79.5554 18.7448C82.6558 18.7984 85.7683 18.1443 89.6301 17.8253C91.4244 18.1678 92.4638 18.4989 93.6572 19.0812C94.4201 19.7991 95.0291 20.2657 95.8495 20.7647C96.0608 20.7971 96.4861 20.8418 96.4861 20.8418C98.1396 22.4146 99.7929 23.9873 102.543 26.6029C98.682 27.9113 95.6302 29.2237 92.4463 29.9787C73.8359 34.392 54.7453 36.883 36.3183 31.4809C24.9769 28.1561 14.5909 21.0187 4.37094 14.6397C-1.32285 11.0858 -1.22546 4.8642 3.3381 0Z" fill="#1E2C3F"/>
</svg>
