<svg width="72" height="19" viewBox="0 0 72 19" fill="none" xmlns="http://www.w3.org/2000/svg">
<path d="M29.7338 0.0158132C30.3654 0.0818532 30.9969 0.147924 32.2455 0.406988C34.1207 0.751257 35.3788 0.902532 36.637 1.05381C36.637 1.05381 36.7232 0.952398 36.8872 1.2497C37.943 1.70588 38.8347 1.86472 39.7265 2.02356C39.7265 2.02356 40.0284 2.13578 40.4571 2.34278C41.8069 2.71122 42.7281 2.87263 43.6493 3.03403C43.6493 3.03403 43.7101 2.93802 43.8803 3.22675C44.923 3.67713 45.7955 3.83875 46.6679 4.0004C46.6679 4.0004 46.6999 3.91663 46.8885 4.20011C47.9604 4.66126 48.8436 4.83893 49.7268 5.01661C49.7268 5.01661 50.0041 5.12931 50.3336 5.31031C51.0081 5.61823 51.3531 5.74512 51.6981 5.87201C52.4279 6.2251 53.1577 6.57819 54.4243 7.23017C60.551 11.3133 66.1408 15.0975 71.3785 18.8586C69.8989 18.5302 68.7714 18.2249 67.3545 17.8967C66.6091 17.561 66.1532 17.2483 65.6595 16.6064C64.9633 15.8241 64.3048 15.3709 63.2993 14.8545C58.2256 12.8076 53.4989 10.8241 48.5414 8.56318C37.2387 3.68055 25.6458 2.47181 13.3812 2.97358C10.5652 3.27546 8.15582 3.59446 5.74646 3.91346C3.97934 3.90366 2.21219 3.89386 0 3.85456C3.68686 2.58332 7.81876 1.34153 12.7968 0.033727C19.0065 -0.016261 24.3701 -0.000238804 29.7338 0.0158132Z" fill="#150506"/>
</svg>
