<svg width="37" height="86" viewBox="0 0 37 86" fill="none" xmlns="http://www.w3.org/2000/svg">
<path d="M36.6269 56.6568C35.9725 68.7811 29.1269 77.4866 20.8744 85.9185C13.1085 79.5625 5.52636 73.7365 1.04674 64.8081C-0.534616 61.6562 -0.420237 59.1778 2.05126 56.7369C8.26549 50.5995 10.0322 42.6009 10.4336 34.4368C10.7986 27.0131 9.99932 19.5332 9.74505 12.077C9.6942 10.5856 9.33996 8.88741 9.90496 7.63667C11.1379 4.90758 12.3353 1.49083 14.6056 0.157272C15.9377 -0.625107 19.5876 1.68422 21.6789 3.27943C23.9614 5.02058 25.6479 7.54329 27.5714 10.4438C25.5506 11.34 23.5525 11.5176 21.2969 11.566C20.5671 11.1059 20.0948 10.7751 19.5762 10.0922C18.5574 9.01997 17.5849 8.29991 15.6637 6.8774C15.6637 10.4072 15.6017 12.5367 15.6781 14.6612C15.7956 17.9277 16.4113 21.2287 16.1083 24.4484C14.9982 36.2414 15.8132 47.8875 18.7441 59.3092C20.1389 64.7445 22.5647 65.0072 26.9476 60.6514C29.0199 58.8155 30.7991 57.155 32.7948 55.7927C34.2165 56.2796 35.4217 56.4682 36.6269 56.6568Z" fill="#1F2E41"/>
</svg>
