<svg width="96" height="209" viewBox="0 0 96 209" fill="none" xmlns="http://www.w3.org/2000/svg">
<path d="M95.2106 149.012C95.1971 152.05 95.1837 155.088 94.9103 158.876C94.5555 162.763 94.4604 165.901 94.3654 169.039C94.0108 171.444 93.6563 173.849 92.9996 176.874C91.894 180.009 91.0905 182.524 90.2871 185.039C90.2352 185.45 90.1834 185.862 89.9182 186.719C89.4465 187.393 89.293 187.678 89.2443 188.02C88.873 189.079 88.5018 190.139 87.9131 191.679C87.4366 192.391 87.2774 192.678 87.2183 193.021C86.8788 193.79 86.5393 194.56 85.8965 195.81C85.1438 197.204 84.6944 198.119 84.2449 199.035C84.2449 199.035 84.1514 199.471 83.8618 199.866C83.1153 201.184 82.6583 202.107 82.2013 203.03C82.2013 203.03 82.1221 203.445 81.8979 203.795C81.4958 204.433 81.3177 204.719 81.1397 205.006C81.1397 205.006 81.18 205.016 80.8822 205.154C80.1188 206.204 79.6531 207.116 79.1874 208.027C78.0814 208.412 76.9754 208.798 75.5112 208.742C74.1685 207.525 73.184 206.749 72.1996 205.972C70.0204 203.764 67.8413 201.556 65.2471 198.905C63.6236 197.626 62.4153 196.791 61.207 195.956C61.1053 195.64 60.9166 195.389 60.2656 194.811C56.3228 191.615 52.7552 188.812 49.1877 186.009C49.1877 186.009 49.1761 186.025 49.0404 185.725C47.6708 184.612 46.437 183.8 45.2031 182.988C45.2031 182.988 45.1732 183.018 45.0462 182.714C43.6773 181.606 42.4355 180.803 41.1936 179.999C41.1936 179.999 41.1749 180.023 41.0396 179.732C40.0016 178.959 39.099 178.477 38.1964 177.995C38.1964 177.995 38.1737 178.022 38.0408 177.729C36.9981 176.965 36.0882 176.493 35.1784 176.022C35.1784 176.022 35.1761 176.025 35.0128 175.723C25.878 169.371 15.6456 167.373 5.16251 166.181C1.23227 166.56 -0.44159 164.783 0.114288 159.995C0.0840753 142.074 0.042053 125.042 0 108.011C0.065338 103.325 0.130646 98.6392 0.454346 93.1798C0.902802 87.1138 0.869111 81.802 1.3237 76.5324C2.84198 58.9334 4.40152 41.3357 6.22232 23.7663C7.02917 15.9809 8.49991 8.26428 9.74722 0C11.0047 0.996766 11.63 1.49243 12.2663 2.31314C12.6164 3.42609 12.9556 4.21399 13.2846 5.2995C13.5829 6.0712 13.8912 6.54526 14.2192 7.34106C14.5682 8.45129 14.8974 9.23972 15.301 10.2673C15.6177 10.731 15.8602 10.9554 16.1114 11.4902C16.1719 12.2111 16.2237 12.6217 16.3393 13.2687C16.5645 13.8047 16.7995 14.0266 17.1197 14.5115C17.5032 15.9111 17.8748 16.9699 18.3157 18.2675C18.5498 18.8105 18.79 19.0337 19.1184 19.5159C19.5001 20.9139 19.8689 21.9719 20.3085 23.269C20.6197 23.7334 20.86 23.9587 21.1077 24.4895C21.1757 25.1979 21.2363 25.6007 21.3007 26.3432C22.251 28.1499 23.1976 29.6168 24.1659 31.3162C24.1876 31.5485 24.2803 32.006 24.213 32.3837C22.3585 37.4059 23.926 40.7932 28.2122 43.4728C28.9693 44.4939 29.5782 45.2594 30.2236 46.3886C30.9046 48.5081 31.5491 50.264 32.1929 52.4056C32.5629 54.5403 32.9337 56.2894 33.3624 58.2662C33.5755 58.7888 33.8129 58.9836 34.1497 59.0493C34.1668 59.0202 34.1103 59.0571 34.1089 59.4496C34.7919 61.9258 35.4761 64.0096 36.2992 66.294C36.4146 67.3313 36.391 68.168 36.3466 69.338C36.9364 70.8134 37.5471 71.9556 38.3358 73.2653C38.6658 73.8892 38.8179 74.3455 38.7554 75.0878C39.4243 78.2574 40.3078 81.1409 41.214 84.3236C41.614 86.084 41.9914 87.5453 42.3487 89.3389C42.9395 90.8107 43.5504 91.9502 44.2986 93.3133C44.7306 95.6937 45.0251 97.8505 45.3047 100.34C45.8931 101.807 46.4966 102.942 47.0975 104.093C47.0951 104.11 47.0696 104.138 47.0907 104.501C48.1287 105.606 49.1456 106.348 50.1624 107.09C51.2675 107.404 52.3725 107.719 54.0453 108.276C55.4734 108.638 56.3336 108.756 57.1938 108.874C57.6331 108.921 58.0725 108.968 59.0826 109.285C62.1324 109.444 64.8883 112.926 67.0724 108.983C67.9421 108.096 68.8117 107.208 70.3256 106.141C73.7365 105.562 76.8846 108.841 79.3051 105.099C79.3051 105.099 79.7464 105.064 80.1911 104.933C80.9209 104.617 81.1189 104.364 81.2298 104.043C81.2298 104.043 81.7016 103.972 82.3707 103.942C86.7689 104.144 90.5073 104.294 94.2154 104.712C94.6831 104.765 94.9914 106.231 95.3736 107.042C95.3103 107.789 95.247 108.536 94.939 109.875C94.6225 111.327 94.5509 112.187 94.4792 113.047C94.4272 122.726 94.3751 132.406 94.3138 142.945C94.6066 145.541 94.9086 147.276 95.2106 149.012Z" fill="#62121A"/>
</svg>
