<svg width="11" height="27" viewBox="0 0 11 27" fill="none" xmlns="http://www.w3.org/2000/svg">
<path d="M8.83093 0.0509338C9.55997 2.26929 10.0551 4.45883 10.8134 6.85297C10.8994 7.90854 10.7222 8.75952 9.93256 9.89178C8.91675 11.4978 8.51337 12.8224 8.11002 14.1472C8.11002 14.1472 8.07541 14.5978 7.81647 14.9436C7.40552 15.5802 7.25351 15.8711 7.1015 16.162C6.90399 16.983 6.70651 17.8039 5.97137 18.8598C5.29141 19.7394 5.14908 20.3842 5.00674 21.029C4.83096 21.5777 4.65521 22.1264 3.9552 22.8848C3.2915 23.7398 3.15201 24.3851 3.01251 25.0304C2.84927 25.5837 2.68604 26.137 2.021 26.7533C1.00382 26.5552 0.488465 26.294 0 25.6536C0.730164 23.4523 1.46954 21.6432 2.13013 19.8058C4.43704 13.3892 9.71051 7.69119 7.24133 0.0369568C7.73309 0.0233458 7.92957 0.011689 8.12607 0C8.12607 0 8.59695 0.0221258 8.83093 0.0509338Z" fill="#040407"/>
</svg>
