<svg width="53" height="13" viewBox="0 0 53 13" fill="none" xmlns="http://www.w3.org/2000/svg">
<path d="M9.71863 2.34714C9.21371 3.98973 8.37527 5.69754 7.10907 8.27661C9.40994 7.93124 11.1807 7.58349 12.9684 7.41058C23.645 6.37793 34.3223 5.35107 45.007 4.40875C47.1724 4.21777 49.7886 4.80234 48.277 0.617552C48.3893 0.114958 48.691 -0.138979 48.9243 0.0778795C50.4152 2.06705 51.6729 3.83935 52.9174 5.77899C52.9042 5.94629 52.9288 6.28107 52.9288 6.28107C38.0961 5.85574 23.3192 6.05679 8.92325 10.3387C6.25955 11.131 3.62772 12.0303 0.981171 12.8802C0.654115 12.5196 0.327057 12.159 0 11.7983C3.12836 8.66968 6.25671 5.54098 9.71863 2.34714Z" fill="#2F0404"/>
</svg>
