<svg width="30" height="43" viewBox="0 0 30 43" fill="none" xmlns="http://www.w3.org/2000/svg">
<path d="M21.3188 42.8453C19.3415 29.6158 12.3952 19.2556 2.55211 10.6315C0.00999832 8.40419 -0.861645 6.52464 0.99126 3.09561C2.93566 -0.502675 5.11498 -0.427662 8.28356 0.647991C13.2362 2.32927 18.3235 3.6276 23.2247 5.43786C24.7701 6.00866 25.9019 7.69964 27.0519 9.47601C22.8842 16.3591 19.6092 9.15138 14.6088 9.56111C14.6088 12.0424 13.5234 15.7827 14.8505 17.1094C17.1254 19.3835 20.9087 20.1486 24.2656 21.8611C31.2375 24.9924 29.2865 31.6036 29.6403 36.478C29.779 38.389 24.2608 40.7107 21.3188 42.8453Z" fill="#202135"/>
</svg>
