<svg width="31" height="53" viewBox="0 0 31 53" fill="none" xmlns="http://www.w3.org/2000/svg">
<path d="M1.98096 34.4487C1.38196 34.2057 0.782959 33.9626 0.0153809 33.4214C3.98709 27.9844 8.11786 22.8378 12.2705 17.7089C15.8169 13.3286 19.2821 8.87531 22.9991 4.64386C24.5778 2.84662 26.7073 1.53326 28.5865 0C29.0951 0.442444 29.6038 0.884949 30.1124 1.32739C28.7807 3.82574 27.8636 6.68762 26.0462 8.76025C17.7485 18.2233 14.5266 29.0878 15.9695 41.5129C16.2745 44.1402 16.0024 46.8345 15.5992 50.0159C9.93301 52.9408 4.76654 53.9359 0 49.4288C0.024872 48.6821 0.0497432 47.9355 0.0419312 46.8179C0.00921615 46.4471 0.0183107 46.4769 0.286835 46.3176C0.794922 45.5831 1.03448 45.0081 1.55792 44.2406C3.67319 39.5356 5.50461 35.023 7.33603 30.5103C6.92197 30.2939 6.5079 30.0775 6.09387 29.861C4.7229 31.3903 3.35193 32.9195 1.98096 34.4487Z" fill="#263547"/>
</svg>
