<svg width="13" height="14" viewBox="0 0 13 14" fill="none" xmlns="http://www.w3.org/2000/svg">
<path d="M9.35868 11.1743C7.64967 11.9695 6.21424 12.738 4.69987 13.8749C0.482891 11.8195 -1.08461 8.43214 0.769878 3.40998C3.53267 2.0337 6.22816 1.03513 9.28996 0.00470741C9.65626 -0.0271526 9.7686 0.101295 9.62071 0.433235C3.35261 5.18336 2.88578 6.35361 5.79902 9.99152C8.12507 8.45127 10.4471 6.90485 12.7609 5.69932C12.7515 6.72629 12.7503 7.41236 12.6368 8.34745C12.2492 9.06599 11.9738 9.53553 11.6984 10.005C11.3778 10.1157 11.1181 10.3085 10.8244 10.8096C10.3637 11.0731 9.99797 11.1103 9.35868 11.1743Z" fill="#150506"/>
</svg>
