<svg width="56" height="24" viewBox="0 0 56 24" fill="none" xmlns="http://www.w3.org/2000/svg">
<path d="M55.0293 20.8877C55.019 21.6629 55.0088 22.4382 54.6781 23.5722C53.9308 23.9003 53.5039 23.8696 52.9334 23.6412C52.544 23.1964 52.2469 23.0808 51.4734 23.0687C33.2473 20.674 15.7642 17.2313 0 7.96721C5.50217 2.47808 11.6644 -1.32972 20.4975 0.4368C21.0912 0.720553 21.5431 0.910616 21.5431 0.910616L22.0332 0.899203C22.7352 1.00337 23.4373 1.10755 24.7444 1.50194C27.5728 2.52425 29.7961 3.25634 32.0108 3.98149C32.0021 3.97457 31.9829 3.96337 32.1132 4.25463C32.8356 4.69232 33.4278 4.83873 34.0115 4.97989C34.0031 4.97464 33.9891 4.9606 33.9679 5.3142C40.9742 10.7411 48.0018 15.8144 55.0293 20.8877Z" fill="#CC2A2D"/>
</svg>
