<svg width="44" height="49" viewBox="0 0 44 49" fill="none" xmlns="http://www.w3.org/2000/svg">
<path d="M0 0C4.94836 11.2646 9.87259 22.9445 14.7984 34.6239C15.3064 35.8284 15.8235 37.0291 16.6147 38.8615C17.7158 41.797 18.5386 44.1025 19.7844 47.593C20.5924 45.4646 20.9023 44.6482 21.55 43.7457C28.7692 39.8296 35.4492 35.3728 43.9467 36.5751C41.9008 37.5565 39.8656 38.5614 37.8064 39.5144C33.8939 41.325 29.9678 43.106 25.5967 45.2736C22.4505 46.6464 19.755 47.645 17.0595 48.6435C17.0595 48.6435 16.9668 48.186 16.9579 47.5691C15.9913 45.5151 15.0337 44.0781 14.0761 42.641C14.0155 42.2382 13.955 41.8354 13.826 40.8794C13.5108 40.1065 13.2639 39.8869 13.0169 39.6673C12.6481 38.6094 12.2794 37.5514 11.8351 35.9081C11.515 35.1039 11.2704 34.8851 11.0258 34.6662C10.6541 33.6074 10.2824 32.5486 9.83875 30.9076C9.61133 30.0179 9.37396 29.7993 9.05472 29.6698C9.00293 29.2592 8.95114 28.8486 8.82758 27.8796C8.50583 27.1026 8.25589 26.8842 8.00595 26.6656C7.67667 25.8772 7.34741 25.0888 7.21985 23.8109C6.97235 22.7607 6.52316 22.2 6.07397 21.6394C5.73483 20.8515 5.39566 20.0636 5.04553 18.9507C4.88821 17.1357 5.32019 14.9931 4.49866 14.2653C0.193084 10.4506 1.28326 5.07367 0 0Z" fill="#040407"/>
</svg>
