<svg width="21" height="6" viewBox="0 0 21 6" fill="none" xmlns="http://www.w3.org/2000/svg">
<path d="M0.186737 1.90447C0.186737 1.90447 0.04541 1.51775 0 1.31731C5.29248 -2.1234 9.90021 2.21077 14.8835 2.66866C16.6286 2.82903 18.2535 4.29851 20.0127 5.55226C20.0922 5.93434 20.0274 6.00383 19.6957 6.00359C18.9224 6.00511 18.4807 6.00685 18.0391 6.00859C18.0391 6.00859 17.6593 5.8795 17.2425 5.65593C16.233 5.30135 15.6403 5.17037 15.0475 5.03935C14.6879 4.95497 14.3282 4.87059 13.4071 4.54494C10.9038 3.84215 8.96194 3.38066 7.02005 2.91915C7.02005 2.91915 6.66632 2.81786 6.16846 2.5985C3.84265 2.22093 2.01468 2.0627 0.186737 1.90447Z" fill="#150506"/>
</svg>
