<svg width="23" height="11" viewBox="0 0 23 11" fill="none" xmlns="http://www.w3.org/2000/svg">
<path d="M4.85251 10.2074C3.33508 10.0191 1.81766 9.83083 0 9.40753C1.24539 9.00558 2.79105 8.83864 5.43546 8.55301C3.92676 7.16281 3.10352 6.40419 2.36017 5.35977C2.92123 4.39674 3.40237 3.71951 3.88416 2.65463C3.89508 1.49173 3.90536 0.716507 4.27304 0C9.05145 1.71167 13.4725 3.36459 17.8911 5.02283C17.8886 5.02814 17.896 5.01923 18.0422 5.27948C18.7516 5.69847 19.3149 5.85721 20.1199 5.9245C20.8062 5.5743 21.2507 5.31554 21.6953 5.05678C21.9331 5.30377 22.1708 5.55075 22.6556 6.31465C22.8997 7.91754 22.8968 9.00353 22.4327 10.0982C18.2746 10.1177 14.5777 10.1286 10.4537 10.0838C8.30194 10.088 6.57721 10.1477 4.85251 10.2074Z" fill="#8F2D31"/>
</svg>
