<svg width="418" height="500" viewBox="0 0 418 500" fill="none" xmlns="http://www.w3.org/2000/svg">
<path d="M6.75921 166.201C7.96792 180.269 8.25118 194.494 10.5948 208.37C14.4405 231.141 19.6236 253.686 23.8428 276.732C22.6641 276.483 21.4354 275.972 21.1757 275.153C18.5035 266.73 15.5908 258.353 13.5426 249.772C11.5576 241.456 10.6213 232.894 8.97451 224.489C8.4801 221.966 7.14837 219.606 6.10363 216.849C6.01852 216.082 6.02999 215.637 6.33972 214.91C6.72924 211.835 7.11669 209.014 6.86099 206.253C5.69412 193.654 4.13787 181.088 3.13509 168.477C2.42837 159.59 2.52456 150.641 1.97674 141.737C1.75912 138.199 0.770868 134.708 0.0545588 130.863C0.0166868 130.075 0.0576722 129.622 0.390313 128.874C0.479119 123.446 0.2763 118.314 0.000420612 112.767C-0.00611039 110.955 0.0604492 109.558 0.409356 107.869C1.68099 94.9101 2.67031 82.2432 3.65963 69.5764C4.08923 69.5823 4.51885 69.5883 4.94845 69.5942C5.01425 70.5623 5.08819 71.5298 5.14449 72.4985C5.44814 77.7241 5.74743 82.9499 6.06658 88.6417C6.01962 93.7936 5.95431 98.4793 5.51376 103.278C4.78429 104.251 4.12481 105.11 4.12118 105.971C4.05654 121.214 4.0314 136.458 4.14916 151.7C4.1582 152.869 5.29742 154.03 5.95141 155.617C5.44738 159.937 7.12124 161.714 11.1386 161.684C11.8974 162.421 12.524 162.966 13.2475 163.174C20.0407 165.124 26.8545 167.002 33.6534 168.933C36.1373 169.638 38.5975 170.427 41.0668 171.178C41.0651 171.18 41.0673 171.176 41.1197 171.522C42.1448 172.298 43.1174 172.728 44.0763 173.167C44.0627 173.176 44.0854 173.149 44.1301 173.498C45.1454 174.286 46.1161 174.724 47.0753 175.169C47.0639 175.177 47.0825 175.154 47.1149 175.514C48.4635 176.633 49.7797 177.393 51.0791 178.162C51.0622 178.173 51.0921 178.142 51.1197 178.503C52.4579 179.632 53.7683 180.4 55.072 181.174C55.0651 181.18 55.0767 181.163 55.1046 181.511C57.7312 186.018 60.9709 189.333 66.3103 190.263C66.8056 190.543 66.9943 190.794 67.1202 191.47C68.4119 192.628 69.6794 193.425 71.2491 194.363C73.7303 196.711 75.9094 198.919 78.1137 201.479C79.1668 202.587 80.1947 203.342 81.4905 204.217C82.8644 203.952 83.9703 203.567 85.4214 203.127C86.189 202.096 86.6116 201.12 87.0516 200.157C87.069 200.17 87.0287 200.161 87.266 200.045C87.6674 199.627 87.8314 199.324 88.0032 198.81C88.011 198.599 88.0902 198.184 88.4377 198.126C89.1918 197.068 89.5984 196.07 90.0227 194.848C90.0403 194.626 90.1339 194.189 90.474 194.127C91.2203 193.083 91.6266 192.1 92.0608 190.801C92.4283 189.715 92.7678 188.945 93.328 188.05C93.7 187.628 93.8513 187.332 94.0111 186.694C94.3907 185.293 94.762 184.234 95.3483 183.049C95.7121 182.632 95.8609 182.341 96.0151 181.738C96.0723 181.016 96.1242 180.605 96.5124 180.124C97.6109 177.438 98.373 174.821 99.1629 171.806C99.5453 169.003 99.8998 166.598 100.619 164.086C101.02 160.716 101.057 157.453 101.077 153.736C101.073 150.243 101.086 147.204 101.369 143.916C101.208 141.832 100.779 139.998 100.281 137.702C100.264 127.56 100.316 117.881 100.659 108.132C100.995 107.105 101.042 106.147 101.08 104.813C101.136 103.691 101.199 102.944 101.581 102.123C101.365 100.779 101.059 98.6036 100.255 98.4C97.2698 97.6445 94.1249 97.3707 91.0301 97.2869C90.0531 97.2606 89.0448 98.3959 87.8207 99.0627C87.5906 99.126 87.1187 99.1977 86.8909 99.2857C86.3761 99.5545 86.1779 99.8054 85.8518 100.172C85.6354 100.218 85.1941 100.253 84.7623 100.228C82.537 100.008 80.7345 99.616 78.9539 99.6983C77.9697 99.7437 77.0222 100.585 75.8143 101.271C74.7007 102.362 73.831 103.25 72.5673 104.149C69.8034 104.167 67.4336 104.174 64.7324 104.174C63.9615 104.122 63.5221 104.076 63.0248 103.721C62 103.333 61.0331 103.254 59.7164 103.181C58.2615 102.873 57.1565 102.559 56.0584 101.863C56.0847 100.975 56.1039 100.468 56.5138 99.9901C57.9469 100.064 58.9891 100.107 60.4384 100.185C62.7952 100.551 64.8539 100.593 66.6738 101.274C71.5022 103.079 72.3675 100.017 72.9997 96.4836C73.2872 94.877 73.5691 93.2695 73.9795 90.9507C76.1225 93.3411 77.2638 95.4803 79.027 96.3318C80.7149 97.147 83.8425 97.5085 84.9453 96.5187C87.8778 93.8864 90.8037 93.7115 94.1407 94.7592C98.424 96.104 100.39 94.1226 99.9749 90.1535C99.5188 85.7935 101.366 82.9423 104.415 80.2993C106.154 78.792 107.559 76.899 109.427 75.0103C110.555 71.6112 110.809 68.0843 112.322 65.2236C114.427 61.2435 114.21 57.811 112.404 54.181C117.756 52.9534 117.302 48.6667 117.974 44.7055C118.041 43.9988 118.097 43.5966 118.435 43.1569C118.845 42.4771 118.973 41.8348 119.136 40.8435C120.16 38.3933 121.149 36.2919 122.468 34.1338C123.548 32.1087 124.298 30.1403 125.091 27.8235C126.13 25.38 127.125 23.2848 128.468 21.1251C129.198 20.044 129.581 19.0276 129.981 17.7062C130.066 16.9995 130.134 16.5979 130.537 16.1257C131.249 15.0589 131.625 14.0627 132.017 12.8451C132.032 12.6237 132.121 12.189 132.466 12.1256C133.203 11.0547 133.593 10.0471 133.995 8.82318C134.006 8.60672 134.082 8.1799 134.308 8.05273C134.686 7.62161 134.838 7.31762 134.994 6.80365C134.998 6.5936 135.074 6.18023 135.302 6.05328C135.682 5.62045 135.834 5.31451 136.001 4.64923C136.448 2.92663 136.881 1.56341 137.635 0.122251C143.681 0.0148293 149.408 -0.051669 155.131 0.051481C155.461 0.057432 155.767 1.4433 155.892 2.31311C155.461 2.64468 155.296 2.8981 154.928 3.10113C154.135 2.72732 153.621 2.45184 152.844 1.93957C146.261 0.993925 142.738 4.1579 139.752 9.5502C129.297 28.4266 122.732 48.8859 116.044 69.1681C114.306 74.4385 113.483 79.933 110.821 85.1924C108.601 89.5784 108.719 95.1479 107.562 100.496C106.909 106.564 106.124 112.331 106.161 118.092C106.232 129.181 106.491 140.285 107.207 151.348C107.719 159.274 109.898 166.883 114.751 174.978C118.893 168.612 122.526 163.028 126.448 157.253C130.417 151.948 134.169 146.882 137.728 141.684C138.52 140.527 138.95 138.921 139.017 137.497C140.084 115.003 144.71 93.1848 151.349 71.7414C152.118 69.2565 152.956 66.793 153.763 64.3196C154.204 64.4289 154.645 64.5381 155.086 64.6473C150.369 95.0287 149.685 125.613 149.899 156.649C149.552 164.335 149.15 171.616 149.015 178.901C148.882 186.127 151.495 188.011 158.469 185.839C160.184 185.305 161.906 184.445 163.319 183.342C177.915 171.95 185.164 156.342 186.884 138.474C188.041 126.449 187.097 114.218 187.006 102.08C186.994 100.462 186.473 98.8484 186.185 96.7608C186.329 70.9396 184.62 45.5414 188.387 20.2585C188.597 20.2354 189.02 20.1931 189.031 20.6608C189.489 47.7686 189.937 74.4086 190.299 101.475C190.213 109.782 190.213 117.663 190.213 125.544C190.697 125.577 191.18 125.611 191.664 125.645C193.894 122.19 196.023 118.665 198.372 115.293C207.408 102.32 215.881 88.998 221.418 74.1225C223.249 69.2031 223.664 63.7564 224.726 58.5508C224.383 58.5142 224.039 58.4776 223.696 58.441C219.717 67.0164 215.739 75.5919 211.76 84.1673C211.303 83.9639 210.845 83.7604 210.388 83.5571C212.569 78.1203 215.013 72.772 216.875 67.228C220.523 56.3598 220.114 45.7122 214.24 35.5594C209.229 26.8995 203.261 19.0814 195.289 13.1015C199.952 10.3521 194.911 8.37173 195.43 6.08319C196.192 6.1434 196.63 6.15536 197.195 6.47729C205.244 16.9129 213.165 27.0386 221.078 37.5591C223.847 44.2582 226.808 50.4902 229.34 56.8917C231.069 61.2642 233.955 62.0034 237.953 60.7217C248.131 57.4587 256.003 50.9002 263.188 42.8431C266.213 38.5292 269.073 34.5064 271.945 30.4926C277.296 23.0168 282.653 15.5462 288.172 8.33331C288.894 8.78506 289.453 8.97693 290 9.4899C290.34 10.2614 290.692 10.7119 291.391 11.1736C292.203 11.2051 292.667 11.2253 292.997 11.5577C291.645 12.9471 290.342 13.9426 289.226 15.1166C285.823 18.6978 281.714 21.893 279.283 26.0578C272.469 37.734 265.351 49.0449 255.431 58.4358C252.09 61.5989 248.395 65.112 246.786 69.219C244.062 76.174 242.867 83.7285 240.761 90.8207C238.683 85.928 236.874 81.2455 235.065 76.563C234.455 76.7025 233.846 76.842 233.236 76.9814C233.821 85.1099 234.122 93.267 236.785 101.614C238.638 109.26 239.808 116.719 242.374 123.662C248.35 139.826 256.237 155.239 259.78 172.35C261.544 180.866 265.101 189.01 267.887 197.756C268.231 203.499 268.536 208.807 268.602 214.403C268.042 215.972 267.604 217.238 267.415 218.539C265.595 231.115 263.622 243.673 262.13 256.288C261.598 260.789 262.406 261.079 266.671 260.292C267.023 255.686 267.376 251.079 267.728 246.473C268.511 246.522 269.294 246.571 270.077 246.62C270.077 249.165 270.065 251.709 270.079 254.254C270.127 263.229 271.148 264.232 280.503 264.207C284.61 264.592 288.315 264.838 292.006 265.225C295.794 265.623 297.537 264.078 297.459 260.253C299.568 261.229 301.325 262.188 303.516 263.176C304.946 263.182 305.952 263.24 306.937 263.122C315.72 262.067 315.554 262.084 314.171 253.245C311.913 238.818 309.36 224.35 316.746 210.435C317.705 208.627 317.625 206.267 318.201 203.819C319.824 197.247 321.842 191.275 318.627 184.683C316.747 180.827 316.823 176.014 316.052 171.625C315.817 170.283 315.694 168.922 315.476 167.231C311.507 177.246 307.759 186.703 303.725 196.337C301.758 199.15 300.321 201.989 298.341 204.378C294.885 208.546 295.264 212.936 296.308 217.803C297.613 223.883 298.28 230.1 298.95 236.08C298.203 234.976 297.73 234.049 297.207 232.709C295.339 224.06 293.812 215.741 291.485 207.653C290.947 205.78 287.826 203.956 285.609 203.505C284.147 203.208 281.021 205.151 280.714 206.547C280.285 208.5 281.48 211.04 282.528 213.042C284.869 217.517 287.549 221.815 289.749 226.15C284.59 220.464 279.774 214.814 274.93 208.766C273.706 203.282 272.509 198.195 271.269 192.708C267.992 179.467 264.345 166.693 265.03 152.851C265.849 149.6 266.449 146.7 267.309 143.878C270.135 134.598 273.056 125.347 276.013 115.715C279.786 104.332 282.49 93.1588 282.194 81.4068C282.116 78.3206 282.695 75.2178 283.321 72.1368C284.131 72.1613 284.595 72.1717 285.067 72.6439C284.379 82.0096 284.268 91.0098 282.825 99.7912C281.255 109.345 278.448 118.696 276.082 128.519C274.5 135.666 272.934 142.414 271.552 149.199C269.242 160.54 272.283 170.163 281.126 177.786C286.489 182.41 293.57 182.307 299.116 177.695C299.954 176.997 301.101 176.671 302.077 176.539C299.9 180.842 297.751 184.779 295.602 188.716C295.981 189.037 296.359 189.359 296.737 189.68C298.826 187.558 301.35 185.717 302.933 183.267C312.856 167.911 316.655 150.517 317.873 132.708C319.18 113.582 316.302 94.6357 312.504 75.885C310.765 67.2995 308.871 58.7455 307.339 50.376C309.142 54.4343 311.01 58.1962 312.095 62.1716C315.544 74.808 318.702 87.524 321.975 100.664C322.688 119.121 323.4 137.123 324.132 155.656C329.294 138.963 331.66 122.233 332.019 104.747C331.703 101.271 331.365 98.2116 331.053 94.7117C330.084 87.2322 329.498 80.1069 328.023 73.1704C323.353 51.1985 315.942 30.1249 306.265 9.47818C303.959 5.14941 303.258 5.22543 297.626 10.0706C295.889 10.4915 294.511 10.8684 293.086 10.8959C293.002 10.3148 292.965 10.083 293.04 9.67602C293.347 9.28857 293.586 9.15576 294.245 9.10107C296.483 8.09976 298.529 7.33282 300.171 6.04947C303.249 3.64441 306.074 3.54825 309.126 6.46991C309.565 7.86014 309.854 8.94324 310.121 10.428C312.434 15.9415 314.769 21.0533 317.357 26.3979C318.118 28.4225 318.626 30.214 319.195 32.2534C319.503 32.7238 319.75 32.9464 320.04 33.4714C320.102 34.1802 320.121 34.5866 320.202 35.2474C320.521 35.7261 320.777 35.9504 321.187 36.4775C321.601 37.8632 321.861 38.946 322.188 40.2726C322.502 40.7338 322.749 40.951 323.158 41.4955C324.221 44.6128 325.122 47.403 325.805 50.3597C326.024 51.0826 326.461 51.6389 326.958 52.5373C327.066 53.572 327.113 54.2643 327.211 55.2135C327.508 55.7031 327.754 55.9359 328.042 56.473C328.101 57.1857 328.118 57.5944 328.197 58.2535C328.511 58.7263 328.763 58.9486 329.156 59.4232C329.875 60.1723 330.451 60.6692 331.246 61.0812C331.741 60.8271 331.933 60.5893 332.255 60.1346C332.691 59.7178 332.911 59.4491 333.515 59.0874C335.554 54.9552 336.399 50.9636 333.16 46.8726C333.099 46.084 333.085 45.6319 333.332 44.9681C333.409 43.5605 333.225 42.3645 333.038 40.8055C334.688 38.6813 336.341 36.92 338.225 35.0712C338.748 34.8026 338.95 34.549 339.337 34.062C340.731 33.3157 341.846 32.7305 343.199 32.0643C343.645 31.7282 343.853 31.4733 344.271 31.178C344.482 31.1377 344.91 31.1229 345.167 31.04C345.63 30.6707 345.835 30.3842 346.206 29.7475C346.658 27.3302 346.945 25.2631 347.571 23.1447C349.96 22.1295 352.008 21.1655 354.225 20.1248C354.393 20.0481 354.762 20.0619 355.185 20.101C357.766 19.2351 359.923 18.3302 362.444 17.3273C363.556 17.1982 364.305 17.1672 365.057 17.4832C365.067 18.2934 365.075 18.7564 364.845 19.4866C358.128 22.2751 349.978 22.7126 348.876 32.4654C346.824 33.8508 345.074 35.1797 343.119 36.0477C338.674 38.0219 336.015 40.8981 337.119 46.5734C336.634 58.8125 338.185 69.7514 349.209 76.8977C350.281 77.5927 351.139 78.7495 351.829 79.8581C352.321 80.6477 352.365 81.7164 352.897 83.7751C346.028 77.7105 340.091 72.4686 334.155 67.2266C333.561 67.6835 332.967 68.1405 332.373 68.5975C333.428 70.7856 333.939 73.6245 335.636 75.0443C341.639 80.0638 346.15 87.4544 355.076 88.3975C355.065 88.832 355.063 89.0059 354.609 89.1797C351.428 89.1946 348.699 89.2095 345.677 89.0696C342.029 85.8809 338.674 82.847 335.319 79.8131C334.903 80.1664 334.487 80.5197 334.071 80.8729C334.071 83.3054 334.071 85.7378 333.793 88.422C334.014 90.5107 334.514 92.3477 335.043 94.5155C335.073 95.2892 335.072 95.732 334.789 96.4343C334.979 98.8584 335.451 101.023 335.966 103.654C335.94 113.137 335.871 122.154 335.507 131.234C335.16 132.258 335.109 133.218 335.058 134.511C335.014 135.285 334.969 135.726 334.613 136.223C334.229 137.25 334.155 138.22 334.09 139.564C334.036 140.682 333.973 141.426 333.603 142.226C333.209 143.244 333.123 144.206 333.041 145.503C333.002 146.282 332.958 146.726 332.605 147.226C332.223 148.251 332.15 149.219 332.08 150.562C332.007 151.68 331.932 152.423 331.586 153.21C331.229 153.895 331.143 154.535 331.054 155.51C330.998 156.284 330.945 156.725 330.615 157.208C330.256 157.898 330.172 158.546 330.084 159.525C330.027 160.295 329.975 160.734 329.574 161.254C328.863 162.664 328.5 163.993 328.13 165.631C328.066 166.351 328.01 166.761 327.64 167.223C326.91 168.579 326.494 169.883 326.052 171.481C325.706 172.244 325.386 172.712 324.835 173.306C324.446 173.737 324.288 174.043 324.125 174.558C324.12 174.768 324.044 175.182 323.819 175.305C323.435 175.726 323.275 176.022 323.105 176.538C323.095 176.756 323.015 177.187 322.795 177.313C322.423 177.736 322.272 178.033 322.112 178.754C322.762 183.179 323.421 187.178 323.813 191.399C324.198 192.783 324.728 194.043 325.542 195.081C326.225 195.952 327.239 196.562 328.106 197.288C324.186 199.096 323.316 202.356 322.923 206.418C321.28 223.409 321.881 240.086 325.823 256.868C331.331 280.322 330.404 304.42 331.135 328.336C331.551 341.953 331.929 355.662 333.873 369.106C335.042 377.194 335.182 386.724 344.551 392.095C345.752 393.138 346.517 393.798 347.281 394.459C351.553 398.907 355.825 403.355 360.519 408.214C361.606 409.202 362.27 409.779 362.934 410.355C362.934 410.355 363.007 410.238 363.035 410.551C364.035 411.733 365.007 412.602 365.979 413.471C367.121 414.633 368.264 415.796 369.865 417.38C375.24 421.185 380.156 424.569 385.072 427.953C385.835 428.387 386.599 428.82 387.903 429.554C391.319 430.92 394.193 431.986 397.068 433.052C400.494 434.394 403.921 435.735 407.895 437.33C409.229 438.15 410.016 438.716 410.802 439.282C412.544 442.633 414.216 446.023 416.047 449.324C417.906 452.677 417.559 455.607 414.277 458.652C412.866 459.721 411.941 460.373 411.016 461.026C389.196 466.754 367.553 464.959 345.935 459.705C341.387 458.599 340.073 455.318 338.747 451.021C338.296 449.98 338.046 449.498 337.796 449.017C335.313 447.901 332.831 446.786 329.927 445.481C327.866 451.166 323.695 450.27 319.299 449.379C310.178 447.532 301.009 445.92 291.145 444.143C289.975 444.098 289.521 444.122 289.066 444.146C288.669 443.374 288.271 442.601 287.822 441.06C287.754 437.251 287.738 434.211 287.722 431.171C288.263 422.09 288.736 413.004 289.408 403.933C289.534 402.238 290.46 400.603 291.097 398.234C290.809 396.745 290.44 395.961 290.071 395.178C290.063 393.69 289.744 392.121 290.102 390.727C291.688 384.555 293.525 378.447 295.133 372.28C295.453 371.053 295.305 369.651 295.14 368.359C292.521 347.851 286.718 328.55 274.186 311.662C266.586 301.42 261.34 289.902 257.71 277.733C256.098 272.329 253.088 266.764 256.931 260.9C257.535 259.979 256.995 258.294 256.948 256.963C256.477 243.592 257.621 230.443 262.24 217.755C262.599 216.768 262.643 215.666 262.834 214.617C262.485 214.237 262.135 213.858 261.786 213.478C259.087 215.313 255.944 216.729 253.76 219.049C231.663 242.513 203.077 246.911 172.339 246.841C171.546 246.798 171.356 246.83 171.166 246.861C161.373 243.675 151.579 240.489 141.116 237.166C140.616 237.503 140.787 237.976 140.957 238.45C140.583 239.977 139.902 241.501 139.889 243.03C139.826 250.682 139.011 258.479 140.172 265.96C143.039 284.428 133.75 298.707 125.311 313.415C124.321 315.14 123.145 316.758 121.652 318.891C120.193 320.965 119.138 322.572 118.083 324.18C103.191 344.476 92.4717 366.41 91.7843 392.168C91.7138 394.81 93.58 397.625 93.1433 400.113C91.9239 407.059 92.2813 413.975 91.9432 421.226C91.1168 422.085 90.7548 422.636 90.3928 423.188C90.3899 430.539 90.3868 437.89 90.3328 446.146C90.5311 450.095 90.7803 453.139 91.0295 456.183C90.4752 458.231 89.921 460.279 88.9231 462.782C87.9655 463.775 87.4516 464.313 86.9377 464.851C85.9153 465.514 84.8928 466.178 83.352 467.234C82.2483 468.81 81.6629 469.995 81.0774 471.18C80.9751 474.592 80.878 478.004 80.769 481.416C80.6646 484.683 79.9867 487.463 76.3377 488.75C72.3255 490.165 68.448 491.962 63.9833 493.854C62.9705 494.413 62.4863 494.711 62.0022 495.009C45.259 501.389 28.7888 499.799 12.3379 493.649C3.54513 490.362 1.82125 486.746 5.69778 475.839C7.41668 471.002 11.1444 466.713 14.5491 462.672C26.87 448.046 36.4462 431.769 44.3898 414.463C45.9915 410.973 48.0921 407.905 43.9293 403.984C42.6364 402.765 44.0499 396.37 46.1511 394.406C49.1371 391.615 50.2608 388.596 50.7738 385.123C51.3064 381.517 51.1753 377.813 51.546 373.599C52.1005 371.755 52.4438 370.464 52.787 369.173C53.1801 359.15 53.5732 349.128 53.9511 338.391C53.8743 337.509 53.8126 337.341 53.751 337.173C52.025 325.692 50.0048 314.245 48.6598 302.72C47.4306 292.186 47.0214 281.559 46.0751 270.988C45.5761 265.414 45.4884 259.818 48.2969 254.912C55.4858 242.353 61.0328 228.706 72.0462 218.607C74.9714 215.924 77.4288 212.732 80.7847 209.016C73.3664 202.48 66.1737 196.142 58.4807 189.395C55.3448 187.043 52.7092 185.1 50.0736 183.157C38.6721 172.504 24.9914 167.138 8.98913 165.564C7.83056 165.678 7.29488 165.939 6.75921 166.201ZM71.674 486.157C72.1432 485.839 72.6125 485.521 73.5692 485.175C73.8455 485.047 74.1218 484.919 74.398 484.791C73.9452 484.912 73.4925 485.033 72.4478 485.203C71.9794 485.521 71.5109 485.84 70.5607 486.188C70.2862 486.313 70.0117 486.438 69.7373 486.563C70.1848 486.442 70.6323 486.321 71.674 486.157ZM64.778 489.206C65.6457 488.835 66.5133 488.464 67.3809 488.093C67.1406 487.696 66.9002 487.299 66.6599 486.901C65.7767 487.642 64.8935 488.383 63.5286 489.171C63.2576 489.307 62.9866 489.443 62.7155 489.579C63.1772 489.462 63.6389 489.345 64.778 489.206ZM321.064 274.183C321.064 274.183 321.07 274.164 320.218 274.145C315.493 274.834 310.768 275.523 306.486 275.672C308.339 274.878 310.192 274.085 312.636 273.151C313.04 273.128 313.443 273.104 314.612 273.15C315.77 272.585 316.927 272.02 318.638 271.251C319.026 271.195 319.414 271.139 320.315 271.007C320.559 270.777 320.803 270.546 321.438 270.152C321.438 270.152 321.858 270.108 322.356 270.007C322.586 269.771 322.817 269.535 323.54 268.782C323.676 267.372 323.812 265.963 323.829 263.885C322.745 262.318 321.717 261.332 320.712 264.287C320.712 264.287 320.345 264.285 319.841 264.34C319.592 264.554 319.343 264.767 318.628 265.146C318.628 265.146 318.138 265.211 317.536 265.212C317.05 265.508 316.564 265.805 315.699 266.253C315.699 266.253 315.292 266.28 314.406 266.21C310.651 267.148 306.896 268.087 302.349 269.178C301.274 269.214 300.199 269.25 298.602 268.68C296.08 268.861 293.558 269.042 290.167 269.267C288.138 269.198 286.11 269.128 283.924 268.37C282.29 268.336 280.655 268.3 278.272 268.27C277.53 268.189 276.787 268.108 275.665 267.417C274.027 267.055 272.39 266.694 270.183 266.349C269.809 266.286 269.435 266.223 268.672 265.648C268.051 265.534 267.43 265.419 266.218 265.312C265.83 265.244 265.443 265.177 264.674 264.626C264.081 264.504 263.487 264.382 262.472 264.245C262.472 264.245 262.066 264.133 261.917 263.822C261.646 263.866 261.375 263.909 260.508 264.321C260.261 264.964 260.013 265.608 259.423 266.588C259.614 267.115 259.805 267.641 260.214 268.832C261.827 269.645 263.441 270.457 265.063 271.913C265.063 272.343 265.064 272.773 264.401 273.146C262.059 272.372 261.643 273.642 262.313 275.4C265.141 282.819 267.573 290.451 271.118 297.52C276.017 307.29 281.886 316.569 287.162 326.157C294.226 338.995 297.688 353.05 299.413 367.397C300.194 373.885 303.917 374.585 308.632 375.133C310.109 375.305 311.626 375.129 314.021 375.148C316.974 374.907 319.927 374.456 322.878 374.474C327.43 374.502 328.442 372.098 328.089 368.11C327.579 362.353 327.359 356.57 326.965 350.802C325.338 326.925 323.692 303.05 322.805 279.158C323.534 278.37 324.262 277.581 324.991 276.792C324.047 275.926 323.104 275.06 321.94 273.847C321.642 273.96 321.344 274.073 321.064 274.183ZM338.151 441.922C338.785 443.256 339.73 444.53 340.002 445.934C341.523 453.8 346.81 457.101 354.191 458.016C356.325 458.281 358.453 458.793 360.587 458.811C374.14 458.924 387.71 459.315 401.238 458.748C405.584 458.566 409.821 455.763 414.108 454.159C413.929 453.613 413.75 453.067 413.571 452.521C412.96 452.478 412.273 452.231 411.75 452.425C407.709 453.921 403.805 455.912 399.66 456.982C387.06 460.233 374.398 459.586 361.743 456.95C352.098 454.942 342.663 452.814 340.204 441.086C340.126 440.716 339.461 440.469 339 439.468C333.485 427.378 322.576 425.32 311.169 425.364C304.955 425.388 301.232 422.976 298.287 418.039C297.228 416.264 295.64 414.803 293.735 412.534C291.956 423.792 295.714 431.587 309.58 431.122C320.468 430.757 330.303 432.866 338.151 441.922ZM88.5909 273.195C88.4136 273.21 88.2363 273.226 87.5145 273.073C87.1386 273.026 86.7626 272.98 85.9358 272.475C85.3189 272.369 84.702 272.262 83.494 271.733C73.2808 268.171 63.0675 264.608 52.8542 261.046C52.3739 261.418 51.8936 261.79 51.4133 262.162C52.4043 264.208 52.9136 267.491 54.4658 268.096C63.3919 271.57 72.565 274.409 82.0249 277.874C82.3772 277.945 82.7295 278.016 83.7095 278.257C84.3542 278.331 84.9988 278.406 86.0188 278.886C86.3722 278.951 86.7256 279.015 87.6524 279.23C88.045 279.268 88.4377 279.305 89.3246 279.844C90.2382 279.96 91.1518 280.075 92.6084 280.349C92.9831 280.374 93.3579 280.4 94.3056 280.936C96.7068 281.553 99.0751 282.414 101.515 282.746C110.534 283.971 119.562 285.185 128.625 285.955C129.956 286.068 131.492 283.759 132.934 282.57C131.6 281.491 130.417 279.902 128.896 279.449C126.557 278.751 123.974 278.923 121.517 278.568C111.694 277.152 101.881 275.676 91.4974 273.948C90.6919 273.768 89.8863 273.587 88.5909 273.195ZM252.737 214.196C254.803 212.549 256.8 210.806 258.947 209.274C264.975 204.975 265.128 204.66 262.67 197.446C258.823 186.152 254.947 174.868 251.082 163.58C250.275 161.221 249.465 158.863 248.656 156.505C248.197 156.606 247.737 156.707 247.278 156.808C247.865 166.261 248.453 175.715 248.326 185.173C247.615 185.154 246.904 185.135 246.134 184.255C245.45 179.167 245.074 174.015 244.021 169.005C241.375 156.414 242.683 143.461 238.381 130.833C232.551 113.72 229.068 95.8074 224.557 78.1544C223.425 80.4048 222.23 83.2316 220.657 85.829C214.287 96.3433 207.792 106.781 201.36 117.259C196.676 124.89 191.809 132.369 191.039 141.744C190.07 153.548 186.395 164.733 179.433 174.213C170.41 186.499 160.726 198.355 150.607 209.759C145.185 215.871 141.803 222.462 140.104 230.597C152.616 238.55 166.319 242.779 180.989 243.031C196.494 243.299 210.991 238.266 225.445 233.154C235.292 229.671 243.669 224.423 250.746 216.123C251.183 215.539 251.62 214.955 252.737 214.196ZM134.05 252.233C134.056 249.57 134.328 246.876 134.023 244.248C132.58 231.823 135.802 220.959 144.1 211.496C145.917 209.423 146.834 206.561 148.166 204.063C147.657 203.62 147.149 203.178 146.64 202.735C144.761 204.269 142.631 205.582 141.053 207.379C137.336 211.611 133.871 216.064 130.324 220.444C126.172 225.573 122.041 230.72 117.238 236.067C114.386 239.228 111.534 242.39 108.683 245.552C108.496 245.446 108.309 245.341 108.123 245.236C109.136 242.593 110.149 239.95 111.835 237.171C112.732 236.468 113.787 235.897 114.501 235.041C120.638 227.683 126.777 220.326 132.787 212.864C137.988 206.407 143.001 199.804 144.12 190.327C144.361 183.259 144.603 176.191 144.951 168.201C144.951 163.082 144.951 157.963 144.951 152.844C144.556 152.419 144.162 151.994 143.767 151.569C141.846 152.811 139.431 153.678 138.133 155.392C136.583 157.437 135.995 160.21 134.98 162.663C132.007 169.849 129.03 177.034 126.062 183.336C126.412 179.545 126.762 175.754 127.112 171.962C126.599 171.665 126.085 171.369 125.571 171.072C121.752 175.201 117.778 179.204 114.197 183.531C112.96 185.026 112.226 187.295 112.08 189.271C111.541 196.545 112.152 204 110.798 211.094C109.365 218.6 106.185 225.773 103.768 233.091C103.384 232.956 103 232.822 102.615 232.688C103.765 227.133 105.382 221.625 105.937 216.012C106.524 210.078 106.389 204.027 106.033 198.06C105.709 192.64 109.232 186.763 104.392 181.296C101.016 186.316 97.596 190.577 97.8611 196.857C97.9618 199.244 96.0872 202.13 94.3413 204.107C87.4171 211.948 80.1878 219.519 72.4622 227.474C65.7718 234.129 60.4749 241.714 57.8361 250.839C57.3921 252.374 58.1874 255.417 59.3565 256.071C64.3774 258.877 69.7516 261.051 75.5746 263.721C78.9147 256.029 81.9399 249.063 85.0769 241.403C85.7084 239.933 86.3398 238.463 87.5661 237.579C87.5661 241.492 87.5661 245.406 87.5661 249.702C89.1524 246.646 90.5369 243.978 91.9255 242.109C90.1418 250.64 88.358 259.171 86.4439 268.326C91.999 269.365 97.5189 270.193 102.926 271.492C105.798 272.182 106.464 271.288 107.316 268.671C109.603 261.644 112.422 254.79 115.064 248.6C115.324 249.298 115.583 249.997 115.842 250.695C116.593 250.189 117.344 249.683 118.128 249.924C118.103 250.671 118.079 251.418 117.512 252.622C114.982 259.033 111.861 265.298 112.254 273.189C118.391 273.882 124.277 274.511 130.153 275.225C133.361 275.615 134.15 274.042 134.08 271.15C133.934 265.159 134.02 259.163 134.05 252.233ZM55.143 303.936C60.8156 332.842 61.0303 361.719 53.3483 391.195C57.803 391.195 60.9247 391.195 64.8256 391.311C67.8785 391.899 70.9314 392.486 74.8018 393.159C78.3762 393.877 81.9506 394.595 85.5026 395.309C86.7044 388.071 87.1565 381.721 88.8828 375.739C92.0492 364.767 95.6016 353.87 99.7126 343.22C102.073 337.106 105.07 330.902 109.17 325.873C115.088 318.616 118.142 310.672 119.225 301.615C119.481 299.473 120.502 297.424 121.118 295.497C127.689 296.289 122.571 301.552 125.542 304.436C127.578 299.245 129.385 294.635 131.249 289.883C121.018 288.586 111.54 287.384 101.274 286.148C99.2048 285.823 97.1356 285.498 94.359 284.851C88.2609 283.582 82.1629 282.313 75.7051 280.454C71.8343 279.021 67.9636 277.588 63.4385 275.865C60.5839 274.682 57.7292 273.5 54.7473 272.264C51.9396 280.853 51.2302 289.007 54.16 297.3C54.8056 299.128 54.8679 301.162 55.143 303.936ZM10.6264 481.921C11.2566 481.777 12.0497 481.311 12.493 481.536C21.0406 485.865 30.2292 487.381 39.6352 488.681C51.9112 490.377 62.8641 486.787 73.4953 481.679C75.3153 480.805 76.6114 477.443 76.8993 475.078C77.4371 470.661 77.3259 466.111 76.9781 461.655C76.6814 457.853 77.9466 455.417 81.2473 453.599C85.002 451.531 86.1481 448.138 85.5204 443.884C82.8858 448.05 80.189 449.662 76.3863 445.514C75.9675 445.057 74.805 445.282 74.0127 444.288C74.3965 440.178 74.7803 436.068 75.164 431.958C75.5582 431.938 75.9523 431.918 76.3465 431.899C77.8187 435.755 79.2909 439.612 80.7631 443.468C82.9058 439.703 84.4499 435.851 84.9719 431.865C85.6569 426.634 86.0868 421.243 85.574 416.024C85.2142 412.363 85.0522 407.314 78.9296 407.576C78.1486 407.609 77.3601 407.046 76.5501 406.886C69.0213 405.394 61.4871 403.929 54.602 402.583C51.7434 408.965 48.9595 413.896 47.2733 419.178C41.5857 436.995 32.0723 452.223 18.1033 464.698C16.4408 466.182 15.3451 468.302 13.2994 470.237C9.43066 472.467 7.68777 475.799 7.43697 480.304C6.38967 484.074 7.28771 485.987 10.7314 488.058C20.0445 493.656 30.4781 494.929 40.9114 494.925C47.3738 494.922 53.8353 492.911 60.2972 491.802C51.7749 491.15 43.4878 491.614 35.2758 491.026C26.1704 490.375 17.1721 488.655 10.6264 481.921ZM406.633 441.613C402.31 439.914 397.766 438.622 393.713 436.426C386.664 432.607 379.886 432.482 372.928 436.316C371.911 436.876 370.848 437.491 369.736 437.69C369.066 437.81 368.261 437.175 366.693 436.552C371.565 434.428 375.563 432.685 379.97 430.763C377.426 428.925 375.262 427.684 373.486 426.027C361.946 415.258 350.06 404.809 339.174 393.41C332.907 386.848 326.901 383.276 318.054 387.093C317.485 387.338 316.735 387.164 315.2 387.174C309.43 386.841 303.662 386.389 297.887 386.276C296.699 386.253 294.808 387.262 294.466 388.228C294.096 389.276 294.768 391.236 295.662 392.092C298.996 395.283 302.607 398.184 306.111 402.028C308.342 418.177 313.87 423.422 330.353 425.808C335.244 432.232 339.983 438.781 345.103 445.018C347.134 447.493 349.686 450.095 352.558 451.229C364.949 456.121 378.024 457.265 391.132 455.823C398.438 455.019 405.79 453.082 411.541 446.323C410.017 444.888 408.564 443.52 406.633 441.613ZM304.258 433.73C300.107 431.859 295.956 429.988 291.108 427.802C291.108 431.16 290.978 434.888 291.206 438.595C291.258 439.438 292.446 440.773 293.281 440.921C303.632 442.75 314.014 444.402 324.608 446.136C324.918 443.955 325.145 442.355 325.398 440.58C327.115 440.335 328.621 440.12 330.127 439.905C327.417 437.615 324.529 435.837 321.435 435.339C316.054 434.473 310.545 434.397 304.258 433.73ZM85.6797 399.113C75.8616 397.789 66.0592 396.321 56.2148 395.235C53.559 394.942 50.5059 395.436 50.1262 399.711C54.7691 400.111 59.2035 400.215 63.5373 400.93C70.5698 402.089 77.5134 403.794 84.5515 404.909C85.8751 405.118 87.4653 403.644 88.9324 402.947C88.126 401.688 87.3196 400.428 85.6797 399.113ZM323.086 378.084C314.879 377.811 306.672 377.537 296.997 377.215C298.304 379.282 299.179 382.334 300.561 382.585C310.374 384.361 320.323 385.454 329.864 381.279C331.292 380.654 332.121 378.661 333.227 377.3C332.839 376.909 332.452 376.518 332.065 376.126C329.368 376.741 326.67 377.357 323.086 378.084ZM298.593 413.091C299.621 414.788 300.544 416.561 301.701 418.165C303.724 420.969 306.292 422.131 310.502 420.19C305.748 414.131 301.313 408.478 296.435 402.262C293.62 407.467 296.423 409.819 298.593 413.091ZM315.933 249.936C316.306 253.255 316.678 256.573 317.051 259.891C317.701 260.088 318.351 260.284 319 260.48C319.949 259.002 321.929 257.31 321.675 256.079C320.346 249.646 318.45 243.329 316.752 236.972C316.436 236.988 316.121 237.004 315.806 237.02C315.806 241.03 315.806 245.04 315.933 249.936ZM85.9302 458.2C85.8573 456.99 85.7844 455.78 85.7226 454.754C83.8615 455.824 82.252 456.749 80.6425 457.674C80.9568 458.249 81.271 458.824 81.5853 459.399C82.9369 459.226 84.2887 459.053 85.9302 458.2ZM262.297 214.75C262.785 214.272 263.289 213.807 263.724 213.285C263.752 213.251 263.24 212.77 262.979 212.496C262.534 213.043 262.089 213.59 262.297 214.75Z" fill="#070608"/>
</svg>
