<svg width="66" height="11" viewBox="0 0 66 11" fill="none" xmlns="http://www.w3.org/2000/svg">
<path d="M0 0C7.04526 1.01813 14.5298 1.41148 21.3239 3.78314C33.9112 8.17708 46.9609 7.26266 60.5316 8.96432C62.7862 9.38249 64.3036 9.5708 65.8325 9.96307C65.8441 10.1671 65.8548 10.5768 65.3876 10.5803C59.2335 10.2639 53.5494 9.79813 47.8585 9.68861C45.1907 9.63728 42.5096 10.2731 39.8346 10.5976C39.0899 10.5887 38.3452 10.5799 37.1473 10.1803C32.4188 9.03926 28.1435 8.28906 23.8682 7.53885C23.0604 7.29634 22.2526 7.05383 21.0756 6.3103C19.0418 5.41866 17.3772 5.02802 15.7125 4.63739C14.9973 4.62126 14.282 4.60513 13.1335 4.20079C9.7482 3.40479 6.79605 2.99702 3.8439 2.58925C3.09473 2.57565 2.34552 2.56206 1.22302 2.51154C0.609039 1.73898 0.368439 1.00337 0 0Z" fill="#150506"/>
</svg>
