<svg width="53" height="64" viewBox="0 0 53 64" fill="none" xmlns="http://www.w3.org/2000/svg">
<path d="M46.2189 59.3825C45.4141 60.0012 44.6091 60.6198 43.3514 60.9832C42.3963 59.0494 41.8941 57.3709 41.3917 55.6924C40.095 57.0822 38.7669 58.4448 37.5247 59.8817C37.23 60.2226 37.2234 60.8126 36.7132 61.3043C35.6013 61.3755 34.8605 61.4304 33.8713 61.224C33.6228 59.1913 33.6228 57.4199 33.6228 55.6484C33.1474 55.5178 32.672 55.3872 32.1965 55.2566C31.5259 57.6213 30.8553 59.9859 29.8654 62.5097C27.4379 62.8991 25.3297 63.1293 23.4488 63.1882C23.818 62.4799 23.96 61.9429 24.1259 60.949C23.5055 56.4614 22.8611 52.4307 22.1721 48.0499C19.7356 44.6306 17.3439 41.5614 14.9522 38.4921C15.312 37.9984 15.6719 37.5046 16.0318 37.0108C20.7652 38.8143 25.4987 40.6179 29.825 42.2662C33.9351 36.0343 26.9579 33.9964 25.0224 29.3493C27.7364 29.3493 29.5496 29.4943 31.3274 29.3059C32.9098 29.1382 34.4531 28.6011 37.2028 27.9421C35.0288 26.5598 34.0933 25.965 33.1272 25.0158C28.4746 16.6122 28.4761 16.6204 19.5822 18.2766C18.7811 18.4257 17.9433 18.3782 16.7524 18.4061C15.3074 19.0428 14.2325 19.6954 12.7476 20.4013C8.31209 20.7295 4.28658 21.0045 0.261063 21.2794C-0.871994 16.0687 1.78658 13.1926 6.23207 11.2184C8.18672 10.3504 9.93684 9.0215 12.3471 7.59312C15.6065 5.99986 18.389 4.87394 20.9732 3.40025C27.9438 -0.574818 34.7742 -1.55159 41.9379 3.11598C43.5817 4.18708 46.0455 3.99995 48.132 4.39192C49.4539 20.513 50.7962 36.6326 52.0583 52.7584C52.1572 54.0212 51.6959 55.328 51.0121 56.9245C50.4154 56.0672 50.5016 54.831 50.1314 53.7512C49.7586 52.6636 48.9321 51.7314 48.3045 50.7311C47.6059 51.6593 46.4742 52.514 46.302 53.5312C45.9802 55.4318 46.2155 57.4268 46.2189 59.3825Z" fill="#1F2136"/>
</svg>
