<svg width="23" height="67" viewBox="0 0 23 67" fill="none" xmlns="http://www.w3.org/2000/svg">
<path d="M3.64565 39.7722C2.70308 33.6144 2.03603 27.3975 0.731097 21.3175C-0.313581 16.4503 -0.69206 12.0604 2.76363 7.8916C4.74379 5.50287 6.18068 2.66376 8.46987 0C11.7828 5.58173 14.9524 10.3851 22.4497 7.67731C22.0481 9.78137 22.1281 12.1411 21.1685 13.949C13.783 27.8645 16.3353 42.3324 18.5935 56.7588C19.9771 65.5977 20.1425 65.5811 11.36 66.6361C10.375 66.7544 9.36892 66.6959 7.9374 66.2665C6.49965 59.7719 5.49715 53.7302 4.49123 47.6912C4.48781 47.6937 4.48073 47.701 4.76235 47.462C4.5779 44.7393 4.11177 42.2557 3.64565 39.7722Z" fill="#2E3F53"/>
</svg>
