<svg width="63" height="62" viewBox="0 0 63 62" fill="none" xmlns="http://www.w3.org/2000/svg">
<path d="M60.1753 61.9337C54.1532 59.7375 48.4192 57.4133 42.1282 54.7914C40.7571 54.3317 39.943 54.1698 38.9126 53.7049C35.1248 52.2886 31.5533 51.1753 27.771 49.7914C26.3481 49.6924 25.1359 49.8641 23.6116 50.0729C22.5228 50.4131 21.7461 50.7161 20.9694 51.0191C20.6525 50.2755 20.3471 48.8896 20.0169 48.8837C14.2937 48.7805 8.56738 48.847 2.52088 48.9544C1.49259 44.3799 0.7222 39.7357 0.119447 35.0697C-0.0429067 33.8129 -0.133635 32.2083 0.488069 31.2435C4.61801 24.8349 3.93027 17.6969 4.0286 10.6339C4.06488 8.02753 4.55261 5.4274 4.91449 2.41217C6.03067 2.0018 7.06684 2.00369 8.5531 2.45004C8.74222 6.50327 8.27854 10.1147 8.32569 13.7194C8.34314 15.0533 9.37113 17.3567 10.2641 17.529C14.5114 18.3486 18.8709 18.5861 24.0565 19.12C24.0565 12.1523 24.0565 6.07495 24.4138 0C25.4868 0.003509 26.2026 0.00454718 26.8719 0.421295C26.5344 5.29355 26.0868 9.74664 25.9888 14.2074C25.8392 21.0191 25.9412 21.0687 19.2919 20.9914C15.7111 20.9498 11.1306 19.2982 8.81604 20.9367C6.14929 22.8243 5.4849 27.5406 3.95053 31.0283C3.88346 31.1808 3.8252 31.3388 3.74249 31.4825C2.22492 34.1195 3.5394 36.219 5.92001 36.3088C12.2565 36.5478 18.6184 36.1104 24.9702 35.942C35.2678 38.5793 44.9952 42.431 53.4391 49.1028C54.1828 49.6904 55.3214 49.7783 56.629 50.411C57.9846 52.1049 58.9878 53.486 59.991 54.8672C59.797 57.2039 64.8382 59.1843 60.1753 61.9337ZM38.7221 44.4026C38.133 44.2747 37.5439 44.1468 36.536 43.9182C36.536 43.9182 36.1061 43.8927 35.5612 43.3617C26.1464 39.9484 16.4398 40.9477 6.40857 40.9765C6.76724 42.9063 7.0275 44.3067 7.194 45.2026C16.7353 46.5002 25.839 47.7382 35.6097 49.2792C43.4901 52.6846 51.3704 56.0901 59.2508 59.4956C59.4784 59.0525 59.7061 58.6094 59.9337 58.1664C54.5648 51.426 46.6531 48.4326 38.7221 44.4026Z" fill="#150506"/>
</svg>
