<svg width="35" height="67" viewBox="0 0 35 67" fill="none" xmlns="http://www.w3.org/2000/svg">
<path d="M16.0003 0.996157C17.7688 0.996188 19.5373 0.996187 21.4279 0.996187C21.8599 3.09659 22.2003 4.75174 22.6878 7.12174C24.9954 4.49353 22.3618 -1.401 28.9429 0.304659C30.7557 1.50913 32.7295 2.29227 32.8871 3.34683C33.6313 8.327 33.8785 13.3814 34.303 18.4093C33.8087 18.2145 33.3145 18.0197 32.8203 17.8248C31.1168 19.3532 29.4133 20.8815 27.7099 22.4099C27.8289 22.899 27.9478 23.3882 28.0668 23.8774C33.5847 23.2067 34.3588 26.1342 34.0377 30.222C33.5464 36.4782 33.2931 42.7531 32.5187 49.0046C30.2456 48.8162 28.3926 48.6432 26.5396 48.4702C26.5749 48.0819 26.6102 47.6937 26.6454 47.3054C28.0875 47.1023 29.5297 46.8992 31.6926 46.5947C30.2001 45.9826 29.3454 45.2796 28.741 45.4524C27.1346 45.9115 24.8287 46.3571 24.2663 47.5179C23.1584 49.8046 24.8163 51.019 27.2343 51.2217C28.8505 51.3572 30.4456 51.7445 32.0455 52.4644C31.9861 55.2906 31.9315 57.6715 31.4409 60.0317C27.4943 60.8981 22.1559 57.1958 20.6037 63.9973C19.1509 64.0038 18.0943 64.0085 16.715 64.0373C15.9141 64.6822 15.436 65.3029 14.7089 65.8345C13.6438 65.8113 12.8278 65.8772 11.6698 65.9723C10.2377 66.2967 9.14752 66.5919 8.04114 66.4282C8.18054 53.3657 8.31201 40.7741 5.02173 28.4342C3.20917 21.6364 1.61432 14.7805 0 7.6015C5.38587 5.16687 10.6931 3.08151 16.0003 0.996157Z" fill="#1F2136"/>
</svg>
