<svg width="20" height="36" viewBox="0 0 20 36" fill="none" xmlns="http://www.w3.org/2000/svg">
<path d="M4.32141 12.8915C4.84393 8.61145 5.38318 4.31921 5.92249 0.0269775C6.07123 0.0179745 6.22003 0.009003 6.36884 0C6.36884 3.22855 6.17261 6.47635 6.48621 9.67413C6.58252 10.6565 8.07349 11.5022 9.16675 12.122C10.1298 11.9039 10.8517 11.9743 11.9336 11.9753C13.1359 12.7735 13.9783 13.6411 15.077 14.7145C13.3543 17.6486 14.1534 20.0596 15.7563 22.738C17.3126 25.3381 18.2567 28.3046 19.4904 31.4895C18.7902 32.7764 18.0692 33.6839 17.2992 34.9646C16.8435 35.2389 16.4367 35.14 15.7167 35.0236C14.7805 34.7469 14.1578 34.4878 13.42 34.0315C16.6552 31.942 16.8525 29.6881 14.3388 26.8297C12.6209 24.8763 11.196 22.6652 9.47284 20.2767C9.30548 18.4261 9.30548 16.8681 9.30548 15.5302C5.6535 15.5302 2.77203 15.5302 0 15.2412C1.5257 14.6079 2.94183 14.2635 4.35425 13.6549C4.33411 13.2155 4.31763 13.0403 4.30121 12.8649C4.30121 12.8649 4.33807 12.8793 4.32141 12.8915Z" fill="#040407"/>
</svg>
