<svg width="10" height="39" viewBox="0 0 10 39" fill="none" xmlns="http://www.w3.org/2000/svg">
<path d="M0.900244 0.337769C1.93302 0.00616455 2.93393 0.003143 4.30405 0C3.53727 11.184 1.38877 22.5347 9.7739 32.6584C9.71976 34.1453 9.85258 35.0945 9.99937 36.3709C9.98484 37.1338 9.95634 37.5694 9.52232 38.0036C8.03416 38.0067 6.95145 38.0111 5.86881 38.0156C5.20377 36.6132 4.53873 35.2108 3.79789 33.2294C3.56675 32.3549 3.33414 32.1451 3.02433 32.0209C2.65091 30.5958 2.27744 29.1707 2.12852 27.2105C1.92368 26.1121 1.4943 25.5486 1.06492 24.9852C1.01688 24.544 0.968849 24.1029 1.16794 23.1354C0.972328 21.7343 0.529578 20.8596 0.0868898 19.9848C0.0315308 18.6032 -0.0238282 17.2216 0.310828 15.3406C2.41788 12.3604 3.11216 9.9837 0.00437028 7.99365C-0.00643272 7.5444 -0.0172353 7.09518 0.235999 6.12183C0.616126 4.39392 0.732153 3.19012 0.84812 1.98636C0.854895 1.54636 0.86167 1.10638 0.900244 0.337769Z" fill="#040407"/>
</svg>
