<svg width="29" height="25" viewBox="0 0 29 25" fill="none" xmlns="http://www.w3.org/2000/svg">
<path d="M15.466 19.5435C15.0322 19.8577 14.7682 20.0418 14.461 20.5378C14.0208 20.8612 13.7649 21.0623 13.5038 21.5958C12.7546 22.5634 12.0874 23.2965 11.3125 24.3109C11.2047 24.5923 10.7402 24.6108 10.7402 24.6108C10.7402 24.6108 10.276 24.585 10.0475 24.5546C8.83423 18.1534 8.77863 11.2265 0.379425 9.2948C0.25296 8.84898 0.126495 8.40318 0 7.95738C5.88904 5.31018 11.778 2.66298 18.017 0C19.4688 4.037 20.5813 8.08115 25.9759 9.00166C26.8052 9.35255 27.2768 9.65427 28.0293 10.0112C27.8601 10.9111 27.623 12.1469 26.9211 12.5291C24.5337 13.8289 21.9823 14.8275 19.2948 16.2147C18.6331 16.7788 18.1702 17.0692 17.5741 17.6012C17.096 17.8957 16.8133 18.0575 16.4808 18.5501C16.0395 18.8629 15.7738 19.0461 15.466 19.5435Z" fill="#C22F32"/>
</svg>
