<svg width="22" height="7" viewBox="0 0 22 7" fill="none" xmlns="http://www.w3.org/2000/svg">
<path d="M0.015686 2.15898C0.763977 1.9077 1.50439 1.91709 2.95911 1.9329C4.13165 1.94297 4.59003 1.9467 5.04834 1.95036C7.15649 1.72007 9.26471 1.48985 12.0496 1.10069C13.7998 0.653117 14.8732 0.364543 15.9466 0.0760297C16.6874 0.0211587 17.4282 -0.0337123 18.8336 0.0257367C20.3355 0.741191 21.1727 1.34239 21.7986 2.20658C20.7363 3.35197 19.8853 4.23436 18.9055 5.41551C18.2321 5.9702 17.6875 6.22624 17.1429 6.48222C17.1429 6.48222 17.0374 6.24186 16.9092 5.88279C16.5121 5.33219 16.2432 5.14067 15.9744 4.94914C14.9504 4.96165 13.9265 4.97416 12.1208 4.97874C9.21869 5.64689 7.09808 6.32292 4.97754 6.999C3.5517 6.30003 2.12592 5.60099 0.359863 4.51023C0.0131233 3.72599 0.006531 3.3336 0 2.94114C0.002564 2.76731 0.00518803 2.59349 0.015686 2.15898Z" fill="#040407"/>
</svg>
