<svg width="36" height="33" viewBox="0 0 36 33" fill="none" xmlns="http://www.w3.org/2000/svg">
<path d="M0.444641 32.2143C0.0704341 32.2329 0.015747 31.7512 0 31.5099C5.22211 26.8021 10.5345 22.4195 15.6756 17.8443C20.2249 13.7957 24.5834 9.5329 29.597 5.14648C30.3885 4.62253 30.6089 4.31677 30.8293 4.01102C30.8293 4.01102 30.8512 4.10437 31.0655 4.00409C31.4589 3.60419 31.638 3.30453 31.8171 3.00488C31.8171 3.00488 31.8575 3.0983 32.0682 3.00067C32.4566 2.60239 32.6343 2.30173 32.8121 2.00107C32.8121 2.00107 32.8565 2.09668 33.0667 1.99924C33.455 1.60129 33.6331 1.30078 33.8113 1.00027C33.8113 1.00027 33.8566 1.0957 34.0665 0.998718C34.4547 0.601135 34.6328 0.300568 34.8109 0C34.8109 0 34.7535 0.0701906 35.0358 0.0878296C35.5114 0.12384 35.7047 0.142273 35.898 0.160675C35.9034 0.355896 35.9089 0.551148 35.9281 1.04056C33.269 4.2822 30.5963 7.22965 27.5342 10.6313C19.7657 17.8036 12.3866 24.5217 5.00751 31.2397C4.52869 31.4778 4.04993 31.7158 3.33081 32.0677C2.33325 32.1864 1.57605 32.191 0.444641 32.2143Z" fill="#230609"/>
</svg>
