<svg width="14" height="42" viewBox="0 0 14 42" fill="none" xmlns="http://www.w3.org/2000/svg">
<path d="M4.23706 0C6.07697 8.28528 7.81751 16.5943 9.79205 24.8474C11.092 30.2809 12.7293 35.6338 13.9229 41.2809C12.6465 39.2352 11.6627 36.9311 10.6788 34.6271C10.5268 34.1708 10.3747 33.7145 10.0512 32.7154C9.27869 31.0584 8.67746 29.9442 8.07626 28.83C8.09982 27.9933 8.12341 27.1566 8.01355 25.7234C7.19315 23.0455 6.50613 20.9639 5.81912 18.8824C5.81912 18.8824 5.87564 18.8455 5.78607 18.6542C5.53903 18.183 5.31131 17.9833 5.01331 17.8638C4.64255 16.1147 4.27179 14.3657 4.14862 12.0134C3.56284 9.55688 2.72946 7.70361 1.89606 5.85028C1.28711 5.08472 0.678131 4.31921 0 2.92963C1.36624 1.53705 2.80167 0.768555 4.23706 0Z" fill="#070608"/>
</svg>
