<svg width="11" height="43" viewBox="0 0 11 43" fill="none" xmlns="http://www.w3.org/2000/svg">
<path d="M8.72223 26.5065C8.84247 27.1647 8.96271 27.8229 9.0083 29.2396C9.54089 32.1682 10.1481 34.3383 10.7554 36.5083C10.861 37.1858 10.9666 37.8632 10.9879 39.2977C10.8882 40.883 10.873 41.7111 10.8578 42.5393C10.2997 42.2684 9.74164 41.9976 8.87292 41.6681C7.26575 36.2256 5.84241 30.8684 4.70221 25.4516C2.94421 17.0999 1.38013 8.70724 0 0.0186427C0.871338 -0.0674163 1.47656 0.159756 2.08173 0.386929C2.08173 0.386929 2.07349 0.465297 1.99329 0.81332C2.30505 2.24936 2.69714 3.33737 3.08917 4.42532C3.08917 4.42532 2.94318 4.50247 2.94714 4.75204C3.24268 5.50973 3.53418 6.01785 3.82574 6.52597C3.82574 6.52597 3.87756 6.53964 3.84967 6.88376C4.11798 7.98721 4.41425 8.74661 4.71051 9.50595C4.84424 10.1385 4.97797 10.7711 5.08984 12.0174C5.29272 12.9243 5.51746 13.2175 5.74219 13.5107C5.88239 14.1342 6.02264 14.7577 6.12268 15.9951C6.30646 16.9105 6.5304 17.2118 6.75427 17.5132C6.87738 18.1599 7.00049 18.8066 7.03723 20.1898C7.54132 22.7863 8.13177 24.6465 8.72223 26.5065Z" fill="#120204"/>
</svg>
