<svg width="69" height="70" viewBox="0 0 69 70" fill="none" xmlns="http://www.w3.org/2000/svg">
<path d="M68.9571 42.9273C67.4021 44.6466 65.9976 46.5396 64.2588 48.0468C61.2096 50.6899 59.3622 53.5411 59.8184 57.9011C60.2336 61.8701 58.2674 63.8516 53.9842 62.5068C50.6471 61.459 47.7212 61.6339 44.7887 64.2662C43.686 65.2561 40.5583 64.8945 38.8705 64.0794C37.1073 63.2279 35.966 61.0887 33.8229 58.6983C33.4125 61.017 33.1306 62.6246 32.8431 64.2312C32.211 67.7646 31.3456 70.8265 26.5172 69.0213C24.6973 68.3409 22.6387 68.299 20.3053 67.5341C19.4525 65.1901 19.1369 63.2241 18.4877 61.3751C15.3689 52.4926 11.8891 43.7274 9.05377 34.7573C5.7262 24.2299 2.931 13.5342 0 2.6853C0.293701 2.18414 0.553314 1.99133 1.22937 1.92981C4.77463 3.60523 8.22376 6.97046 11.107 6.54053C20.8201 5.0921 30.3319 2.29413 40.3397 0C46.307 1.52329 51.8186 3.21301 57.4142 4.55145C63.0034 5.88831 64.6615 10.2084 65.6163 14.9634C63.1325 16.3025 61.0193 17.6068 58.4883 18.9092C56.6779 18.8983 55.2851 18.8892 53.6671 18.6222C52.2022 18.2535 50.9626 18.1428 49.964 18.0536C51.1222 19.978 51.9898 21.4196 52.4272 22.8714C49.9869 23.1128 47.977 23.344 45.967 23.5752C45.9847 24.129 46.0024 24.6829 46.0201 25.2367C49.4264 26.2319 52.8327 27.2272 56.168 28.2017C55.649 29.8885 55.1848 31.3975 54.5536 33.4488C56.3427 33.4488 57.5057 33.4488 58.9649 33.4488C57.7868 37.6516 56.7338 41.4083 55.6808 45.1649C56.2445 45.3892 56.8082 45.6135 57.3719 45.8378C58.3808 44.2783 59.3346 42.6797 60.4092 41.1669C63.2351 37.1887 64.591 37.1661 67.9221 41.248C68.2849 42.0071 68.621 42.4672 68.9571 42.9273Z" fill="#1F2237"/>
</svg>
