<svg width="28" height="69" viewBox="0 0 28 69" fill="none" xmlns="http://www.w3.org/2000/svg">
<path d="M9.02528 27.7881C8.84327 27.2775 8.66127 26.7668 8.30159 25.7591C7.85634 25.0744 7.58873 24.8869 7.32115 24.6994C7.32115 24.6994 7.38557 24.7284 7.39576 24.3715C7.26411 23.6058 7.1223 23.1969 6.98045 22.7881C6.58271 21.8752 6.18498 20.9623 5.55397 19.858C3.61799 14.3279 1.7967 9.02277 0.268231 3.63458C-0.387714 1.32229 -0.0500674 -0.848786 3.67921 0.332397C6.10804 7.48862 8.21794 14.1 10.4234 21.0676C12.8334 27.3864 15.2835 33.3005 17.4313 39.3224C20.9135 49.0851 24.1974 58.9184 27.2083 68.7561C26.6137 68.8133 26.3759 68.8364 25.893 68.6036C25.135 67.1453 24.6179 65.9446 24.1098 64.7401C19.1841 53.0608 14.2598 41.3809 9.33519 29.7011C9.33519 29.7011 9.36262 29.7677 9.36113 29.4082C9.24818 28.6285 9.13673 28.2083 9.02528 27.7881Z" fill="#41536A"/>
</svg>
