<svg width="52" height="103" viewBox="0 0 52 103" fill="none" xmlns="http://www.w3.org/2000/svg">
<path d="M19.038 4.14835C20.1345 6.35422 21.2222 8.56442 22.329 10.7652C28.6366 23.307 34.9486 35.8466 42.0347 48.5007C41.3407 43.3893 40.6466 38.278 39.9526 33.1666C40.2935 33.1081 40.6344 33.0495 40.9753 32.9909C41.99 38.2574 43.173 43.4981 43.9842 48.7958C45.6567 59.7181 47.1789 70.6642 48.6682 81.6134C49.5571 88.1488 50.2663 94.7086 51.0737 101.665C49.592 102.089 48.0744 102.264 46.5972 102.093C41.8827 101.545 38.1591 100.845 37.3789 94.3559C35.6537 80.0094 32.1912 65.9541 25.1273 53.1162C19.852 43.5285 13.9828 34.2495 9.08333 24.4794C5.53841 17.4105 3.1064 9.77817 0.278335 2.35892C-0.391648 0.601472 0.0244889 -0.669096 2.89619 0.381258C5.28889 0.834993 7.1515 1.01254 9.21168 1.44882C10.6185 2.17911 11.8277 2.65067 13.3688 3.12583C14.1434 3.12979 14.5861 3.13016 15.3491 3.27036C16.7893 3.63126 17.9091 3.85239 19.0342 4.09183C19.0395 4.11014 19.038 4.14835 19.038 4.14835Z" fill="#0F1021"/>
</svg>
