<svg width="22" height="46" viewBox="0 0 22 46" fill="none" xmlns="http://www.w3.org/2000/svg">
<path d="M6.74973 3.74733C6.13998 12.0822 6.95493 19.7679 11.4547 26.8465C15.107 32.592 18.386 38.5747 21.5025 44.8664C20.7677 45.2641 20.361 45.2477 19.9543 45.2312C19.9543 45.2312 19.6217 44.9825 19.2843 44.7089C18.6237 44.2861 18.3006 44.1368 17.9775 43.9876C16.5114 42.4229 15.0454 40.8583 13.2243 38.8866C12.5709 38.3472 12.2724 38.2149 11.9739 38.0826C11.5941 37.7426 11.2143 37.4026 10.5742 36.6129C9.84988 35.4512 9.3858 34.7391 8.81253 33.7106C6.14829 30.2082 3.59329 27.0222 1.0383 23.8363C1.0383 23.8363 1.02927 23.394 0.953522 22.9459C0.877777 22.4977 0.685425 22.0445 0.685425 22.0445C0.431854 17.6656 0.178253 13.2868 0 8.07643C0.291626 5.55118 0.29776 3.79038 0.808105 2.19041C1.086 1.31931 2.21985 0.721222 2.96762 0C4.17645 1.15823 5.38525 2.31645 6.74973 3.74733Z" fill="#C1715A"/>
</svg>
