<svg width="39" height="90" viewBox="0 0 39 90" fill="none" xmlns="http://www.w3.org/2000/svg">
<path d="M0.888285 59.4604C2.7816 57.7994 4.61305 56.5427 6.75355 55.5569C7.39256 58.2166 7.72254 60.6052 8.046 63.4529C8.03947 67.4406 8.03947 70.9693 8.03947 74.7062C14.1881 72.8022 19.2161 66.5665 22.3432 57.808C24.1831 54.5 25.984 51.501 27.2827 48.2985C29.3746 43.14 32.2409 37.9629 32.803 32.5869C33.9309 21.7985 33.7239 10.8705 34.0679 0C34.8438 0.002991 35.6198 0.00598136 36.7865 0.0266724C37.4627 1.66016 37.9836 3.27411 37.9956 4.89191C38.0862 17.0298 39.0307 29.2603 37.8734 41.2853C36.1536 59.1535 28.9046 74.7613 14.3085 86.154C12.8959 87.2565 11.1738 88.1165 9.45878 88.6508C2.48496 90.8231 -0.1285 88.9384 0.00483115 81.7128C0.13923 74.4276 0.541453 67.1472 0.888285 59.4604Z" fill="#1F2E41"/>
</svg>
