<svg width="10" height="66" viewBox="0 0 10 66" fill="none" xmlns="http://www.w3.org/2000/svg">
<path d="M4.16687 59.9739C4.22156 57.593 4.27624 55.2121 4.58026 52.1668C4.96271 50.6488 5.09583 49.7953 5.22888 48.9417C5.58319 42.6747 5.83649 36.3998 6.32782 30.1436C6.64886 26.0558 5.87482 23.1282 0.356873 23.7989C0.237915 23.3097 0.118958 22.8206 0 22.3314C1.70343 20.8031 3.40686 19.2747 5.11035 17.7464C5.60455 17.9412 6.09882 18.136 6.59308 18.3308C6.16864 13.3029 5.92139 8.24854 5.17719 3.26837C5.01959 2.21381 3.04578 1.43066 1.66357 0.261261C3.72778 0 6.03723 0 9.83606 0C8.65948 21.8411 7.49713 43.4172 5.98047 65.4192C5.09241 65.2276 4.55866 64.6101 4.10614 63.5939C4.18054 62.1214 4.17371 61.0476 4.16687 59.9739Z" fill="#304156"/>
</svg>
