<svg width="48" height="82" viewBox="0 0 48 82" fill="none" xmlns="http://www.w3.org/2000/svg">
<path d="M10.0998 43.6347C11.1045 40.9662 12.1091 38.2978 13.1137 35.6293C12.7796 35.401 12.4454 35.1727 12.1113 34.9444C10.2811 37.37 8.45099 39.7957 5.9812 42.4275C3.56104 41.9397 1.78052 41.2457 0 40.5518C3.73297 35.2341 7.46594 29.9164 11.6096 24.9294C12.0202 27.796 12.0202 30.3321 12.0202 32.9287C18.4908 31.7885 21.0811 28.6212 20.1133 22.769C19.3367 18.0724 18.9047 13.3094 17.8882 8.67041C17.693 7.77972 15.4923 7.32852 14.2168 6.67456C14.7073 4.48853 15.1977 2.30249 15.6882 0.116425C16.1055 0.0776366 16.5228 0.038819 16.94 0C19.6135 6.50067 22.0548 13.1096 25.0219 19.4733C28.3752 26.6656 32.0147 33.7407 35.8623 40.6824C42.4717 52.607 47.0192 65.0809 47.1541 78.8842C47.165 80.0027 46.9308 81.1236 46.8514 81.8633C36.7726 79.3919 26.8896 76.9686 16.5663 74.1109C14.0594 66.4232 11.5942 59.1274 14.3436 51.5766C16.0035 47.0181 14.4371 44.7202 10.0998 43.6347ZM21.066 41.2391C13.9393 52.0451 19.7193 71.1353 31.4907 73.0804C31.0227 62.7071 30.6429 52.4916 30.0259 42.2905C29.9164 40.4802 28.8194 38.7296 28.1784 36.9514C26.4425 37.7243 24.6799 38.4445 22.9857 39.3C22.4241 39.5837 22.0385 40.2159 21.066 41.2391Z" fill="#2E3F53"/>
</svg>
