<svg width="17" height="31" viewBox="0 0 17 31" fill="none" xmlns="http://www.w3.org/2000/svg">
<path d="M2.11383 6.69899C2.11383 6.69899 1.95233 6.45093 1.95935 5.99736C1.68408 5.27802 1.40192 5.01225 1.11969 4.74649C1.11969 4.74649 1.22424 4.71635 1.19934 4.42694C0.78296 3.70343 0.391479 3.26933 0 2.83524C0 2.83524 0.139465 2.84526 0.14624 2.5089C0.81665 1.37762 1.48022 0.582718 2.3338 0C3.04718 0.416824 3.5705 0.621475 4.29736 1.03365C5.04456 1.42215 5.5882 1.60312 6.37897 2.02055C7.51501 2.37842 8.40399 2.49982 9.27795 2.63893C9.26306 2.65668 9.25116 2.61861 9.4187 2.8875C10.1841 3.27924 10.7821 3.4021 11.3751 3.57964C11.3701 3.63429 11.3296 3.53224 11.4427 3.80898C12.0944 4.29865 12.6331 4.51158 13.3469 4.97551C14.4138 5.71522 15.3054 6.20392 16.2155 7.12491C16.2645 9.29262 16.2949 11.028 16.3129 12.7156C16.3004 12.6678 16.3492 12.7556 16.0717 12.8974C15.6496 13.6186 15.505 14.198 15.2963 14.7358C15.2321 14.6942 15.363 14.7803 15.0813 14.911C14.6433 15.6161 14.4871 16.1904 14.2802 16.724C14.2296 16.6833 14.3367 16.759 14.0608 16.8884C13.6022 17.576 13.4196 18.1341 13.2308 18.6897C13.2247 18.6871 13.2324 18.6977 13.0031 18.8032C12.6252 19.2008 12.4767 19.4928 12.337 19.7931C12.3459 19.8013 12.3584 19.8219 11.9977 19.8283C11.2029 20.8131 10.7688 21.7916 10.293 22.7774C10.2514 22.7847 10.3376 22.7952 9.9812 22.8098C9.17047 23.7916 8.71619 24.7588 8.24188 25.71C8.22186 25.6941 8.26715 25.7134 8.02979 25.8079C7.6192 26.1864 7.44604 26.4706 7.25024 26.722C7.22766 26.6893 7.29297 26.7348 7.0509 26.823C6.63416 27.1967 6.45941 27.4822 6.25732 27.7294C6.22998 27.6913 6.30579 27.7467 6.06152 27.8297C5.63837 28.1959 5.45947 28.4792 5.25513 28.7262C5.22967 28.6899 5.30084 28.7427 5.05798 28.8294C4.64667 29.2045 4.47821 29.493 4.27789 29.73C4.24597 29.6785 4.32538 29.7716 4.08179 29.8533C3.68091 30.2263 3.52368 30.5176 3.36133 30.8283C3.35626 30.8477 3.38171 30.8787 3.03729 30.8436C-0.78302 31.5813 0.166442 29.5176 0.708984 27.7139C1.75775 24.2272 3.23364 20.8004 3.73352 17.2366C4.22827 13.7099 6.02472 9.66791 2.11383 6.69899Z" fill="#D02A2D"/>
</svg>
