<svg width="73" height="166" viewBox="0 0 73 166" fill="none" xmlns="http://www.w3.org/2000/svg">
<path d="M47.1488 28.1127C47.0956 28.8567 47.0424 29.6007 46.7395 30.9346C46.4018 32.3902 46.3137 33.2558 46.2256 34.1214C46.1452 36.1545 46.0648 38.1875 45.7155 40.9601C44.989 47.9312 44.2429 54.1579 44.1342 60.3957C43.9094 73.2906 44.024 86.1915 43.9806 99.5584C43.9621 109.625 43.9621 119.222 43.9621 128.82C44.6294 128.821 45.2966 128.822 45.9639 128.823C45.9639 118.91 45.9639 108.997 45.982 98.6506C46.5453 92.3128 47.1051 86.409 47.633 80.5023C48.7183 68.3589 49.7866 56.214 50.8618 44.0697C50.8969 43.6272 50.932 43.1846 51.227 42.1726C51.5851 40.4236 51.6832 39.2441 51.7814 38.0646C51.8604 37.0065 51.9394 35.9485 52.2688 34.2475C52.6421 32.4267 52.7649 31.2487 52.8878 30.0708C52.9229 29.6309 52.958 29.191 53.2269 28.2426C53.5524 27.1748 53.6441 26.6156 53.7358 26.0564C53.8252 25.0004 53.9146 23.9445 54.2512 22.273C54.6077 20.7937 54.7169 19.93 54.8261 19.0663C54.8571 18.8934 54.888 18.7206 55.1984 18.2634C55.4778 17.9791 55.9507 17.8403 55.9507 17.8403C58.3715 19.237 60.7924 20.6338 63.6816 22.2969C64.3714 22.8315 64.6534 22.9958 64.9959 23.0561C66.7299 24.2162 68.6878 25.1535 70.1303 26.6035C71.3913 27.8711 72.0724 29.7155 72.742 31.9932C72.3914 35.8255 72.3087 38.9696 72.2259 42.1138C71.4854 49.4853 70.745 56.8569 69.9418 65.0661C69.5973 68.5067 69.1095 71.1068 69.0732 73.7132C68.9749 80.7762 69.6627 87.9141 65.5327 94.3228C64.911 95.2875 65.0017 96.8922 65.1641 98.149C65.7668 102.815 66.5372 107.459 67.2447 112.112C66.8116 113.475 66.3785 114.838 65.72 116.706C65.3311 117.505 65.1677 117.798 65.0042 118.092C65.0042 118.092 64.9288 118.505 64.7138 118.86C64.3368 119.507 64.1747 119.799 64.0127 120.091C64.0127 120.091 63.9368 120.518 63.6573 120.913C62.9355 122.239 62.4933 123.17 62.0511 124.1C62.0511 124.1 61.9628 124.535 61.6789 124.932C60.9742 126.255 60.5534 127.181 60.1327 128.108C60.0649 128.509 59.997 128.911 59.6465 129.803C58.9264 131.23 58.489 132.165 58.0516 133.101C57.0558 135.196 56.0601 137.291 54.754 139.937C53.6522 142.359 52.8607 144.23 52.0693 146.102C51.0798 148.203 50.0903 150.305 48.8224 152.924C48.3906 153.996 48.2371 154.551 48.0836 155.106C48.0275 155.508 47.9715 155.91 47.6179 156.824C46.0388 159.6 44.7571 161.864 42.9395 165.075C41.5665 162.05 40.5834 160.33 39.9835 158.485C37.5249 150.923 33.2855 145.501 24.8976 143.838C21.101 143.085 17.2912 141.496 13.9574 139.502C7.08606 135.39 3.95377 128.55 2.00815 120.685C1.9328 119.231 1.85608 118.174 1.82932 116.738C1.25143 114.268 0.623566 112.178 0 109.673C0.01474 107.874 0.0251461 106.49 0.287567 104.892C0.693695 103.816 0.847809 102.955 1.23703 101.918C1.63534 101.188 1.79858 100.635 2.21078 99.9154C2.62418 99.1906 2.78864 98.6319 3.19092 97.8996C3.60452 97.1774 3.78027 96.6287 4.20541 95.9141C4.6217 95.1902 4.78863 94.6321 5.20694 93.875C5.65582 92.8549 5.8533 92.034 6.26114 91.0805C6.73227 90.7202 6.88855 90.4352 6.98251 89.8708C7.02472 89.6488 7.05933 89.1982 7.34653 89.0097C8.08725 87.5775 8.54077 86.3337 9.24429 84.8757C9.67151 83.8105 9.84866 82.9595 10.3056 81.8505C11.2874 77.5458 12.0728 73.5115 12.6738 69.4499C13.8799 61.2984 15.363 53.121 11.9871 45.0916C11.9659 44.6516 11.9446 44.2115 11.8864 43.0834C10.9054 40.2728 9.9613 38.1503 9.01718 36.0279C8.6669 33.9528 8.31665 31.8777 8.19949 29.2724C8.63272 28.1974 8.83286 27.6526 9.03299 27.1079C9.68469 25.6715 10.3364 24.235 11.2238 22.2683C11.5695 21.1792 11.6793 20.6203 11.7891 20.0615C12.1079 19.5808 12.4268 19.1002 13.192 18.3307C14.4319 17.3954 15.2254 16.7489 16.019 16.1025C16.8955 15.5909 17.7721 15.0793 19.1582 14.2818C23.4481 10.0296 27.2285 6.06325 31.0089 2.09691C31.585 1.5623 32.161 1.0277 33.1915 0.244218C34.1065 -0.00297356 34.567 -0.00135707 35.0274 0.000260926C36.7609 1.67674 38.4944 3.35326 40.6349 5.40001C42.0242 6.549 43.0065 7.32771 43.9889 8.10643C45.598 9.57503 47.2072 11.0437 48.9421 13.1894C48.7881 15.9503 48.5083 18.034 48.2284 20.1176C48.1492 21.1771 48.07 22.2366 47.7377 23.9379C47.3727 25.7574 47.2607 26.9351 47.1488 28.1127Z" fill="#61131B"/>
</svg>
