<svg width="6" height="18" viewBox="0 0 6 18" fill="none" xmlns="http://www.w3.org/2000/svg">
<path d="M5.02234 14.0022C5.05457 14.7292 5.08685 15.4562 4.87012 16.8358C3.7688 16.5801 2.27783 15.7345 2.18152 14.7521C1.86792 11.5543 2.06415 8.30652 2.06415 5.07797C1.91534 5.08698 1.76654 5.09595 1.6178 5.10495C1.07849 9.39719 0.539246 13.6894 0 17.9817C0.004578 12.9597 0.00915515 7.93762 0.304077 2.28082C0.750854 1.09732 0.907227 0.548675 1.0636 0C1.50806 0.001464 1.95251 0.002929 2.73022 0.467041C3.06549 4.02396 2.8783 7.1355 3.1582 10.2045C3.27783 11.5161 4.37134 12.739 5.02234 14.0022Z" fill="#230609"/>
</svg>
