<svg width="23" height="116" viewBox="0 0 23 116" fill="none" xmlns="http://www.w3.org/2000/svg">
<path d="M22.5367 4.59521C20.4822 10.0662 18.5415 15.3942 15.9512 20.3853C10.8758 30.1646 13.0284 40.4832 13.083 50.6735C13.1345 60.2697 13.2245 69.8699 13.0068 79.4617C12.8794 85.0727 12.1349 90.6677 11.7554 96.2758C11.353 102.221 11.0541 108.173 10.7041 114.582C7.57645 115.041 4.45471 115.041 0 115.041C7.68201 85.5647 7.46735 56.6871 2.15588 27.45C4.83002 30.9758 7.14304 34.8336 9.45605 38.6913C9.88556 38.4687 10.3151 38.2461 10.7446 38.0235C10.7446 25.349 10.7446 12.6745 10.7446 0C14.6154 1.43335 18.4861 2.8667 22.5367 4.59521Z" fill="#0F1223"/>
</svg>
