<svg width="47" height="29" viewBox="0 0 47 29" fill="none" xmlns="http://www.w3.org/2000/svg">
<path d="M7.52673 13.0866C6.58673 11.3843 5.86707 9.4784 4.62189 8.02155C3.51904 6.73119 1.83179 5.94032 0 4.6441C8.05969 -1.01865 16.5197 -0.0731426 25.8635 0.296043C21.186 8.03004 25.3304 12.2329 31.348 16.2096C31.9503 16.8025 32.1938 16.9684 32.6664 17.3041C33.4037 17.7555 33.9631 17.9614 34.689 18.4576C38.8347 21.6519 42.8137 24.5559 46.7927 27.4598C46.5353 27.8048 46.2778 28.1497 46.0203 28.4947C36.6993 27.012 27.3784 25.5294 18.6199 24.1363C17.5355 22.075 16.5001 20.1068 15.2408 17.8285C13.2108 17.3551 11.4046 17.1918 9.54126 16.703C8.82489 15.2716 8.16571 14.1657 7.50647 13.0597C7.50647 13.0597 7.51849 13.0783 7.52673 13.0866Z" fill="#202135"/>
</svg>
