<svg width="9" height="14" viewBox="0 0 9 14" fill="none" xmlns="http://www.w3.org/2000/svg">
<path d="M5.03164 9.90048C5.03164 9.90048 4.86953 10.2411 4.63418 10.597C4.26583 11.277 4.1329 11.6013 3.9999 11.9255C3.68789 12.3782 3.37594 12.8309 2.95413 13.5345C1.97512 12.9966 1.10586 12.2077 0.0766243 11.1647C-0.0548457 10.4749 -0.0263419 10.0393 0.234156 9.04373C0.777064 7.62936 1.08785 6.77496 1.39871 5.92056C1.57137 5.84296 1.70004 5.71951 2.0596 5.17957C2.527 4.41153 2.71957 4.0141 2.91207 3.6167C2.91207 3.6167 2.96371 3.59052 2.96572 3.56528C4.06301 2.40518 5.15817 1.27032 6.55007 0C7.3489 0.874787 7.85104 1.88504 8.71218 3.01483C8.07644 4.84463 7.08151 6.55487 5.97293 8.58209C5.85928 8.89905 5.89004 8.90576 5.67959 9.00037C5.2004 9.29675 5.05459 9.56528 5.03164 9.90048Z" fill="#8F2D31"/>
</svg>
