<svg width="39" height="4" viewBox="0 0 39 4" fill="none" xmlns="http://www.w3.org/2000/svg">
<path d="M35.7432 0.248248C36.7789 -0.0124936 37.5026 -0.0193304 38.5862 0.0143006C37.0936 0.84859 35.2409 1.64235 33.1667 2.70607C32.2336 2.98629 31.522 2.99654 30.2099 3.07619C29.3975 3.402 29.1856 3.65828 28.9738 3.91463C28.9738 3.91463 28.5002 3.96346 27.8056 3.96169C24.376 3.97512 21.6411 3.99025 18.9061 4.00551C18.9061 4.00551 18.4354 3.97445 17.9332 3.67305C14.9478 3.54934 12.4647 3.72707 9.98163 3.9048C9.53558 3.91646 9.08954 3.92812 8.30902 3.94643C7.97455 3.95296 7.97607 3.91475 7.91156 3.56337C6.5531 3.11971 5.25922 3.02742 3.96533 2.9352C3.52271 2.93477 3.08002 2.93441 2.27014 2.62856C1.26862 1.5826 0.634277 0.842121 0 0.101581C6.39661 0.696308 12.7869 1.66213 19.1918 1.77181C24.5961 1.8644 30.0173 0.963336 35.7432 0.248248Z" fill="#150506"/>
</svg>
