<svg width="20" height="41" viewBox="0 0 20 41" fill="none" xmlns="http://www.w3.org/2000/svg">
<path d="M19.5487 17.093C18.2351 22.4354 16.5595 27.2562 15.8375 32.2158C15.1812 36.7233 13.0158 39.9341 8.92853 40.7409C6.50467 41.2194 3.54217 39.6596 1.0242 38.555C0.255462 38.2178 0.159424 36.3472 0 34.6514C0.416351 33.6088 0.587982 33.0937 0.759674 32.5786C0.759674 32.5786 0.705475 32.5928 0.705475 32.6211C3.68091 25.4643 6.6583 18.28 9.63062 11.0938C10.6454 8.64038 11.2334 5.86786 12.7834 3.82251C14.0818 2.10907 16.497 1.24188 18.4177 0C18.8125 0.424744 19.2072 0.849549 19.6019 1.27435C19.6019 6.39349 19.6019 11.5127 19.5487 17.093Z" fill="#41536A"/>
</svg>
