<svg width="13" height="14" viewBox="0 0 13 14" fill="none" xmlns="http://www.w3.org/2000/svg">
<path d="M2.87457 4.93395C3.56592 3.16017 4.23212 1.75954 4.93842 0.00584477C6.97613 -0.0460502 8.97382 0.255097 11.3492 0.612641C11.8956 0.930008 12.1003 1.15865 12.5319 1.48395C12.7618 2.96384 12.8008 4.3147 12.8268 6.07208C12.8136 6.47861 12.8295 6.50594 12.6019 6.59967C12.1035 6.88033 11.9127 7.12878 11.8022 7.43881C11.8022 7.43881 11.8132 7.4987 11.4945 7.51842C10.7574 7.91513 10.3391 8.29212 9.92065 8.66911C9.40497 9.20658 8.88928 9.744 7.89111 10.4927C7.12232 10.8864 6.92188 11.1375 6.80737 11.4572C6.80737 11.4572 6.81573 11.5157 6.45032 11.5066C5.34845 12.1839 4.61206 12.8704 3.87567 13.557C3.87567 13.557 3.85962 13.5464 3.87207 13.5528C2.66809 13.3967 1.45166 13.2341 0 13.0401C1.05853 10.1674 1.95398 7.73724 2.87457 4.93395Z" fill="#CC2A2D"/>
</svg>
