<svg width="33" height="9" viewBox="0 0 33 9" fill="none" xmlns="http://www.w3.org/2000/svg">
<path d="M33.0078 5.16808C32.5174 5.61901 32.0269 6.06994 30.832 6.4833C26.3836 6.06164 22.6395 5.67751 18.5655 5.22649C17.7887 5.1758 17.3418 5.19201 16.4817 5.12792C14.6697 5.08343 13.271 5.11919 11.8722 5.15496C11.1231 5.18603 10.3741 5.2171 8.90175 5.3131C5.97878 6.27895 3.77913 7.17986 1.57943 8.0808C1.57943 8.0808 1.21035 8.06692 0.737387 8.10314C0.183249 7.2116 0.10201 6.28381 0.00606346 5.34377C-0.00870654 5.33151 -0.022746 5.3276 0.303854 5.28521C1.71486 4.55245 2.79934 3.86209 4.17562 3.14544C4.93703 2.80874 5.4067 2.49832 6.27181 2.16177C14.6358 -0.627661 22.7417 -0.386848 30.9013 1.02676C30.9013 1.02676 31.2746 1.20748 31.5745 1.57317C32.2523 3.01528 32.63 4.09167 33.0078 5.16808Z" fill="#A12E32"/>
</svg>
