<svg width="39" height="14" viewBox="0 0 39 14" fill="none" xmlns="http://www.w3.org/2000/svg">
<path d="M0.0133881 9.22504C-0.0666599 8.70642 0.208732 8.23688 0.93447 7.46906C2.16167 6.19113 2.93853 5.21149 3.70782 3.96216C3.6809 3.5137 3.66155 3.33493 3.66958 3.16992C3.69695 3.18375 3.63628 3.19214 3.86581 3.12048C4.3865 2.8862 4.5982 2.65173 4.88018 2.26642C5.02996 2.18738 5.36831 2.17157 5.64522 2.12567C6.19082 1.83316 6.45949 1.58655 6.88735 1.26257C7.0465 1.18518 7.40035 1.17624 7.65481 1.13971C8.16662 0.890625 8.42394 0.678101 8.97582 0.358582C9.67736 0.167756 10.0844 0.083862 10.4914 0C11.4146 0.505585 12.3646 1.48706 13.2566 1.43692C17.8515 1.17853 22.4253 0.56598 27.0184 0.248505C32.1693 -0.107482 35.6397 2.71573 38.5625 6.98883C29.116 9.58936 19.6041 12.3873 9.89101 13.8358C7.00777 14.2657 3.55865 10.9005 0.0133881 9.22504Z" fill="#0F1223"/>
</svg>
