<svg width="33" height="51" viewBox="0 0 33 51" fill="none" xmlns="http://www.w3.org/2000/svg">
<path d="M7.7077 3.61197C10.8451 6.83728 14.1114 6.16391 17.3766 4.3642C19.8029 3.02681 22.1045 1.46298 24.4617 0C23.3638 1.16876 22.2658 2.33752 21.1679 3.50629C25.0695 5.87324 28.971 8.2402 32.9183 10.6349C30.5866 12.5396 27.367 15.1697 23.8344 18.2854C23.3571 19.1154 23.1929 19.4599 23.0286 19.8044C23.0286 19.8044 23.0818 19.8263 22.806 19.8634C22.3701 20.2013 22.2099 20.5021 22.0498 20.8028C22.0498 20.8028 22.0703 20.8345 21.7508 20.9604C20.6324 22.6561 19.8334 24.2258 19.0345 25.7956C19.0345 25.7956 19.0774 25.8234 18.7486 26.0041C16.502 34.0475 14.584 41.9101 12.481 50.5313C11.5807 47.181 10.0988 44.2228 10.1322 41.2819C10.2126 34.2028 10.6865 27.0895 11.6226 20.0729C12.2049 15.7083 11.8178 12.3121 7.06345 9.46194C5.61536 13.4791 4.29721 17.1357 2.6525 20.763C1.55057 19.7966 0.775299 18.8596 0 17.9226C1.41293 12.6584 2.33493 7.13818 7.7077 3.61197Z" fill="#C22F32"/>
</svg>
