<svg width="14" height="42" viewBox="0 0 14 42" fill="none" xmlns="http://www.w3.org/2000/svg">
<path d="M9.26259 0.0113979C7.01429 8.62044 11.5342 16.3143 12.8187 25.1422C13.1049 26.5181 13.143 27.2312 13.1642 28.4039C12.859 32.9307 12.6122 37.0021 12.198 41.0563C12.1672 41.3585 10.9365 41.5382 10.129 41.5137C9.1273 40.4751 8.26023 39.6976 7.25126 38.7045C6.81196 38.3346 6.5146 38.1805 5.99846 37.9946C5.77974 37.9629 5.3397 37.9209 5.3397 37.9209C-2.3929 33.0466 0.564283 25.4723 0.515912 18.6738C0.508985 17.7001 1.27195 16.5824 0.989728 15.7709C-1.71627 7.98943 4.13276 4.44228 8.87501 0.0653835C9.20869 -0.0369115 9.26259 0.0113979 9.26259 0.0113979Z" fill="#2D3C4F"/>
</svg>
