<svg width="5" height="26" viewBox="0 0 5 26" fill="none" xmlns="http://www.w3.org/2000/svg">
<path d="M5.00842 17.4329C4.84628 19.1918 4.68942 20.5535 4.52356 21.9142C4.37628 23.1227 4.21903 24.3301 4.06616 25.5379C2.75778 25.225 1.4494 24.912 0.453186 24.1405C1.11816 21.406 1.89059 19.1003 1.73206 16.8605C1.44687 12.8311 0.603333 8.84128 0 4.46616C0.356629 2.67691 0.706299 1.25644 1.29266 0C2.03152 0.727356 2.53369 1.29074 3.03583 1.8541C3.02542 3.23795 3.01501 4.62183 2.73218 6.64926C3.23309 9.48358 4.00635 11.6743 4.77963 13.8651C4.85635 14.9218 4.93307 15.9785 5.00842 17.4329Z" fill="#040407"/>
</svg>
