<svg width="41" height="37" viewBox="0 0 41 37" fill="none" xmlns="http://www.w3.org/2000/svg">
<path d="M2.74646 2.67031C5.66925 2.75527 8.60168 2.99977 11.5087 2.82384C12.335 2.77379 13.0872 1.49974 13.829 0.345294C21.9317 -0.119 30.0789 -0.141552 38.6747 0.440113C39.4483 7.23665 39.7732 13.429 40.0981 19.6213C40.1787 23.6523 40.2594 27.6833 40.0397 32.2523C39.664 32.8832 39.5081 33.0347 39.5261 33.0593C39.6635 33.2476 39.8347 33.4111 39.9953 33.5824C40.0749 33.7421 40.1545 33.9019 40.2804 34.3256C39.9715 35.0727 39.6163 35.556 39.0947 36.2907C37.5734 36.5695 36.2183 36.5968 34.4613 36.5633C33.9592 34.9475 33.8592 33.3926 33.8694 31.2243C34.296 29.9392 34.6123 29.2674 35.114 28.2204C35.453 21.4761 35.8807 15.0925 35.5481 8.74883C35.4742 7.33956 32.7211 6.07076 30.8436 4.53972C25.1726 1.86946 21.2423 5.12511 17.0174 7.23418C15.9744 6.44707 15.0303 5.99507 13.8938 5.82454C6.14777 11.8485 4.54425 20.6315 1.69751 28.8606C0.917725 28.694 0.469544 28.6156 0.0213013 28.5372C0.0213013 28.5372 0.009094 28.6192 0 28.1602C0.049683 21.2953 -0.0867921 14.8781 0.282898 8.49019C0.397583 6.50936 1.88666 4.60805 2.74646 2.67031Z" fill="#CDD0DB"/>
</svg>
