<svg width="82" height="31" viewBox="0 0 82 31" fill="none" xmlns="http://www.w3.org/2000/svg">
<path d="M0 0.0537114C1.61945 0.0325934 3.77362 -0.2406 5.07721 0.684571C9.10034 3.53998 13.1395 6.5257 16.541 10.0672C21.2179 14.937 26.5972 18.3309 33.2621 18.5161C46.426 18.8817 59.6058 18.7177 72.7785 18.6508C73.9971 18.6446 75.2113 17.7645 76.6658 16.9923C78.3568 18.0621 79.8095 19.4299 81.334 20.8652C75.5834 27.6243 68.2305 29.5613 60.9248 30.3649C47.8168 31.8066 34.7417 30.663 22.3512 25.7706C19.4793 24.6368 16.9271 22.0346 14.8957 19.5599C9.77606 13.3231 5.03711 6.7738 0 0.0537114Z" fill="#141123"/>
</svg>
