<svg width="161" height="45" viewBox="0 0 161 45" fill="none" xmlns="http://www.w3.org/2000/svg">
<path d="M21.6598 35.7924C15.5249 36.2273 9.16299 36.6647 2.82653 36.4257C0.445917 36.3358 -0.868566 34.2364 0.649012 31.5994C0.731715 31.4557 0.789973 31.2976 0.85705 31.1451C2.39141 27.6574 3.05581 22.9412 5.72256 21.0535C8.03717 19.415 12.6176 21.0666 16.1984 21.1083C22.8477 21.1856 22.7457 21.136 22.8953 14.3243C22.9933 9.8635 23.4409 5.4104 23.9961 0.280796C25.7826 -0.211117 27.305 -0.0299644 28.8324 0.615635C28.837 6.08823 28.8364 11.0963 28.5818 16.3238C28.5053 17.7409 28.6829 18.9387 29.1565 20.1184C29.6473 20.0657 29.8421 20.0313 29.9974 20.0371C29.958 20.0773 29.9692 19.9652 29.9704 20.3741C31.2472 21.5621 32.4515 22.8111 33.8138 23.0175C36.2556 23.3874 38.8111 22.9377 41.2853 23.1778C45.5404 23.5909 46.9316 21.5206 46.8712 17.62C46.7811 11.7949 46.8594 5.96729 46.8661 0.14072C52.0423 -0.201595 51.5408 3.29248 51.561 6.75553C51.5922 12.0821 51.9539 17.4068 52.7152 23.2726C54.7396 24.2496 56.2121 25.0059 57.7111 25.0627C62.0856 25.2285 66.4707 25.115 70.8516 25.111C74.4332 24.6847 76.7772 25.5174 77.3477 29.7707C77.8973 33.8693 81.8218 34.8465 84.9542 34.8476C98.9963 34.8525 113.039 34.3983 127.079 34.0237C127.486 34.0129 127.867 33.0418 128.172 32.043C128.439 31.0843 128.795 30.601 129.15 30.1178C133.741 29.1187 130.794 24.9466 132.58 22.7216C132.87 23.235 132.875 23.6733 132.96 24.5053C138.034 27.3631 142.99 26.6143 144.863 22.6558C144.859 18.8413 144.854 15.484 144.854 11.6729C144.866 8.19584 144.874 5.17243 144.882 2.14905C144.882 2.14905 145.376 2.14753 145.626 2.47464C145.884 3.23462 145.891 3.66745 145.886 4.53757C146.2 10.2245 146.72 15.4719 146.781 20.7246C146.817 23.8052 148.327 24.3617 151.096 24.4457C154.261 24.7222 157.143 24.7222 160.795 24.7222C160.795 26.0602 160.795 27.6181 160.795 29.1761C159.299 29.193 157.78 29.0514 156.311 29.2605C153.43 29.6707 151.249 30.7814 151.84 34.3829C152.581 38.8955 150.195 41.3161 146.066 42.1703C142.197 42.9707 138.282 43.9527 134.367 44.0447C123.557 44.2985 112.679 44.8429 101.936 43.9569C86.3565 42.6721 71.0097 40.8602 56.4308 33.4361C47.1042 28.6867 35.8586 27.6317 25.4072 25.205C21.6168 24.3249 17.6345 24.2713 13.8072 23.848C12.6229 30.1979 13.8727 31.9577 21.6598 35.7924Z" fill="#0F1223"/>
</svg>
