<svg width="13" height="13" viewBox="0 0 13 13" fill="none" xmlns="http://www.w3.org/2000/svg">
<path d="M12.9937 3.02092C9.24274 6.55075 5.47369 9.71271 1.15424 12.9213C0.347291 12.6406 0.090881 12.3133 0 11.7499C0.469787 11.0314 0.774048 10.549 1.06586 10.0602C1.05341 10.0538 1.06946 10.0643 1.38391 10.0238C2.45807 9.31294 3.21777 8.64267 3.99347 7.99773C4.00952 8.02306 4.00116 7.96458 4.2348 7.88354C4.76099 7.61752 4.95715 7.35936 5.31219 6.90839C6.08307 6.25134 6.59875 5.71391 7.39972 5.11345C8.11041 4.68881 8.53595 4.32719 8.98419 3.98581C9.00696 4.00604 8.99597 3.94615 9.22321 3.86319C9.7337 3.59338 9.91797 3.33575 10.0132 3.01031C10.0233 3.01327 10.0074 2.98595 10.3058 2.86313C11.0963 1.82686 11.5883 0.913421 12.0803 0C12.3788 0.884338 12.6772 1.76869 12.9937 3.02092Z" fill="#62121A"/>
</svg>
