<svg width="42" height="24" viewBox="0 0 42 24" fill="none" xmlns="http://www.w3.org/2000/svg">
<path d="M17.1481 3.60448C16.8531 3.51414 16.6097 3.34833 16.3151 2.91029C16.2764 1.8739 16.34 1.03429 16.6268 0C23.4824 5.26141 30.1954 10.6241 36.699 16.2298C38.6787 17.9361 40.0812 20.3121 41.748 22.3813C41.4136 22.6707 41.0792 22.96 40.7448 23.2492C40.1225 22.7937 39.5002 22.3382 38.3752 21.468C33.4049 19.4111 28.9373 17.769 24.162 15.9249C21.3447 15.2851 18.8351 14.8475 16.3254 14.4099C16.3254 14.4099 16.3075 14.4518 15.9937 14.1749C11.1745 13.5839 6.66919 13.2698 2.16388 12.9557C1.73987 12.8561 1.3158 12.7565 0.577881 12.3606C0.263977 12.0643 0.19159 11.6311 0.276978 11.2088C0.227662 8.81335 0.092957 6.84013 0 4.82156C0.04181 4.77623 0.124084 4.68439 0.124084 4.68439C1.15948 6.65257 2.19489 8.62076 3.2793 10.682C12.0377 12.0752 21.3587 13.5578 30.6797 15.0404C30.9371 14.6955 31.1946 14.3506 31.4521 14.0056C27.473 11.1017 23.494 8.19771 19.1919 4.73474C18.2952 3.98532 17.7217 3.79489 17.1481 3.60448Z" fill="#2F0404"/>
</svg>
