<svg width="75" height="316" viewBox="0 0 75 316" fill="none" xmlns="http://www.w3.org/2000/svg">
<path d="M58.7747 247.636C61.7378 263.052 64.3352 278.204 67.5906 293.214C69.0913 300.134 71.8788 306.774 74.3516 313.765C74.6959 314.48 74.7715 314.971 74.5636 315.833C69.1234 313.754 63.9666 311.302 58.8099 308.851C58.8099 308.851 58.7367 308.929 58.6406 308.607C56.3031 306.803 54.0616 305.322 51.8202 303.841C51.8202 303.841 51.7379 303.923 51.6556 303.599C49.9795 302.144 48.3858 301.012 46.7922 299.88C46.7922 299.88 46.7343 299.95 46.6394 299.623C42.9708 296.144 39.397 292.992 35.8232 289.84C35.8232 289.84 35.7641 289.938 35.7349 289.578C32.4125 285.43 29.1192 281.642 25.8259 277.854C25.8259 277.854 25.7832 277.964 25.7509 277.586C23.0808 273.764 20.4428 270.321 17.8048 266.877C17.8048 266.877 17.7636 266.968 17.7466 266.585C13.383 257.607 8.52409 249.228 4.80207 240.371C-1.91283 224.392 -0.435279 207.544 2.32276 191.159C5.59928 171.695 9.58073 152.239 14.9641 133.263C24.2087 100.678 34.6327 68.4228 44.8641 36.1247C48.722 23.9461 53.4205 12.0337 57.7359 0C58.2029 0.26123 58.67 0.522431 59.4126 1.28229C62.307 9.76788 66.0017 16.8271 64.1006 26.4533C59.8262 48.0956 57.3404 70.1388 55.0938 92.1177C53.5068 107.643 53.5067 123.331 52.7981 138.947C52.7315 140.344 52.665 141.741 52.4622 143.898C52.4739 149.757 52.6218 154.856 52.7698 159.955C52.7288 160.408 52.6878 160.861 52.6436 162.11C53.4033 181.45 53.8856 200.013 55.048 218.533C55.6247 227.722 57.4514 236.832 58.7126 245.978C58.7011 246.423 58.6896 246.868 58.7747 247.636Z" fill="#D1292C"/>
</svg>
