<svg width="38" height="47" viewBox="0 0 38 47" fill="none" xmlns="http://www.w3.org/2000/svg">
<path d="M37.3922 39.0001C36.7637 40.0871 35.7932 41.2033 34.7707 42.6583C34.249 43.3076 33.7794 43.618 32.8186 43.713C31.1581 44.3773 29.9889 45.2571 28.8196 46.1368C28.8196 46.1368 28.8336 46.1408 28.8484 46.153C27.4754 46.1092 26.0877 46.0531 24.2906 45.9899C23.8254 45.5477 23.7697 45.1126 23.9698 44.149C23.7245 42.7501 23.2231 41.8797 22.7218 41.0093C22.6858 40.6115 22.6498 40.2137 22.5723 39.2612C22.2867 38.4769 22.0427 38.2471 21.7988 38.0174C20.5933 33.561 19.3876 29.1047 17.8597 24.1334C17.2783 23.4168 17.0191 23.2152 16.7599 23.0136C11.1761 17.5586 5.59247 12.1036 0 6.01786C0.221619 4.21943 0.451904 3.0517 0.791992 1.63309C1.21381 0.929481 1.52576 0.476753 2.08038 0.0167917C2.32306 0.00958969 2.80725 -0.0261469 3.14832 0.0357431C5.89319 3.07242 8.29706 6.04728 10.8558 9.31904C18.4449 17.0981 22.2524 26.7459 26.7499 36.3674C27.2781 38.5038 27.8094 40.2524 28.4921 42.4995C30.6741 41.4329 32.2269 40.6739 33.7797 39.9149C34.8699 39.6197 35.96 39.3244 37.3922 39.0001Z" fill="#040407"/>
</svg>
