<svg width="74" height="87" viewBox="0 0 74 87" fill="none" xmlns="http://www.w3.org/2000/svg">
<path d="M0.0156201 34.4671C5.27386 34.0342 4.8558 38.6606 4.72155 41.2766C4.12555 52.8895 10.029 61.5209 16.5467 70.0693C19.888 74.4517 23.4965 72.8174 26.9312 70.615C37.2251 64.0144 44.4336 54.6025 50.881 44.3905C59.1775 31.2499 59.6355 16.7798 58.9477 1.54938C63.3598 0.756286 67.7774 0.429199 73.5738 0C72.5546 8.96735 72.0141 17.3302 70.5841 25.5381C67.8075 41.4743 60.7778 55.6778 49.7536 67.3415C43.0965 74.3847 34.7786 79.8783 27.0351 85.845C26.2169 86.4755 23.5866 86.1544 22.8949 85.3411C10.4731 70.736 -0.470769 55.3954 0.0156201 34.4671Z" fill="#1E2C3F"/>
</svg>
