<svg width="176" height="89" viewBox="0 0 176 89" fill="none" xmlns="http://www.w3.org/2000/svg">
<path d="M101.905 82.9077C99.8724 80.9499 97.8401 78.9921 95.4023 76.6328C94.6914 76.0519 94.3859 75.8724 94.0805 75.6929C94.0805 75.6929 93.9729 75.8864 93.9503 75.5569C93.6344 75.0599 93.3412 74.8925 93.048 74.725C93.048 74.725 92.9366 74.8612 92.9186 74.5651C92.615 74.0921 92.3296 73.9151 92.0442 73.7381C92.0442 73.7381 91.9756 73.8704 91.9725 73.5133C91.8341 72.7625 91.6987 72.3688 91.9103 71.8508C98.2456 68.4476 104.234 65.1687 110.222 61.8899C110.078 61.2314 109.933 60.5729 109.788 59.9145C98.8244 59.9145 87.8609 59.9145 76.5778 59.7801C65.1283 53.4721 53.9983 47.2986 42.6866 41.0057C42.5049 40.8864 42.0751 40.8226 41.9569 40.6018C41.587 40.1057 41.281 40.0157 40.7233 40.0005C40.5261 39.89 40.0792 39.8212 39.9621 39.5982C39.5367 39.2866 39.2284 39.198 38.7174 39.0024C38.5147 38.8953 38.0628 38.8177 37.8789 38.526C35.1462 37.0664 32.5975 35.8984 29.8123 34.476C26.0098 32.8407 22.4439 31.4597 18.6389 29.9575C18.05 29.7793 17.7001 29.7223 17.106 29.4064C15.545 28.7307 14.228 28.3139 12.7672 27.8006C12.6234 27.7042 12.2792 27.6647 12.0213 27.4087C7.84227 25.6969 3.92113 24.2412 1.30521e-05 22.7854C1.30521e-05 22.7854 -0.00535773 22.3766 0.201795 22.0586C0.696851 21.5205 0.829114 21.2296 0.805738 20.868C1.17909 20.5013 1.55247 20.1346 2.25657 19.376C2.81477 18.6707 3.04222 18.3574 3.26964 18.0441C3.72404 17.7999 4.17845 17.5557 5.08372 16.9939C7.0518 15.1191 8.56898 13.562 10.3631 11.8627C11.7341 10.7814 12.8284 9.84225 14.2432 8.92541C15.353 8.27021 16.1423 7.59268 17.2381 6.82225C18.7055 5.82635 19.8661 4.92333 21.3655 3.93098C23.8255 2.71554 25.9467 1.58943 28.4708 0.494685C31.6628 0.3417 34.4514 0.0125688 37.2412 0.00243675C43.4709 -0.0202072 49.7012 0.116267 56.3074 0.357585C57.7732 0.559031 58.8629 0.590785 60.3229 0.74113C62.3942 2.20478 67.4418 -0.754796 65.8621 4.8672C65.895 4.88191 65.8897 4.80995 65.6395 4.9019C65.2023 5.28643 65.0154 5.57902 64.8638 5.87611C64.8992 5.88061 64.8892 5.81002 64.6388 5.90168C64.2017 6.28604 64.015 6.57872 63.8645 6.87287C63.9006 6.87434 63.8699 6.80888 63.585 6.91011C62.8005 7.6132 62.3008 8.21505 61.8503 8.82295C61.8994 8.82898 61.8262 8.7624 61.4947 8.82508C59.0569 10.8782 56.9505 12.8686 54.8731 14.8745C54.9021 14.8899 54.8981 14.8244 54.6401 14.9034C54.2004 15.2784 54.0188 15.5745 53.8726 15.8704C53.9078 15.8702 53.8675 15.8124 53.534 15.8776C50.0721 19.0714 46.9437 22.2001 43.8153 25.3288C44.1424 25.6894 44.4695 26.0501 44.7965 26.4107C47.4431 25.5607 50.0749 24.6614 52.7386 23.8692C67.1346 19.5872 81.9115 19.3862 97.0645 19.9644C98.8558 22.2814 100.182 24.5664 101.851 26.5655C102.9 27.8233 104.463 28.6528 105.796 29.6744C106.497 28.1187 107.342 26.6091 107.859 24.9944C108.4 23.3045 108.625 21.5136 109.306 19.8439C110.047 20.0206 110.471 20.1203 111.179 20.457C115.974 21.0311 120.484 21.3681 125.017 21.7105C125.039 21.7159 125.057 21.6741 125.211 21.9947C127.18 22.827 128.993 23.3386 130.832 24.2586C132.811 29.1211 134.254 33.9224 136.945 37.8746C138.186 39.6972 141.862 40.427 144.441 40.4401C145.247 40.4442 146.298 36.5393 146.82 34.3253C147.229 32.5902 146.994 30.7034 147.327 29.0154C148.232 29.6023 148.854 30.0579 149.476 30.5134C149.811 30.2241 150.145 29.9348 150.479 29.6455C148.813 27.5762 147.41 25.2003 145.43 23.4939C138.927 17.8883 132.214 12.5256 125.581 7.06947C125.805 6.9842 126.03 6.89894 126.945 6.70301C135.665 5.41638 143.695 4.24037 151.724 3.06437C151.724 3.06437 151.882 3.05255 151.852 3.30076C152.207 3.86541 152.592 4.18185 152.978 4.49829C152.978 4.49829 153.293 4.8245 153.618 5.1524C154.253 5.63958 154.562 5.79885 154.87 5.95814C154.87 5.95814 154.906 5.8934 154.968 6.15278C155.328 6.54402 155.626 6.67587 155.925 6.80772C156.688 7.45236 157.45 8.09698 158.606 9.08973C159.306 9.5798 159.612 9.72174 159.918 9.86366C160.144 10.1215 160.369 10.3793 160.943 11.0176C162.127 11.9423 162.962 12.4866 163.798 13.0309C163.798 13.0309 163.904 12.9726 163.934 13.225C164.259 13.6468 164.555 13.8162 164.85 13.9857C164.85 13.9857 164.901 13.9045 164.946 14.1768C165.289 14.613 165.586 14.7769 165.883 14.9408C165.883 14.9408 165.911 14.8924 165.971 15.1518C166.321 15.5791 166.611 15.747 166.9 15.915C166.9 15.915 166.911 15.8921 166.977 16.1445C167.329 16.5686 167.615 16.7403 167.902 16.912C167.902 16.912 167.911 16.8922 167.974 17.1456C168.323 17.5742 168.608 17.7496 168.894 17.9249C168.894 17.9249 168.912 17.8927 168.969 18.1504C169.313 18.5844 169.599 18.7608 169.885 18.9372C169.885 18.9372 169.911 18.8929 169.964 19.1554C170.3 19.5998 170.584 19.7817 170.868 19.9635C170.868 19.9635 170.906 19.8981 170.952 20.1663C171.285 20.614 171.572 20.7935 171.86 20.973C171.86 20.973 171.904 20.9008 171.94 21.1725C172.255 21.6362 172.534 21.8282 172.812 22.0203C172.812 22.0203 172.889 21.9206 172.911 22.2123C173.212 22.7222 173.491 22.9406 173.77 23.1589C174.03 23.6293 174.29 24.0998 174.815 24.9682C175.341 25.5654 175.601 25.7646 175.861 25.9638C175.861 25.9638 175.904 25.8966 175.901 26.3013C175.833 27.7195 175.768 28.733 175.704 29.7466C175.704 29.7466 175.879 29.7233 175.559 29.8041C174.954 30.0867 174.786 30.3611 174.74 30.7531C174.744 30.7983 174.801 30.7281 174.544 30.8088C174.107 31.1887 173.928 31.488 173.797 31.8055C173.847 31.8238 173.802 31.7283 173.544 31.8091C173.108 32.1891 172.928 32.4883 172.798 32.8061C172.847 32.8247 172.802 32.7291 172.546 32.811C172.11 33.1928 171.931 33.4927 171.8 33.8095C171.848 33.8264 171.808 33.733 171.552 33.8165C171.116 34.1981 170.935 34.4962 170.798 34.8133C170.842 34.8324 170.82 34.7391 170.551 34.8257C170.051 35.2028 169.818 35.4933 169.301 35.9383C164.574 40.261 160.215 44.5238 155.666 48.5723C150.525 53.1475 145.213 57.5302 139.519 61.9316C127.04 61.736 116.34 65.6039 106.374 72.6385C106.032 73.3269 105.803 74.4726 105.973 74.5355C109.333 75.7746 112.795 76.7525 116.098 78.119C116.964 78.4776 117.366 79.9616 117.981 80.9288C117.981 80.9288 117.922 80.8954 117.68 80.979C117.269 81.3429 117.101 81.6232 116.933 81.9036C116.933 81.9036 116.911 81.8927 116.622 82.0012C115.525 83.0372 114.717 83.9647 113.909 84.8923C113.909 84.8923 113.911 84.8927 113.598 84.9915C111.842 86.3911 110.4 87.6919 108.958 88.9927C108.775 88.9819 108.593 88.9711 108.017 88.616C105.717 86.4837 103.811 84.6957 101.905 82.9077ZM43.8432 12.8896C48.8862 12.3619 46.1945 8.88468 45.0049 7.96736C41.1811 5.01863 36.9977 1.67126 31.6777 3.90243C29.8058 4.68747 28.516 6.86042 26.9605 8.39964C28.8311 9.89173 30.5171 12.221 32.6148 12.6835C35.9193 13.4122 39.5007 12.8856 43.8432 12.8896ZM140.931 11.3851C140.656 12.2893 139.919 13.8127 140.175 14.0037C143.404 16.4094 146.626 18.9437 150.233 20.6219C150.978 20.9686 154.605 17.9764 154.64 16.4699C154.755 11.5583 145.596 7.86906 140.931 11.3851ZM58.1005 28.8869C56.1544 29.2356 54.0588 29.2526 52.3109 30.0409C50.9811 30.6407 49.6129 32.0773 49.2121 33.4243C49.0132 34.0932 50.7709 35.8819 51.9572 36.3265C55.8812 37.7971 59.948 38.8865 64.7038 40.3513C62.4234 35.8689 60.6527 32.3882 58.1005 28.8869Z" fill="#D02A2D"/>
</svg>
