<svg width="155" height="74" viewBox="0 0 155 74" fill="none" xmlns="http://www.w3.org/2000/svg">
<path d="M69.457 62.2653C61.5362 52.1396 53.6154 42.0139 45.7972 31.3186C49.5727 31.2424 53.2456 31.7358 56.9184 32.2293C57.1684 31.6188 57.4185 31.0084 57.6686 30.3979C54.049 27.7511 50.6154 24.7849 46.7611 22.5413C42.3087 19.9494 40.9178 20.9696 40.0711 26.3564C38.8069 26.0471 37.6682 25.9592 36.9245 25.3716C28.4807 18.6999 18.7532 14.8481 8.23869 11.9444C0.451639 8.10968 -0.798117 6.34988 0.386148 0C4.21345 0.423249 8.19575 0.476868 11.9861 1.35696C22.4375 3.78366 33.6832 4.83871 43.0097 9.58807C57.5886 17.0122 72.9355 18.8241 88.5144 20.1089C99.2575 20.9948 110.136 20.4505 120.946 20.1966C124.86 20.1047 128.776 19.1227 132.645 18.3223C136.774 17.4681 139.16 15.0475 138.419 10.5349C137.828 6.93335 140.009 5.82272 142.89 5.41251C144.359 5.2034 145.878 5.345 147.541 5.62073C149.264 8.00925 150.689 10.2203 152.407 12.1737C154.921 15.0321 154.723 17.286 151.043 19.2533C145.935 23.9436 141.157 28.5591 136.379 33.1745C131.025 40.6472 125.667 48.1178 120.317 55.5936C117.444 59.6074 114.584 63.6302 111.184 67.9619C105.902 69.9435 101.265 72.462 96.3808 73.1071C85.6189 74.5288 77.0627 69.3045 69.457 62.2653Z" fill="#1F2136"/>
</svg>
