<svg width="103" height="82" viewBox="0 0 103 82" fill="none" xmlns="http://www.w3.org/2000/svg">
<path d="M101.741 25.0716C92.3835 35.1404 82.9331 45.1252 73.7219 55.3261C70.7378 58.6307 68.6809 62.7868 65.6227 66.0049C63.8291 67.8921 61.0335 69.2248 58.4524 69.8901C51.0979 71.7857 43.6052 73.1366 36.199 74.8417C27.8094 76.7731 19.4478 78.8282 11.0882 80.8875C7.89072 81.6752 5.46066 81.0872 4.49661 77.5942C2.87619 71.7228 1.31278 65.8356 0 59.7687C1.92496 64.0892 3.53903 68.6097 5.24063 73.097C6.11911 75.4138 7.43173 76.2175 10.2495 75.5329C23.5869 72.2924 36.9347 69.0023 50.4235 66.5146C57.7132 65.1703 64.2382 63.5297 68.5338 56.8657C70.136 54.3802 72.4052 52.3328 74.2824 50.0146C77.4684 46.0801 80.5847 42.0892 83.7303 38.1221C67.5831 46.5128 40.7035 53.1984 37.2155 48.8493C38.8531 47.9421 40.4916 47.0345 42.1301 46.1269C33.4772 44.3488 27.0138 48.4714 20.3809 53.1326C15.1704 51.9764 17.977 48.2433 18.1238 45.9768C18.4262 41.3114 19.7706 36.7135 20.7099 32.0947C20.7336 32.1015 20.6907 32.0737 21.0137 31.947C22.1227 30.2428 22.9087 28.6654 23.7106 27.1003C23.7265 27.1126 23.7061 27.081 23.9382 26.9854C24.3472 26.6132 24.5242 26.3366 24.7196 26.0822C24.7381 26.1044 24.6848 26.0825 24.9474 25.9412C25.3639 25.4391 25.5179 25.0783 25.7377 24.3978C29.0232 21.4478 32.2429 18.8178 34.5745 16.913C30.6273 14.5183 26.7257 12.1514 22.8242 9.78443C23.9221 8.61566 25.02 7.4469 26.118 6.27814C23.7608 7.74112 21.4592 9.30495 19.0328 10.6423C15.7676 12.442 12.5013 13.1154 9.68912 9.73206C10.5784 8.62117 11.2474 6.91173 12.3906 6.49111C25.1389 1.80053 38.0691 -1.89311 52.6797 1.05268C54.2229 1.09307 54.9721 1.10666 56.075 1.26836C59.1956 1.97083 61.9627 2.52518 65.0869 3.0998C66.1594 3.13614 66.8747 3.15227 67.8268 3.43015C69.6205 4.15447 71.1775 4.61705 73.0283 5.211C74.13 5.58484 74.9378 5.82735 76.0874 6.22803C80.5309 7.27683 84.6327 8.16745 89.1062 9.08008C90.2226 9.11092 90.9673 9.11975 91.8947 9.35955C92.6306 9.76297 93.1837 9.93543 93.7374 10.5549C92.6711 17.7842 91.6046 24.5664 90.4355 31.9997C93.1897 29.5673 95.6051 27.1559 98.3275 25.1642C99.4453 24.3465 101.225 24.4336 102.499 24.2209C102.038 24.5255 101.854 24.7718 101.741 25.0716ZM58.2637 31.9898C58.5431 31.7862 58.7295 31.5181 59.2594 30.9795C59.5345 30.786 59.7198 30.5279 60.4017 30.1498C60.859 29.8195 61.3163 29.4892 62.5108 29.0538C66.1264 27.7799 69.7421 26.506 74.3484 24.8831C72.8641 23.7331 71.8043 22.9121 70.4277 21.5929C69.8765 21.4208 69.3253 21.2486 68.461 20.4693C65.8858 17.6853 63.3106 14.9012 60.6396 11.4706C59.5532 11.4148 58.3296 11.0061 57.4043 11.3655C53.7521 12.7839 50.1895 14.4345 46.6021 16.018C45.2507 16.6145 43.7541 17.0463 42.6161 17.9299C39.7072 20.1885 40.3837 22.4738 43.5837 24.1874C45.6768 25.3082 47.5574 27.3093 48.8279 29.3544C50.2501 31.6438 50.8761 34.428 51.8537 37.6162C52.2427 37.9616 52.6317 38.3069 53.0207 38.6523C53.2506 38.1299 53.4804 37.6074 54.3945 37.0152C54.8756 36.0765 55.3567 35.1377 56.2754 33.9828C56.5562 33.7885 56.7437 33.5272 57.2639 32.979C57.5303 32.7806 57.7145 32.5233 58.2637 31.9898ZM87.2847 35.474C86.9003 35.1703 86.516 34.8667 86.1317 34.563C85.9312 34.9366 85.7308 35.3101 85.5304 35.6836C85.9839 35.7413 86.4373 35.799 87.2847 35.474Z" fill="#202135"/>
</svg>
