<svg width="58" height="36" viewBox="0 0 58 36" fill="none" xmlns="http://www.w3.org/2000/svg">
<path d="M7.15927 10.3243C7.16687 7.09438 4.15732 3.86401 6.82043 0.27665C6.48026 -0.0811605 6.42856 -0.126723 6.39218 0.347581C6.9014 0.867394 7.44702 0.912896 7.98209 0.915414C7.97156 0.872437 7.88696 0.898432 7.47885 1.15733C9.49963 2.63162 11.9286 3.84702 14.5573 5.30338C15.1611 5.60767 15.5651 5.67098 16.2073 5.84257C16.6198 5.95892 16.7941 5.96697 17.2086 6.22937C19.5304 7.23779 21.6121 7.99188 24.7526 9.12954C23.9514 6.9409 23.5353 5.80451 23.0703 4.36443C22.6857 3.3273 22.3502 2.59387 21.9899 1.87762C21.9652 1.8948 21.9133 1.92526 22.2393 1.69991C24.8265 2.67542 27.0878 3.87627 29.4045 5.07073C29.46 5.06434 29.4835 4.95519 29.5458 5.11085C29.6082 5.26651 29.9144 5.40311 30.1549 5.64204C31.2837 5.85057 32.1719 5.82017 33.4138 5.79064C35.1205 5.39047 36.4734 4.98944 38.2047 4.72251C40.1229 4.66201 41.6629 4.46741 43.5905 4.19067C46.9741 3.19925 49.9701 2.28996 53.0369 1.71941C53.6619 3.04084 54.2163 4.02352 54.7707 5.0062C57.7473 8.17665 58.2371 11.4595 56.9753 15.8563C56.0035 19.2422 57.1572 23.2382 57.3648 26.9441C54.2266 28.3693 50.5684 29.7507 47.1799 31.621C36.1639 37.7013 25.3962 37.343 14.5231 31.1838C10.428 28.8641 5.98502 27.1588 2.00308 25.3135C1.4147 20.8785 0.765198 15.983 0 10.2152C1.71411 10.7947 2.95538 11.2142 4.75021 12.0055C5.96179 12.315 6.61975 12.2527 7.27774 12.1905C7.27774 12.1905 7.17856 12.1632 7.43103 11.9638C7.50876 11.2843 7.33401 10.8043 7.15927 10.3243Z" fill="#DD9A7B"/>
</svg>
