<svg width="29" height="43" viewBox="0 0 29 43" fill="none" xmlns="http://www.w3.org/2000/svg">
<path d="M26.7311 27.9547C27.3754 31.9853 28.0198 36.016 28.2962 40.4928C27.1766 41.5911 26.425 42.2431 25.3029 42.8927C24.1919 42.8809 23.4515 42.8715 22.711 42.8621C13.7777 42.1796 9.26581 34.7891 3.26367 29.7695C1.56592 28.3497 1.05511 25.5108 0 23.3227C0.593994 22.8657 1.18793 22.4088 1.78192 21.9518C7.71869 27.1938 13.6554 32.4357 20.5239 38.5004C19.9923 36.4416 19.9484 35.3729 19.4566 34.5833C18.7661 33.4747 17.9084 32.3179 16.8362 31.6229C5.81195 24.4766 4.26092 13.5377 4.74603 1.29858C8.8009 0.559021 12.8264 0.284057 17.5944 0C19.4566 0.63031 20.5764 1.26978 21.6943 1.9071C21.6924 1.90491 21.6885 1.90064 21.6765 2.29431C20.2787 7.23413 18.7593 11.7459 17.5814 16.3452C17.1827 17.9017 16.9706 20.3812 17.8448 21.2248C20.4995 23.7866 23.7268 25.7551 26.7311 27.9547Z" fill="#0F1021"/>
</svg>
