<svg width="55" height="36" viewBox="0 0 55 36" fill="none" xmlns="http://www.w3.org/2000/svg">
<path d="M11.8246 1.30804C17.1955 -2.57789 32.7865 2.84173 33.5573 9.08196C33.9307 12.104 33.1591 15.2674 32.887 18.599C34.7771 19.2238 36.46 19.78 38.5728 20.7631C38.8482 24.2813 40.7473 25.5764 42.8834 23.7711C45.6374 21.4434 48.1201 18.4004 49.6665 15.1625C50.9108 12.5572 50.1978 9.60653 46.0639 9.24294C44.0139 9.06267 42.0272 8.16356 40.0119 7.58968C44.0258 7.2882 48.0381 6.86623 52.0555 6.80984C52.6871 6.80096 53.6109 8.35809 53.9441 9.34487C56.9101 18.1298 52.9676 29.4007 45.3607 34.5542C42.0487 36.7979 39.833 34.5261 37.2627 33.0707C29.0619 28.4267 20.8561 23.7855 12.5378 19.3583C9.63547 17.8136 6.24374 17.1743 3.3818 15.5739C1.90768 14.7495 1.10605 12.7226 0.000150209 10.8519C-0.000215791 10.4647 -0.0104702 10.5033 0.228666 10.4094C0.651884 10.0355 0.836027 9.75552 0.995023 9.46526C0.969816 9.45501 0.99185 9.50481 1.23233 9.41393C1.65506 9.0436 1.83719 8.76421 2.01724 8.50432C2.01517 8.52382 2.05154 8.54531 2.05154 8.54531C3.14493 7.92547 4.23831 7.30562 5.84903 6.81914C12.1006 9.46078 17.8455 11.9451 23.5641 14.4885C25.9868 15.5661 28 15.1337 28.6751 12.5305C29.2804 10.196 29.8033 7.53539 26.3641 6.40789C21.4847 4.80819 16.6681 3.01723 11.8246 1.30804Z" fill="#263547"/>
</svg>
