<svg width="28" height="67" viewBox="0 0 28 67" fill="none" xmlns="http://www.w3.org/2000/svg">
<path d="M1.41597 66.2357C1.08599 63.847 0.756001 61.4583 0.416737 58.6547C0.417439 57.9083 0.481922 57.5679 0.429524 57.2466C-1.21199 47.1807 1.70086 40.3391 11.7795 35.5934C19.3951 32.0075 20.3059 22.7314 22.3736 15.0932C23.7322 10.0743 24.9162 5.00812 26.928 0C27.0836 0.844055 27.2392 1.68817 27.413 2.88702C27.0874 14.1122 27.2943 25.0402 26.1664 35.8287C25.6044 41.2047 22.738 46.3818 20.6461 51.5402C19.3474 54.7427 17.5466 57.7418 15.335 61.0436C13.6909 61.6745 12.2889 61.8078 11.7419 62.5615C9.08928 66.2171 5.4367 66.6512 1.41597 66.2357Z" fill="#465B73"/>
</svg>
