<svg width="414" height="392" viewBox="0 0 414 392" fill="none" xmlns="http://www.w3.org/2000/svg">
<path d="M43.7328 178.578C45.1341 164.416 47.9623 150.414 46.8713 135.979C46.5563 131.811 48.8785 126.85 51.3657 123.185C56.9171 115.005 58.5317 106.43 57.2202 96.8004C56.3423 90.3539 54.7551 83.3188 56.4311 77.3782C58.669 69.446 62.9611 61.7138 67.9595 55.0955C70.5689 51.6405 76.5328 50.6404 81.0768 48.7615C83.0511 47.9451 85.265 47.7076 87.8122 46.8219C88.4062 46.3666 88.5581 46.2966 88.71 46.2265C91.4659 45.2921 94.4575 44.7568 96.9105 43.3091C99.2843 41.908 101.104 39.5678 103.766 37.4416C105.179 36.3863 105.993 35.5297 106.807 34.673C107.181 34.5976 107.555 34.5222 108.517 34.6456C109.339 35.763 109.572 36.6815 109.794 37.5938C109.783 37.5875 109.797 37.6046 109.569 37.6941C109.055 37.9729 108.869 38.2333 108.78 38.5749C108.778 38.5848 108.757 38.5862 108.558 38.6534C108.104 38.86 107.918 39.0635 107.583 39.518C106.887 40.0248 106.412 40.3445 105.556 40.6369C103.74 41.975 102.303 43.3403 100.839 44.6694C100.812 44.6332 100.903 44.6352 100.647 44.7466C100.534 45.4208 100.675 45.9838 100.794 46.5615C100.772 46.5763 100.813 46.5394 100.882 46.9369C104.902 47.3964 108.853 47.4582 113.139 47.4925C113.912 47.5537 114.35 47.6425 114.916 47.999C115.284 49.0024 115.525 49.738 115.345 50.4837C101.108 47.5749 88.1775 51.2685 75.4291 55.9591C74.2859 56.3797 73.6169 58.0892 72.4025 59.3581C67.0297 62.8843 66.1077 68.4046 64.4339 73.9357C63.4117 80.9536 62.6504 87.7046 61.8501 94.9251C62.1249 99.7858 62.4386 104.177 62.7581 108.996C64.3513 115.304 65.9147 121.191 67.5352 127.062C68.4992 130.555 70.9293 131.143 74.1268 130.356C82.4863 128.296 90.8479 126.241 99.2375 124.31C106.644 122.605 114.136 121.254 121.491 119.358C124.072 118.693 126.868 117.36 128.661 115.473C131.719 112.255 133.776 108.099 136.76 104.794C145.972 94.5932 155.422 84.6084 165.039 74.7486C165.451 75.8183 165.604 76.6789 165.625 77.7686C165.04 78.2418 164.586 78.486 163.822 78.7989C163.315 79.2227 163.119 79.578 162.855 80.1936C162.414 80.8206 162.041 81.1873 161.453 81.6727C160.974 82.018 160.838 82.3058 160.844 82.8587C160.857 83.0627 160.862 83.4715 160.875 83.8348C162.856 85.632 164.824 87.0659 166.407 88.4652C160.689 86.1604 156.11 86.3208 152.226 91.5174C149.481 95.1896 145.984 98.2991 142.489 101.772C137.925 106.636 137.828 112.858 143.522 116.412C153.742 122.791 164.128 129.928 175.469 133.253C193.896 138.655 212.987 136.164 231.597 131.751C234.781 130.996 237.833 129.684 241.693 128.375C238.944 125.76 237.29 124.187 235.913 122.504C236.713 122.128 237.235 121.861 238.033 121.783C242.762 125.588 247.216 129.203 251.722 133.096C252.165 133.734 252.556 134.095 252.893 134.506C252.837 134.556 252.906 134.424 252.97 134.685C253.335 135.11 253.637 135.275 253.868 135.494C253.799 135.547 253.91 135.411 253.976 135.673C254.353 136.09 254.662 136.244 254.903 136.485C254.835 136.572 254.942 136.379 255.017 136.66C255.431 137.095 255.77 137.247 256.39 137.56C258.702 139.678 260.734 141.636 262.755 143.94C262.729 144.75 262.714 145.213 262.407 145.539C260.698 144.427 259.282 143.452 257.692 142.195C254.978 139.761 252.439 137.61 249.637 135.18C243.746 135.973 238.109 137.01 232.489 138.127C227.698 139.079 222.926 140.122 217.134 141.337C219.762 147.1 222.024 152.059 224.958 158.495C221.207 155.934 218.59 154.146 215.844 152.043C212.769 144.585 208.08 140.434 199.522 142.205C197.755 141.827 196.262 141.699 194.413 141.406C184.015 139.003 179.573 143.431 181.07 153.297C182.603 163.399 189.049 169.22 197.002 174.297C200.656 176.629 204.534 177.736 208.307 176.118C217.288 172.268 226.023 167.846 235.223 163.601C244.517 159.82 253.435 156.061 262.386 152.385C264.689 151.439 265.995 150.214 264.998 147.737C266.449 148.421 267.589 148.991 269 149.603C269.455 149.657 269.637 149.668 269.987 149.906C271.049 149.96 271.945 149.787 272.822 149.989C273.909 151.847 274.711 153.874 276.185 154.698C279.047 156.299 282.438 156.938 285.341 158.483C293.659 162.91 301.865 167.551 310.066 172.195C312.636 173.651 314.852 175.922 318.164 173.679C325.771 168.525 329.713 157.254 326.747 148.469C326.414 147.483 325.49 145.925 324.858 145.934C320.841 145.991 316.829 146.413 312.407 146.739C311.908 151.015 311.816 155.268 311.335 159.49C309.263 158.904 307.58 158.348 305.69 157.723C305.962 154.392 306.734 151.228 306.36 148.206C305.589 141.966 289.998 136.547 284.343 140.594C282.277 142.347 280.496 143.939 278.425 145.671C277.041 146.43 275.948 147.05 274.83 147.32C274.794 146.506 274.783 146.041 274.773 145.578C274.773 145.579 274.771 145.578 275.113 145.558C276.232 144.558 277.01 143.578 277.78 142.589C277.773 142.579 277.795 142.59 278.021 142.505C278.533 142.236 278.716 141.978 278.79 141.615C278.784 141.581 278.843 141.615 279.196 141.576C280.286 140.201 281.024 138.866 282.108 137.495C288.61 132.855 294.767 128.251 301.297 123.628C302.428 123.605 303.186 123.601 303.772 123.889C301.464 126.417 299.327 128.65 296.961 131.122C303.924 133.731 310.221 137.196 316.92 138.366C330.188 140.682 338.945 133.617 342.205 119.38C344.983 111.567 345.657 104.026 342.639 96.4348C341.569 93.743 340.199 91.6708 336.78 92.4547C336.761 91.9653 336.756 91.7701 336.732 91.2772C336.664 90.7871 336.614 90.5947 336.652 90.4058C336.741 90.4094 336.566 90.4326 336.886 90.3689C339.387 88.7515 338.725 87.5916 336.731 86.6018C336.766 86.5827 336.723 86.6499 336.667 86.4095C336.452 85.8594 336.205 85.6532 335.642 85.4034C335.151 84.7859 334.892 84.3154 334.584 83.567C334.239 83.0828 333.941 82.8766 333.697 82.6386C333.751 82.6067 333.674 82.7064 333.612 82.4494C333.263 82.0045 332.978 81.8166 332.729 81.6078C332.766 81.5869 332.722 81.6591 332.644 81.4094C332.278 80.9803 331.99 80.801 331.735 80.6029C331.768 80.5841 331.73 80.6496 331.652 80.4026C331.292 79.9717 331.01 79.7881 330.751 79.5916C330.773 79.579 330.747 79.6233 330.664 79.3811C330.301 78.9579 330.021 78.777 329.757 78.5875C329.774 78.5788 329.755 78.611 329.671 78.3707C329.309 77.9496 329.032 77.7689 328.764 77.5833C328.773 77.5783 328.764 77.5981 328.676 77.3595C328.309 76.9441 328.03 76.7672 327.762 76.5843C327.773 76.5782 327.762 76.6011 327.671 76.3619C327.295 75.9512 327.01 75.7796 326.749 75.5932C326.772 75.5785 326.745 75.6269 326.653 75.3837C326.268 74.9742 325.975 74.8078 325.722 74.616C325.763 74.5905 325.712 74.6718 325.63 74.4189C325.247 74.0014 324.946 73.8369 324.706 73.6655C324.766 73.6587 324.66 73.717 324.658 73.3701C323.753 72.5172 322.85 72.0113 321.702 71.4143C321.231 71.0654 321.005 70.8076 320.666 70.317C320.247 69.9404 319.943 69.7966 319.356 69.5403C318.312 68.7831 317.549 68.1384 316.676 67.2749C316.344 66.7835 316.059 66.6394 315.738 66.6017C315.768 66.5795 315.732 66.6442 315.631 66.3911C315.21 65.9869 314.892 65.8357 314.364 65.5976C314.155 65.5106 313.84 65.1844 313.799 64.9209C313.368 64.3439 312.978 64.0304 312.666 63.7278C312.744 63.7386 312.586 63.7505 312.702 63.3763C314.803 62.1915 316.788 61.381 319.053 60.5012C319.717 60.4229 320.101 60.4138 320.916 60.4713C323.81 59.8645 326.273 59.1912 328.738 58.5505C328.741 58.5831 328.714 58.5216 329.029 58.5228C329.111 57.5671 328.877 56.6101 328.686 55.6256C328.728 55.5981 328.692 55.6924 328.624 55.4383C328.271 54.9963 327.986 54.8084 327.735 54.6026C327.769 54.5846 327.729 54.6496 327.662 54.4089C327.423 53.8618 327.169 53.6565 326.608 53.402C326.141 52.7756 325.9 52.2995 325.597 51.5412C325.223 51.0581 324.91 50.8573 324.281 50.4968C320.893 49.5385 317.82 48.7398 314.729 47.5733C314.413 46.321 314.115 45.4367 313.722 44.2755C313.1 43.4384 312.572 42.8782 311.915 42.109C311.57 41.6428 311.3 41.4632 310.815 41.1098C310.031 40.3549 309.411 39.8513 308.666 39.1612C308.322 38.7472 308.055 38.6224 307.756 38.5892C307.773 38.5783 307.757 38.615 307.653 38.3924C306.985 38.1364 306.42 38.1028 305.501 38.1308C304.69 38.3358 304.233 38.4792 303.632 38.3696C302.754 37.9259 302.019 37.7352 301.256 37.1731C301.103 36.3202 300.98 35.8387 300.792 35.0227C299.453 33.9303 298.177 33.1724 296.704 32.2118C295.99 31.7985 295.472 31.5877 294.721 31.1729C293.89 30.8487 293.294 30.7287 292.466 30.5726C292.235 30.5367 291.793 30.3859 291.608 30.17C290.878 29.821 290.333 29.6879 289.538 29.5056C289.126 29.3976 288.965 29.3389 288.671 29.1071C288.314 28.7234 288.05 28.6055 287.504 28.5147C287.263 28.449 286.808 28.245 286.681 28.078C286.344 27.7093 286.095 27.5901 285.55 27.4832C285.133 27.3425 284.971 27.2722 284.683 27.043C284.353 26.6918 284.111 26.5785 283.565 26.5043C283.125 26.422 282.95 26.3799 282.66 26.2041C282.284 26.2162 282.024 26.3619 281.659 26.8488C281.472 27.6585 281.391 28.1272 281.216 28.7288C281.069 29.2192 281.218 29.47 281.656 29.8121C281.74 30.0102 281.839 30.4298 281.895 30.6825C282.203 31.1606 282.455 31.386 282.915 31.6796C283.124 31.7478 283.561 31.7962 283.624 31.7666C283.688 31.7371 283.548 31.727 283.579 32.0241C283.967 32.7708 284.325 33.2203 284.728 33.639C284.773 33.6082 284.668 33.6383 284.712 33.9217C285.007 34.4857 285.257 34.7662 285.504 35.1947C285.501 35.3427 285.662 35.5908 285.672 35.9904C285.773 38.9735 286.389 41.6738 285.847 44.117C284.633 49.5918 282.703 54.9055 281.393 60.3638C281.104 61.5697 282.182 63.1034 282.881 64.4348C283.357 64.1365 283.581 63.8897 283.8 63.6243C283.795 63.6058 283.835 63.6245 284.225 63.6218C285.651 63.6233 286.687 63.6275 287.874 63.847C287.93 65.0894 287.836 66.1163 287.429 67.3215C286.892 67.585 286.667 67.6703 286.22 67.9502C285.933 68.9845 285.87 69.8241 285.498 70.5089C279.583 66.7289 275.439 62.526 280.116 54.7921C270.772 54.4229 262.312 53.4774 254.253 59.1401C256.084 60.4363 257.772 61.2272 258.875 62.5176C260.12 63.9744 260.839 65.8803 261.435 67.5615C243.89 53.9441 224.378 49.0902 203.173 52.0867C204.634 54.0745 206.245 56.2661 207.826 58.7278C207.787 59.1777 207.777 59.3576 207.431 59.5429C206.322 59.2227 205.55 58.8971 204.687 58.3574C204.422 57.8754 204.191 57.6747 203.818 57.2024C202.077 55.7649 200.418 54.666 198.526 53.4578C198.055 53.1014 197.818 52.8545 197.61 52.4043C197.64 52.2011 197.648 51.7902 197.684 51.3821C197.747 50.1551 197.775 49.3361 198.266 48.5613C209.138 48.9122 219.546 49.2704 229.956 49.4369C230.88 49.4516 231.824 48.2177 233.067 47.7103C239.054 50.8589 244.503 54.5663 250.521 56.5174C252.943 57.3025 256.613 54.2361 259.768 52.9002C258.231 45.863 255.765 39.1137 260.312 31.8555C261.306 38.9084 262.174 45.0677 263.153 52.0085C269.019 51.5055 274.405 51.0436 280.07 50.3432C280.884 45.9294 281.42 41.754 281.9 37.2103C279.246 29.8317 273.87 25.3701 267.745 21.396C267.583 21.2125 267.48 21.1722 267.378 21.1319C267.495 21.2933 267.612 21.4546 267.706 22.0311C269.105 25.8224 270.527 29.1986 271.554 32.5889C266.006 33.9911 270.882 37.3781 269.384 39.5657C264.685 38.7656 265.118 35.1689 264.824 32.1866C264.292 26.8026 264.01 21.3938 263.51 14.412C260.559 15.8952 257.813 16.363 256.775 17.9488C251.141 26.5538 247.126 35.7078 249.503 46.4617C249.821 47.8957 249.319 49.5106 249.197 51.0418C248.751 51.2328 248.304 51.4239 247.858 51.615C243.22 46.5283 238.726 41.2995 233.902 36.3956C229.25 31.6662 225.179 26.0577 218.206 24.1559C219.074 27.0353 220.173 29.6329 221.72 31.9282C225.294 37.2291 229.086 42.3833 232.44 47.5618C231.518 47.2045 230.814 47.0028 230.393 46.5424C224.241 39.8244 218.102 33.0935 212.048 26.287C211.552 25.7297 211.667 24.6058 211.553 23.7378C211.365 22.2941 211.626 20.6238 210.98 19.4417C209.472 16.6842 207.537 14.1603 205.795 11.2469C206.135 10.491 206.454 10.0299 206.989 9.48099C207.484 9.22771 207.674 8.99028 207.87 8.41534C207.999 7.96462 208.032 7.7794 208.419 7.58296C209.241 7.51619 209.71 7.46066 210.408 7.52171C211.018 7.97832 211.397 8.31833 211.893 8.86813C212.219 9.33816 212.488 9.49944 213.1 9.71555C214.849 11.434 216.315 12.9987 217.914 14.8019C218.369 15.1893 218.693 15.3383 219.22 15.5227C219.425 15.5582 219.758 15.8069 219.874 16.1823C226.888 16.7178 233.786 16.878 241.031 16.9771C241.833 17.018 242.287 17.1201 242.846 17.4932C243.901 17.6758 244.85 17.5874 246.08 17.4296C246.863 17.1384 247.367 16.9166 248.188 16.6024C250.252 14.8634 251.998 13.2166 254.16 11.5824C255.214 11.7129 255.856 11.9454 256.491 11.9283C258.985 11.8611 261.477 11.7152 263.97 11.5985C263.712 9.38068 262.963 7.07306 263.346 4.97237C263.672 3.19081 265.306 1.6483 266.361 0C266.552 4.80211 266.552 9.62434 267.056 14.3932C267.195 15.7107 268.658 17.0821 269.824 18.0565C272.243 20.0778 274.87 21.8495 277.635 23.8884C278.85 22.9134 280.078 21.9268 282.089 20.3122C292.433 26.3938 303.587 31.8107 313.365 39.0794C320.572 44.4368 329.433 48.2146 334.165 56.7336C334.882 58.0246 337.147 58.7022 338.833 59.1714C360.391 65.1716 367.553 76.1144 368.327 100.105C368.589 108.233 366.162 116.508 364.467 124.612C363.727 128.153 363.361 131.214 365.031 134.617C372.605 150.049 375.8 166.837 378.42 183.549C379.412 189.872 382.263 194.066 385.634 198.702C391.592 206.898 397.372 215.227 403.061 223.612C405.43 227.103 405.039 231.998 409.773 234.571C411.414 235.463 411.567 240.094 411.484 242.991C410.931 262.475 410.012 281.948 409.491 301.432C409.357 306.462 410.219 311.518 410.629 316.561C410.697 317.388 411.012 318.259 410.845 319.031C407.57 334.168 411.796 349.073 412.244 364.091C412.392 369.063 413.332 374.007 413.639 378.981C413.724 380.356 412.773 381.775 412.411 383.203C411.882 385.289 411.456 387.4 410.902 390.23C410.802 391.172 410.787 391.386 410.517 391.598C410.093 391.598 409.923 391.6 409.6 391.358C408.919 390.933 408.393 390.75 407.75 390.355C407.165 389.753 406.695 389.363 405.874 388.845C405.277 388.673 405.032 388.631 404.385 388.584C402.913 388.578 401.842 388.575 400.771 388.236C400.775 387.45 400.777 387 401.089 386.509C402.204 385.848 403.009 385.23 404.167 384.601C405.928 383.912 407.337 383.232 408.917 382.197C409.291 380.556 409.752 379.25 409.653 377.987C408.391 361.861 407.049 345.741 405.744 329.211C405.092 326.398 404.424 323.994 403.859 321.342C404.245 320.459 404.528 319.824 405.119 319.045C405.917 318.45 406.408 317.999 407.144 317.308C406.785 315.931 406.179 314.795 405.369 313.624C405.165 313.588 404.792 313.407 404.788 313.05C404.777 311.976 404.769 311.259 404.789 310.106C405.977 288.094 407.14 266.518 408.316 244.677C404.517 244.677 402.208 244.677 399.468 244.642C393.132 243.198 395.766 249.092 393.458 251.721C392.971 249.351 392.63 247.695 392.198 245.595C390.308 245.595 388.539 245.595 386.817 245.264C387.84 243.903 388.817 242.873 390.175 241.741C391.608 241.581 392.658 241.523 393.987 241.778C398.421 241.62 402.576 241.149 406.913 240.537C407.337 240.193 407.505 239.94 407.854 239.481C407.651 238.75 407.192 238.177 406.749 237.589C406.766 237.574 406.755 237.618 406.652 237.383C406.264 236.973 405.979 236.798 405.734 236.622C405.773 236.622 405.711 236.671 405.692 236.333C404.691 235.883 403.708 235.771 402.287 235.678C399.511 235.69 397.174 235.683 394.587 235.382C391.359 234.335 388.434 233.766 386.436 237.449C385.683 237.569 385.245 237.593 384.701 237.361C384.329 236.621 384.062 236.137 384.111 235.472C386.965 234.285 389.503 233.281 392.427 232.123C391.547 229.596 390.978 226.992 389.783 224.718C386.573 218.609 383.095 212.641 379.759 206.587C379.795 206.558 379.863 206.497 380.211 206.517C381.874 207.761 383.538 208.772 384.445 210.248C388.178 216.321 391.876 222.434 395.172 228.749C396.499 231.291 397.623 232.405 400.584 230.899C396.266 217.57 387.303 207.17 379.588 196.055C379.172 195.457 377.145 195.978 376.077 195.978C375.672 190.97 375.24 185.621 374.807 180.271C374.387 180.2 373.966 180.129 373.545 180.058C372.885 181.642 372.075 183.181 371.591 184.816C369.757 191.009 368.421 197.378 366.177 203.413C361.997 214.657 360.597 226.247 361.013 238.093C361.081 240.008 362.801 241.864 363.727 244.062C363.374 245.393 363.052 246.41 362.671 247.678C362.601 248.1 362.589 248.272 362.632 248.453C362.689 248.463 362.665 248.352 362.421 248.308C362.177 248.265 361.684 248.19 361.549 248.098C361.21 248.214 361.007 248.422 360.8 248.62C360.796 248.609 360.828 248.63 360.454 248.616C355.649 249.442 352.565 251.724 351.693 256.681C351.657 257.141 351.65 257.325 351.685 257.52C351.728 257.532 351.701 257.448 351.431 257.46C350.982 257.492 350.802 257.512 350.378 257.414C349.648 257.045 349.165 256.793 348.707 256.182C350.774 253.153 352.815 250.483 355.211 247.697C356.147 245.94 357.487 244.138 357.175 242.691C356.058 237.508 354.608 232.364 352.801 227.38C352.121 225.503 350.23 222.942 348.704 222.807C347.163 222.671 345.389 225.154 343.482 226.509C343.246 226.529 342.775 226.575 342.777 226.165C342.899 217.148 335.157 214.749 330.978 209.535C330.585 209.783 330.191 210.032 329.797 210.28C332.491 215.698 335.184 221.116 337.828 226.797C337.747 227.236 337.716 227.411 337.351 227.584C335.972 227.251 334.928 226.922 333.805 226.226C332.383 223.145 331.041 220.431 329.719 217.348C329.076 216.183 328.412 215.386 327.491 214.388C326.763 212.978 326.292 211.77 326.04 210.389C325.779 209.668 325.299 209.121 324.641 208.284C323.687 207.793 322.257 207.341 322.225 207.424C320.685 211.438 319.266 215.499 317.597 219.717C317.804 220.45 318.247 221.02 318.73 221.918C318.783 222.684 318.797 223.122 318.542 223.776C318.724 225.192 319.175 226.393 319.667 228.035C319.741 230.839 319.773 233.203 319.514 235.833C319.647 238.594 320.071 241.09 320.561 244.004C320.72 246.117 320.814 247.811 320.62 249.716C320.154 250.837 319.976 251.747 319.68 252.854C319.371 253.299 319.127 253.479 318.574 253.742C318.135 254.451 317.954 255.006 317.44 255.565C316.662 255.567 316.218 255.566 315.739 255.24C315.261 254.505 314.818 254.096 314.172 253.547C313.569 253.129 313.17 252.85 312.519 252.295C309.774 252.547 307.28 253.075 304.538 253.601C304.291 253.598 303.798 253.599 303.573 253.328C302.666 252.96 301.984 252.862 301.153 252.762C301.004 252.758 300.766 252.579 300.532 252.296C298.466 252.157 296.634 252.301 294.627 252.538C294.451 252.631 294.06 252.702 293.667 252.82C292.774 254.724 291.915 256.497 291.846 258.301C291.649 263.39 291.778 268.493 291.494 273.843C289.71 276.397 292.656 280.569 288.019 281.304C287.893 280.88 287.813 280.721 287.821 280.32C287.868 279.912 287.828 279.746 287.933 279.136C287.998 274.662 287.917 270.631 287.925 266.137C288.048 261.911 288.243 258.14 288.061 254.387C287.944 251.965 287.274 249.57 286.408 246.988C277.817 246.837 269.67 246.859 261.16 246.737C255.316 246.52 249.827 246.608 244.357 246.323C240.439 246.119 238.669 247.115 238.84 251.542C239.173 260.166 238.872 268.814 238.92 277.451C238.931 279.37 239.298 281.287 239.531 283.481C253.937 283.481 267.867 283.481 282.2 283.542C283.957 283.575 285.312 283.548 286.921 283.745C286.783 284.492 286.401 285.463 285.995 285.474C271.954 285.848 257.912 286.303 243.87 286.298C240.737 286.297 236.813 285.319 236.263 281.221C235.693 276.967 233.349 276.135 229.81 276.243C230.488 275.474 231.125 275.023 232.169 274.571C233.631 273.547 235.55 272.565 235.597 271.499C235.882 265.066 235.739 258.614 235.739 251.851C233.714 251.75 232.26 251.678 230.483 251.593C229.727 251.548 229.296 251.515 228.735 251.103C223.961 250.358 219.319 249.918 214.667 249.718C214.031 249.691 213.343 250.864 212.411 251.807C212.022 259.613 211.901 267.092 211.436 274.377C210.869 268.857 210.508 263.532 210.477 258.206C210.456 254.743 210.958 251.249 205.46 251.585C204.709 251.579 204.28 251.578 203.682 251.393C203.263 250.988 203.013 250.768 202.653 250.275C202.292 249.284 202.043 248.566 202.201 247.837C206.474 248.158 210.338 248.489 215.744 248.952C212.58 243.621 210.192 239.597 207.754 235.22C207.411 233.42 207.118 231.972 206.547 229.147C210.578 232.415 213.384 234.69 216.521 237.232C216.36 228.513 211.194 223.758 205.456 219.273C202.412 216.894 199.63 214.179 196.749 211.599C196.768 211.582 196.801 211.545 197.161 211.577C201.758 213.817 206.148 215.78 210.186 218.305C213.643 220.467 216.16 219.406 218.445 216.858C222.757 212.047 221.235 206.616 214.663 203.259C213.986 202.836 213.473 202.638 212.758 202.147C203.633 198.08 194.711 194.305 185.572 190.258C184.303 189.508 183.243 189.046 182.198 188.553C170.515 183.046 158.121 178.49 149.771 167.951C145.129 162.092 141.375 155.53 138.06 150.547C135.305 159.453 132.039 170.016 128.747 180.946C129.174 182.351 129.354 183.691 130.12 184.377C136.592 190.167 142.952 196.117 149.781 201.464C156.214 206.501 163.176 210.866 169.719 215.908C169.6 224.286 169.858 232.288 169.67 240.279C169.531 246.16 171.87 248.683 177.474 247.906C174.387 248.997 171.58 249.809 168.407 250.683C166.929 251.687 165.816 252.629 164.314 253.572C162.889 253.571 161.853 253.569 160.799 253.142C161.522 245.345 162.263 237.973 163.362 230.487C163.756 227.114 163.791 223.856 163.807 220.195C162.85 218.203 162.169 216.359 160.908 215.091C159.465 213.641 157.507 212.704 155.653 211.324C155.247 210.943 154.962 210.781 154.333 210.569C151.57 209.122 149.149 207.725 146.619 206.202C146.261 206.222 146.013 206.367 145.731 206.774C145.665 207.208 145.634 207.381 145.297 207.615C144.918 208.644 144.846 209.612 144.777 210.978C144.692 212.432 144.603 213.488 144.248 214.596C143.911 215.291 143.839 215.934 143.769 216.908C143.735 217.679 143.7 218.119 143.346 218.601C140.293 219.789 140.326 221.109 142.787 222.98C142.717 224.436 142.638 225.494 142.242 226.63C141.86 227.993 141.794 229.279 141.737 230.897C141.709 231.672 141.674 232.115 141.323 232.62C140.145 233.181 139.282 233.679 138.418 234.178C137.797 232.426 137.293 231.004 136.775 229.145C136.842 226.675 136.923 224.642 137.302 222.542C137.659 221.509 137.716 220.544 137.77 219.206C137.82 218.088 137.873 217.344 138.25 216.528C138.644 215.164 138.713 213.873 138.776 212.183C138.847 210.724 138.927 209.665 139.336 208.514C140.532 206.167 143.508 204.004 139.78 201.279C137.985 199.531 136.375 198.063 134.762 196.217C133.726 195.105 132.694 194.372 131.334 193.578C129.272 191.841 127.538 190.164 125.756 188.203C125.39 187.611 125.073 187.304 124.756 186.997C124.415 187.472 124.075 187.947 123.624 188.702C122.938 189.515 122.362 190.05 121.44 190.615C117.316 194.613 113.537 198.58 109.592 202.801C108.549 203.567 107.673 204.079 106.44 204.589C105.314 205.255 104.546 205.922 103.65 206.848C103.204 207.588 102.885 208.069 102.296 208.597C101.938 209.288 101.85 209.932 101.764 210.931C101.114 212.723 100.462 214.159 99.5166 215.616C99.0542 216.278 98.8855 216.919 98.7303 217.925C99.094 220.365 99.4443 222.44 99.7867 224.914C100.721 227.41 101.663 229.507 102.653 231.932C102.722 232.699 102.743 233.139 102.507 233.778C101.699 234.89 101.149 235.803 100.37 236.406C99.1042 227.932 94.5843 220.238 96.9886 211.567C97.0063 211.513 96.868 211.52 96.4206 211.656C91.7028 216.06 85.8538 219.607 88.5598 227.388C88.842 228.2 88.079 229.318 88.0859 230.291C88.1343 237.09 85.1771 244.664 92.4789 249.555C90.9022 249.599 89.7564 249.628 88.3342 249.619C87.6211 249.27 87.1843 248.957 86.7067 248.287C84.0597 246.786 81.4534 245.644 78.7468 244.149C77.0627 243.346 75.4791 242.895 73.7837 242.098C71.9921 240.881 70.3673 239.412 68.6221 239.251C63.6389 238.793 59.0311 234.459 53.3691 237.713C52.62 237.653 52.1951 237.578 51.5773 237.178C45.101 234.523 38.8653 233.92 32.4243 237.451C31.6709 237.556 31.235 237.578 30.5602 237.324C27.0576 236.707 23.8255 236.431 22.7978 240.938C22.7635 241.156 22.5874 241.561 22.2625 241.638C22.1609 243.005 22.3843 244.295 22.7511 245.768C23.0858 246.203 23.3291 246.388 24.0691 246.535C26.2813 246.574 28.0484 246.584 29.7604 246.946C29.2625 247.838 28.8197 248.379 28.1217 248.753C24.4561 247.951 24.1185 250.122 24.7744 252.434C26.3029 257.822 28.1242 263.128 29.6988 268.755C28.9362 269.578 28.3018 270.111 27.4206 270.521C26.7068 270.135 26.2398 269.874 25.4167 269.657C22.9278 274.544 20.567 279.302 18.7076 284.249C14.2518 296.103 10.0777 308.062 5.68372 319.94C4.5892 322.898 3.09155 325.708 1.48264 328.583C0.790711 328.579 0.395355 328.578 0 328.577C2.18182 322.158 4.36365 315.738 6.73627 308.63C7.41278 306.538 7.8985 305.135 8.38422 303.733C13.2732 290.31 18.1622 276.888 23.3328 262.817C22.6709 259.963 21.7275 257.758 20.7841 255.553C20.0261 253.187 19.3659 250.784 18.4883 248.463C16.9864 244.491 16.4298 240.938 18.5534 236.632C20.2773 233.136 20.0515 228.651 20.5571 224.588C21.8718 214.024 26.8891 205.081 32.6921 196.462C35.6663 192.045 38.6041 187.604 41.977 182.702C42.8414 181.014 43.287 179.796 43.7328 178.578ZM359.764 83.9672C359.52 83.6636 359.276 83.3601 359.076 82.548C358.98 82.2228 358.884 81.8977 358.838 80.9006C358.496 80.1018 358.155 79.303 357.788 77.7778C356.479 75.9333 355.169 74.0889 353.699 71.5925C352.378 70.4142 351.246 68.7233 349.701 68.1525C344.8 66.3422 339.712 65.0439 334.76 63.3626C331.591 62.2869 329.412 62.2119 327.467 65.8102C325.615 69.2392 326.486 71.1188 329.028 73.3461C338.871 81.9702 345.818 92.3304 347.772 106.468C347.768 109.486 347.764 112.504 347.192 116.084C344.809 125.095 352.171 129.111 356.82 135.298C361.678 143.76 364.465 152.828 364.227 162.174C361.43 155.895 358.633 149.615 355.752 142.652C353.805 140.47 352.119 137.947 349.836 136.206C347.745 134.611 344.095 132.302 342.763 133.084C340.493 134.417 339.295 137.834 338.063 140.563C337.498 141.814 337.852 143.512 337.903 145.004C338.157 152.46 338.956 159.94 338.591 167.363C338.19 175.528 336.423 183.526 330.209 189.663C327.737 192.104 327.623 194.583 329.204 197.735C333.684 206.663 341.266 212.489 349.032 218.845C357.284 210.413 364.13 201.708 364.784 188.692C364.775 179.986 364.766 171.279 365.357 161.992C366.428 153.49 366.153 145.091 362.681 137.128C362.037 135.652 360.126 134.728 358.772 132.897C358.767 132.461 358.762 132.026 358.881 130.779C360.328 120.033 364.337 109.508 361.934 97.7361C361.78 95.3625 361.627 92.9889 361.466 89.9134C361.285 89.4861 361.103 89.0587 361.087 88.0229C360.658 86.865 360.23 85.7071 359.771 84.5753C359.771 84.5753 359.807 84.5603 359.764 83.9672ZM258.134 166.246C256.491 165.785 254.398 164.441 253.28 165.011C247.614 167.894 242.201 171.274 236.011 174.611C233.34 177.46 227.553 177.568 227.963 183.04C228.293 187.442 229.699 192.049 233.985 193.887C239.051 196.059 244.605 198.19 249.975 198.26C255.954 198.338 262.358 196.715 265.126 189.889C268.31 182.035 265.585 172.237 258.134 166.246ZM290.209 210.941C280.47 208.478 272.467 215.209 273.655 225.442C274.074 229.053 273.631 232.756 273.779 236.408C273.994 241.695 276.567 243.72 281.801 243.639C284.472 243.598 287.594 243.681 289.718 244.994C292.197 246.525 293.583 245.814 295.337 244.462C304.37 237.5 304.067 221.331 294.189 213.263C293.065 212.664 291.942 212.065 290.209 210.941ZM240.029 209.667C233.72 209.4 230.377 212.21 228.674 218.534C226.669 225.98 225.645 232.943 231.201 239.1C232.691 240.751 235.287 242.288 237.406 242.33C245.004 242.48 252.615 241.952 260.222 241.713C262.269 241.649 264.32 241.704 266.717 241.704C266.717 234.458 266.825 228.205 266.691 221.957C266.505 213.256 262.7 209.066 253.899 208.433C249.549 208.891 245.199 209.348 240.029 209.667ZM35.0954 199.857C27.3342 209.948 26.1284 221.907 25.5665 234.491C27.6535 233.775 29.8838 232.825 30.5244 231.234C34.4724 221.429 38.0619 211.48 42.2896 201.165C44.1198 198.739 45.9499 196.314 47.78 193.888C48.1142 194.116 48.4483 194.345 48.7825 194.573C47.7779 197.242 46.7732 199.91 45.2166 203.055C42.2276 212.564 38.9505 222.028 39.9936 232.653C44.3183 232.922 48.0794 233.156 52.6755 233.489C62.5584 235.912 72.4413 238.336 82.5201 240.807C82.5996 240.067 82.8338 238.946 82.8229 237.828C82.688 224.025 78.1405 211.551 71.5311 199.626C67.6835 192.684 64.0439 185.609 60.6906 178.417C57.7235 172.053 55.2822 165.444 52.6088 158.944C52.1915 158.983 51.7742 159.021 51.3569 159.06C50.8665 161.246 50.376 163.432 49.476 166.318C48.8175 171.975 48.159 177.632 46.8677 183.543C43.1347 188.86 39.4017 194.178 35.0954 199.857ZM62.7895 160.443C62.3461 180.916 73.29 196.257 85.7118 210.862C86.4035 211.675 89.0338 211.996 89.852 211.366C97.5956 205.399 105.913 199.905 112.57 192.862C123.595 181.199 130.624 166.995 133.401 151.059C134.831 142.851 135.372 134.488 136.391 125.521C130.594 125.95 126.177 126.277 120.904 126.556C119.773 126.371 118.628 126.251 117.514 125.993C107.14 123.59 96.4934 127.674 90.8685 136.443C86.0303 143.985 81.3772 151.646 76.8653 158.896C76.8425 148.812 85.4658 141.589 88.7553 130.888C82.8831 132.402 78.039 134.091 73.0595 134.738C70.7756 135.035 68.0674 133.574 65.8563 132.357C64.5444 131.635 63.8261 129.835 62.8291 127.711C62.1757 124.827 61.5223 121.943 60.7023 118.324C51.162 130.503 50.9518 133.932 58.7859 141.337C62.8109 146.804 62.9354 153.148 62.7895 160.443ZM298.348 173.552C293.719 171.132 289.295 168.105 284.407 166.451C278.78 164.548 274.464 167.641 273.841 173.415C273.202 179.346 272.89 185.333 272.834 191.299C272.781 196.905 277.342 201.758 282.929 201.447C286.729 201.234 290.882 200.164 294.112 198.212C304.349 192.025 306.079 182.083 298.348 173.552ZM171.302 168.586C170.304 168.592 169.264 168.421 168.316 168.643C166.509 169.067 164.754 169.716 162.978 170.271C164.099 171.958 164.841 174.515 166.401 175.195C178.564 180.494 190.846 185.531 203.211 190.342C204.587 190.878 207.926 189.876 208.23 188.915C208.826 187.031 208.478 184.344 207.455 182.623C206.723 181.393 204.236 181.241 202.565 180.531C196.631 178.009 190.164 176.248 184.961 172.658C180.829 169.807 177.103 168.035 171.302 168.586ZM312.612 223.862C307.643 229.934 303.388 236.033 305.671 244.754C307.159 250.442 307.276 250.917 313.601 250.582C318.625 250.316 316.585 246.661 316.706 244.336C316.965 239.372 316.855 234.381 316.709 229.407C316.648 227.286 316.181 225.164 315.684 223.094C315.646 222.933 313.913 223.178 312.612 223.862ZM321.838 176.181C317.577 178.741 315.236 182.059 317.428 187.193C327.376 187.133 330.825 184.581 332.988 175.408C335.713 163.854 335.238 152.26 333.251 140.675C333.102 144.134 332.811 147.623 333.157 151.048C334.196 161.344 332.249 170.222 321.838 176.181ZM167.066 161.682C171.973 161.13 169.599 157.349 169.602 155.072C169.604 153.637 167.956 151.306 166.618 150.938C163.304 150.027 159.742 149.737 156.281 149.739C154.154 149.741 150.42 150.412 150.227 151.357C149.79 153.509 150.805 156.145 151.802 158.322C152.3 159.409 153.978 160.392 155.257 160.602C158.843 161.193 162.499 161.357 167.066 161.682ZM152.731 136.675C149.91 138.258 148.478 143.543 150.589 143.937C156.265 144.996 162.133 145.346 167.912 145.239C168.895 145.221 169.811 141.544 170.758 139.557C169.311 138.883 167.915 137.798 166.408 137.613C162.172 137.093 157.891 136.944 152.731 136.675ZM316.925 199.307C315.236 201.539 313.447 203.703 311.88 206.018C309.382 209.709 307.777 213.599 309.815 218.584C317.912 212.783 319.682 204.842 320.831 195.378C319.147 196.976 318.23 197.846 316.925 199.307Z" fill="#040407"/>
</svg>
