<svg width="59" height="18" viewBox="0 0 59 18" fill="none" xmlns="http://www.w3.org/2000/svg">
<path d="M52.0453 15.9787C50.1933 14.9689 47.8553 14.3754 46.5723 12.8781C40.5543 5.85428 32.8774 4.75852 24.3589 5.832C21.0463 6.24941 17.6879 6.3031 13.9893 6.7011C9.36472 7.32537 5.10132 7.77101 0 8.30424C4.79788 3.68268 9.65363 1.34563 15.9661 1.87993C18.8181 2.12132 21.9045 1.94398 24.6099 1.0884C30.5977 -0.805186 35.964 -0.310442 41.2299 3.22384C46.8523 6.99742 52.6851 10.4574 58.6227 14.6325C57.1931 16.0283 55.5669 16.8459 53.872 17.3709C53.2173 16.7118 52.6313 16.3453 52.0453 15.9787Z" fill="#98704F"/>
</svg>
