<svg width="8" height="22" viewBox="0 0 8 22" fill="none" xmlns="http://www.w3.org/2000/svg">
<path d="M5.13164 0C5.53154 0.278534 5.93145 0.557068 6.59209 1.3606C6.96666 2.91574 7.08043 3.94592 7.1397 5.44214C7.08061 10.9302 7.07604 15.9523 7.08818 20.9621C7.10485 20.9499 7.06798 20.9355 6.82714 20.9994C6.58629 21.0633 6.15758 21.3183 5.79668 21.3045C3.67333 21.1892 1.91081 21.0878 0.14696 20.519C0.0850697 14.6082 -0.0991342 9.16086 0.0690178 3.7244C0.102404 2.64496 1.48644 1.60727 2.12834 0.909302C-0.256421 8.8555 0.820239 17.813 4.54827 19.8541C7.02507 13.2703 5.47765 6.91098 4.29424 0.403809C4.75542 0.171265 4.94353 0.085632 5.13164 0Z" fill="#A12E32"/>
</svg>
