<svg width="21" height="21" viewBox="0 0 21 21" fill="none" xmlns="http://www.w3.org/2000/svg">
<path d="M15.898 15.4082C14.8687 13.8701 13.9749 12.2035 12.7202 10.879C12.3825 10.5226 10.9474 11.2061 9.94186 11.7077C6.71793 10.6045 2.93466 9.83933 0.659758 7.56528C-0.667391 6.23857 0.418059 2.49826 0.418059 0.0169703C5.41843 -0.392759 8.69345 6.81501 12.9417 0.25783C14.5025 1.83016 15.8117 3.67459 17.1051 6.22904C17.4334 7.73062 17.7774 8.52219 18.1214 9.31378C18.2173 9.63895 18.3132 9.96411 18.3814 10.8534C18.6159 11.7122 18.878 12.0068 19.1402 12.3015C19.1402 12.3015 19.1037 12.3166 19.0923 12.6405C19.4723 14.1005 19.8637 15.2366 20.2552 16.3726C20.4364 16.8 20.6177 17.2273 20.5899 18.2076C19.6186 19.2839 18.8564 19.8074 18.0943 20.331C18.0943 20.331 17.9357 19.9974 17.9707 19.4459C17.3031 17.7322 16.6006 16.5702 15.898 15.4082Z" fill="#C22F32"/>
</svg>
