<svg width="42" height="55" viewBox="0 0 42 55" fill="none" xmlns="http://www.w3.org/2000/svg">
<path d="M38.0865 35.0114C39.089 41.053 40.0915 47.0947 41.0951 53.5602C39.3393 53.0247 37.5826 52.0654 35.4388 50.6847C32.5092 41.374 29.9344 32.4937 27.4341 23.5923C25.5244 16.7936 20.8407 13.2697 13.9256 11.8C12.8133 13.0165 11.9039 14.4769 10.6387 16.0169C6.82181 21.0814 6.55875 26.6942 6.29099 32.3061C6.68979 32.3931 7.0886 32.4802 7.4874 32.5673C8.70603 27.0673 9.92459 21.5673 11.3926 15.9462C12.1259 15.555 12.61 15.2849 13.3742 15.2768C13.7628 15.8501 14.0046 16.1818 13.9604 16.4695C12.0863 28.6658 13.0811 40.531 17.881 51.9991C18.2444 52.8675 18.0457 53.9712 18.1083 54.9655C9.16214 55.0686 8.1417 54.0658 8.0936 45.0906C8.07999 42.5461 8.09153 40.0015 8.09153 37.4568C7.30863 37.4077 6.52573 37.3586 5.74283 37.3095C5.39035 41.9163 5.03788 46.5231 4.68546 51.129C0.420749 51.9162 -0.387174 51.6254 0.14487 47.1252C1.63626 34.5101 3.60971 21.9515 5.43003 9.37604C5.6185 8.07465 6.05619 6.80927 6.99485 5.23346C9.39841 3.29315 11.1853 1.64661 12.9722 0C17.7885 5.65045 22.6048 11.301 27.7459 16.9828C28.0708 17.0143 28.0692 16.98 28.0904 17.3016C28.4951 18.0966 28.8788 18.57 29.5135 19.2645C31.0215 21.6893 31.6736 24.6371 35.2712 23.96C35.7446 24.8863 36.2181 25.8126 36.9645 26.9169C37.7036 29.5786 38.1698 32.0621 38.3495 34.5397C38.0631 34.5338 38.046 34.044 37.922 33.7239C37.3961 32.2479 36.9941 31.092 36.5921 29.9362C36.3525 30.01 36.1129 30.0838 35.8733 30.1576C36.2738 31.4439 36.6743 32.7302 37.1845 34.2365C37.4925 34.7352 37.7566 34.9202 38.0865 35.0114Z" fill="#1E2C3F"/>
</svg>
