<svg width="59" height="32" viewBox="0 0 59 32" fill="none" xmlns="http://www.w3.org/2000/svg">
<path d="M4.68317 7.22271C3.07214 5.03106 1.46115 2.83941 0 0.851651C21.2052 -2.14489 40.7173 2.70903 58.2539 16.3182C58.5982 16.3393 58.5862 16.3207 58.5832 16.705C58.6225 17.8576 58.6647 18.626 58.3211 19.5391C54.6393 20.0522 51.3435 20.4205 47.3647 20.8651C48.4205 22.0434 49.0061 22.6969 49.6303 23.7261C51.2929 27.7838 48.6767 27.1992 46.5113 27.3902C35.8266 28.3325 25.1493 29.3594 14.4727 30.392C12.685 30.565 10.9142 30.9127 8.61337 31.2581C9.87958 28.679 10.718 26.9712 11.5565 25.2634C11.5565 25.2634 11.5968 25.3212 11.817 25.2406C12.2206 24.8651 12.4038 24.5702 12.5871 24.2754C12.5871 24.2754 12.5911 24.3409 12.9325 24.3564C15.3543 22.319 17.4347 20.2662 19.5151 18.2134C19.5151 18.2134 19.5883 18.28 19.8839 18.2739C20.6393 17.5985 21.099 16.9292 21.5588 16.2599C21.5588 16.2599 21.5895 16.3254 21.8103 16.2407C22.2135 15.8577 22.3958 15.5594 22.5782 15.261C22.5782 15.261 22.5882 15.3316 22.8098 15.244C23.2139 14.8579 23.3963 14.5594 23.5786 14.261C23.5786 14.261 23.584 14.3329 23.9193 14.315C27.911 12.3539 26.9424 10.7481 23.7929 9.57989C22.147 8.96939 20.3437 8.78319 18.1943 8.37779C16.3844 8.33816 14.9916 8.32612 13.235 8.27424C11.445 7.9633 10.019 7.69221 8.20126 7.39692C6.76743 7.3227 5.72531 7.27272 4.68317 7.22271Z" fill="#202135"/>
</svg>
